<?xml version="1.0" encoding="UTF-8"?>
<svg width="1200pt" height="1200pt" version="1.1" viewBox="0 0 1200 1200" xmlns="http://www.w3.org/2000/svg">
 <path d="m581.25 525.36v135l154.39 89.156 154.41-89.156v-178.31l-154.41-89.137-116.89 67.48v-135l-154.39-89.137-154.41 89.137v178.29l154.41 89.156zm37.5 0 98.102 56.625v113.4l-98.102-56.699zm135.6 170.08v-113.25l98.195-56.793v113.34zm79.445-202.5-98.008 56.68-98.289-56.773 98.102-56.645zm-252.55-10.895-98.195 56.68v-113.25l98.195-56.777zm-18.75-145.82-98.008 56.664-98.25-56.699 98.117-56.625zm-215.04 32.422 98.102 56.625v113.4l-98.102-56.625z"/>
 <path d="m422.14 1011.5h31.48l-15.281-59.398z"/>
 <path d="m1012.5 818.81v-493.01l-5.4922-5.4922-267.94-267.94-5.4961-5.4922h-471.07c-19.891 0-38.969 7.9023-53.031 21.969-14.066 14.062-21.969 33.141-21.969 53.031v632.66c-5.6836 3.2617-10.41 7.9609-13.703 13.629-3.2891 5.668-5.0312 12.102-5.0469 18.656v272.55c0.03125 24.855 9.918 48.684 27.492 66.258 17.574 17.574 41.402 27.461 66.258 27.492h675c24.855-0.03125 48.684-9.918 66.258-27.492 17.574-17.574 27.461-41.402 27.492-66.258v-208.26c-0.011719-6.5547-1.7539-12.992-5.043-18.664-3.293-5.6719-8.0195-10.375-13.707-13.641zm-541.99 258.43-9.0195-35.102-47.453 0.003906-9.6758 35.102h-36l48.395-167.4h42.281l47.68 167.4zm148.24-10.797c-12.699 9.4219-28.312 14.07-44.102 13.125-12.512-0.078124-24.789-3.4141-35.625-9.6758-6.0508-3.2305-11.465-7.5391-15.973-12.715-5-5.9648-9.0273-12.688-11.926-19.91l30-13.125c1.7031 3.6953 3.6641 7.2656 5.8672 10.688 1.9766 3.0859 4.4102 5.8555 7.2188 8.2109 2.7812 2.3164 5.957 4.1094 9.375 5.2891 3.8633 1.3164 7.9219 1.9531 12 1.875 3.0977 0.015625 6.1914-0.28906 9.2266-0.90234 2.8242-0.51563 5.5312-1.543 7.9883-3.0352 2.3711-1.4023 4.3164-3.4258 5.625-5.8516 1.4492-2.9062 2.1484-6.1289 2.0234-9.375-0.16797-5.8281-3.4141-11.129-8.5312-13.93-7.1211-4.6172-14.754-8.3906-22.742-11.25-13.973-4.7461-27.113-11.656-38.945-20.477-9.1289-7.9414-14.102-19.641-13.48-31.723-0.21484-12.875 5.6133-25.102 15.75-33.039 11.125-8.957 25.102-13.613 39.375-13.125 12.547-0.18359 24.895 3.1719 35.625 9.6758 5.3086 3.2148 10.023 7.3242 13.93 12.148 4.5312 5.7656 8.2461 12.125 11.047 18.902l-33.094 10.125c-2.3086-5.8594-5.793-11.18-10.238-15.641-4.7969-4.2148-11.066-6.3594-17.438-5.9609-2.4609 0.007812-4.9102 0.26953-7.3125 0.78906-2.3594 0.48828-4.6328 1.3242-6.75 2.4727-4.3789 2.3984-7.0352 7.0508-6.8828 12.039 0.035156 2.3438 0.78906 4.6211 2.1562 6.5234 1.9453 2.5547 4.4453 4.6328 7.3125 6.0742 7.793 4.3086 15.949 7.9219 24.375 10.801 12.254 4.1758 23.73 10.359 33.957 18.301 10.766 8.168 16.754 21.16 15.977 34.648 0.82422 14.43-4.9922 28.441-15.789 38.047zm196.63 10.801h-31.875v-114.08l-32.625 114.07h-27.246l-32.195-113.85v113.85h-31.875l0.003906-167.4h47.906l29.699 107.55 30-107.55h48.355zm159.62-263.63h-410.89l-45-51.488v0.003906c-7.1211-8.1406-17.406-12.809-28.219-12.809h-265.89v-627.45c0-9.9453 3.9492-19.484 10.984-26.516 7.0312-7.0352 16.57-10.984 26.516-10.984h444.56v192.94c0 19.891 7.9023 38.969 21.969 53.031 14.062 14.066 33.141 21.969 53.031 21.969h192.94z"/>
</svg>
