<?xml version="1.0" encoding="UTF-8"?>
<svg width="1200pt" height="1200pt" version="1.1" viewBox="0 0 1200 1200" xmlns="http://www.w3.org/2000/svg">
 <path d="m788.44 18.75h-516.56c-46.875 0-84.375 37.5-84.375 84.375v993.75c0 46.875 37.5 84.375 84.375 84.375h656.25c46.875 0 84.375-37.5 84.375-84.375v-854.06zm-0.9375 52.5 172.5 172.5h-125.62c-26.25 0-46.875-20.625-46.875-46.875zm187.5 1025.6c0 26.25-20.625 46.875-46.875 46.875h-656.25c-26.25 0-46.875-20.625-46.875-46.875v-215.62h750zm0-253.12h-750v-740.62c0-26.25 20.625-46.875 46.875-46.875h478.12v140.62c0 46.875 37.5 84.375 84.375 84.375h140.62zm-403.12 187.5h28.125c10.312 0 18.75 8.4375 18.75 18.75s-8.4375 18.75-18.75 18.75h-64.688c-9.375 0-17.812 6.5625-19.688 15.938-1.875 12.188 7.5 21.562 18.75 21.562h65.625c30.938 0 56.25-25.312 56.25-56.25s-25.312-56.25-56.25-56.25h-28.125c-10.312 0-18.75-8.4375-18.75-18.75s8.4375-18.75 18.75-18.75h64.688c9.375 0 17.812-6.5625 19.688-15.938 1.875-12.188-7.5-21.562-18.75-21.562h-65.625c-30.938 0-56.25 25.312-56.25 56.25s25.312 56.25 56.25 56.25zm196.88 75c10.312 0 18.75-8.4375 18.75-18.75v-75.938l20.625 38.438c3.75 6.5625 10.312 9.375 16.875 9.375s13.125-3.75 16.875-9.375l20.625-38.438v75.938c0 10.312 8.4375 18.75 18.75 18.75s18.75-8.4375 18.75-18.75v-150c0-10.312-8.4375-18.75-18.75-18.75-7.5 0-13.125 3.75-15.938 9.375 0 0-40.312 73.125-40.312 73.125s-39.375-73.125-40.312-73.125c-2.8125-5.625-9.375-9.375-15.938-9.375-10.312 0-18.75 8.4375-18.75 18.75v150c0 10.312 8.4375 18.75 18.75 18.75zm-459.38-0.9375c9.375 3.75 20.625-1.875 23.438-12.188l8.4375-24.375h48.75l8.4375 24.375c3.75 9.375 14.062 15 23.438 12.188s15-14.062 12.188-23.438l-50.625-150c-2.8125-8.4375-7.5-13.125-17.812-13.125s-15.938 6.5625-17.812 13.125l-50.625 150c-2.8125 9.375 2.8125 19.688 12.188 23.438zm56.25-108.75 11.25 34.688h-23.438zm289.69-720.94-102.19-59.062c-5.625-3.75-13.125-2.8125-18.75 0l-188.44 108.75c-5.625 2.8125-9.375 9.375-9.375 15.938v259.69c0 5.625 2.8125 13.125 9.375 15.938 1.875 0.9375 318.75 183.75 318.75 183.75 2.8125 1.875 5.625 1.875 8.4375 1.875 3.75 0 6.5625-0.9375 9.375-2.8125l188.44-108.75c5.625-3.75 8.4375-9.375 8.4375-15.938v-260.62c0-2.8125-0.9375-5.625-2.8125-8.4375-0.9375-2.8125-2.8125-4.6875-5.625-5.625 0.9375 0-214.69-124.69-214.69-124.69h-0.9375zm-111.56-21.562 65.625 37.5-150 86.25-65.625-37.5zm9.375 438.75-178.12-103.12v-216.56l65.625 37.5v119.06c0 7.5 3.75 13.125 9.375 15.938 2.8125 1.875 103.12 59.062 103.12 59.062zm103.12 59.062-65.625-37.5v-119.06c0-6.5625-3.75-13.125-9.375-15.938-2.8125-1.875-103.12-59.062-103.12-59.062v-86.25l178.12 103.12zm187.5-86.25-150 86.25v-216.56l150-86.25zm-168.75-162.19-178.12-103.12 150-86.25 178.12 103.12z"/>
</svg>
