<?xml version="1.0" encoding="UTF-8"?>
<svg width="1200pt" height="1200pt" version="1.1" viewBox="0 0 1200 1200" xmlns="http://www.w3.org/2000/svg">
 <path d="m461.49 1032.4h-47.453l-9.6758 35.102h-36l48.395-167.46h42.281l47.68 167.4h-36.207zm-39.375-30.602h31.48l-15.281-59.398z"/>
 <path d="m574.69 1069.7c-12.512-0.078125-24.793-3.4141-35.625-9.6758-6.0547-3.2305-11.469-7.5391-15.977-12.711-4.9922-5.9727-9.0156-12.691-11.922-19.914l30-13.125c1.7031 3.6953 3.6641 7.2656 5.8672 10.688 1.9766 3.0859 4.4102 5.8555 7.2188 8.2109 2.7812 2.3125 5.957 4.1016 9.375 5.2891 3.8594 1.3203 7.9219 1.9531 12 1.875 3.0977 0.003906 6.1875-0.29688 9.2266-0.89844 2.8203-0.52734 5.5273-1.5547 7.9844-3.0391 2.3711-1.4062 4.3164-3.4258 5.625-5.8516 1.4531-2.9023 2.1484-6.1289 2.0273-9.375-0.17578-5.8359-3.4297-11.145-8.5508-13.949-7.1172-4.6133-14.742-8.3867-22.727-11.25-13.969-4.7539-27.105-11.66-38.941-20.473-9.1289-7.9414-14.102-19.641-13.48-31.727-0.22656-12.887 5.6133-25.133 15.766-33.074 11.129-8.957 25.102-13.617 39.375-13.125 12.551-0.19141 24.898 3.1602 35.625 9.6758 5.3125 3.2148 10.023 7.3242 13.934 12.148 4.5273 5.7656 8.2422 12.125 11.043 18.898l-33.094 10.125c-2.3086-5.8555-5.793-11.176-10.238-15.637-4.793-4.2148-11.062-6.3594-17.438-5.9609-2.457 0.007813-4.9102 0.26953-7.3125 0.78516-2.3594 0.48437-4.6367 1.3203-6.75 2.4766-4.375 2.3984-7.0352 7.0508-6.8789 12.039 0.035157 2.3438 0.78906 4.6211 2.1562 6.5234 1.9492 2.5469 4.4492 4.625 7.3125 6.0742 7.793 4.3086 15.949 7.9219 24.375 10.801 12.332 4.1289 23.895 10.289 34.199 18.227 10.77 8.1602 16.762 21.156 15.973 34.648 0.80859 14.547-5.125 28.652-16.086 38.25-12.699 9.3867-28.297 14.008-44.062 13.051z"/>
 <path d="m783.47 953.38-32.625 114.07h-27.207l-32.195-113.85v113.85h-31.875l0.003906-167.46h47.906l29.699 107.55 29.887-107.55h48.355v167.4h-31.875z"/>
 <path d="m754.35 695.38 98.191-56.703v-113.34l-98.191 56.797z"/>
 <path d="m833.79 492.86-98.156-56.664-98.098 56.645 98.25 56.699z"/>
 <path d="m716.85 589.99v-8.0625l-98.102-56.625v113.38l98.102 56.645z"/>
 <path d="m347.46 482.04 98.098 56.625v-113.4l-98.098-56.625z"/>
 <path d="m1009.5 332.44c-0.375-0.375-0.75-0.9375-1.125-1.3125-0.38281-0.54688-0.82031-1.0508-1.3125-1.5l-267.94-267.94c-0.375-0.375-0.9375-0.75-1.3125-1.125s-1.125-0.9375-1.5-1.3125l-2.8125-3h-471c-19.891 0-38.969 7.9023-53.031 21.969-14.066 14.062-21.969 33.141-21.969 53.031v937.5c0 19.891 7.9023 38.969 21.969 53.031 14.062 14.066 33.141 21.969 53.031 21.969h675c19.891 0 38.969-7.9023 53.031-21.969 14.066-14.062 21.969-33.141 21.969-53.031v-733.5zm-264.94-212.25 204 204h-166.5c-9.9375-0.03125-19.457-3.9883-26.484-11.016s-10.984-16.547-11.016-26.484zm-434.61 205.2 154.41-89.137 154.39 89.137v135l116.89-67.5 154.41 89.137v178.29l-154.41 89.156-154.39-89.137v-135l-116.89 67.5-154.41-89.156zm665.04 743.36c-0.03125 9.9375-3.9883 19.457-11.016 26.484s-16.547 10.984-26.484 11.016h-675c-9.9375-0.03125-19.457-3.9883-26.484-11.016s-10.984-16.547-11.016-26.484v-291.38h257.44l50.625 57.938c3.5273 4.0859 8.668 6.4141 14.062 6.375h427.88z"/>
 <path d="m562.5 336.23-98.137-56.664-98.121 56.625 98.25 56.699z"/>
 <path d="m483.05 538.74 98.195-56.68v-113.36l-98.195 56.777z"/>
</svg>
