<?xml version="1.0" encoding="UTF-8"?>
<svg width="1200pt" height="1200pt" version="1.1" viewBox="0 0 1200 1200" xmlns="http://www.w3.org/2000/svg">
 <path d="m277.29 1148.4c-30.652 0-55.594-24.938-55.594-55.594v-853.29h122.08c4.3047 0 8.5078-0.42969 12.582-1.2188-1.0781 4.7188-1.6641 9.6211-1.6641 14.664v79.742c0 36.27 29.402 65.676 65.676 65.676 36.27 0 65.676-29.402 65.676-65.676v-79.742c0-36.27-29.402-65.676-65.676-65.676-4.2383 0-8.3789 0.41797-12.395 1.1836 1.1055-4.7812 1.7109-9.7539 1.7109-14.871v-60.285c0-7.7656-6.2969-14.062-14.062-14.062s-14.062 6.2969-14.062 14.062v60.285c0 20.836-16.949 37.789-37.789 37.789h-102.19l155-155c3.1406-3.1406 7.3164-4.8672 11.754-4.8672h514.36c30.652 0 55.594 24.938 55.594 55.594 0 7.7656 6.2969 14.062 14.062 14.062s14.062-6.2969 14.062-14.062c0-46.16-37.555-83.719-83.719-83.719h-514.36c-11.953 0-23.191 4.6562-31.641 13.105l-170.03 170.03c-8.4531 8.4531-13.109 19.691-13.109 31.641v854.63c0 46.16 37.555 83.719 83.719 83.719 7.7656 0 14.062-6.2969 14.062-14.062s-6.2969-14.062-14.062-14.062zm143.08-919.57c13.332 0 24.141 10.809 24.141 24.141v79.742c0 13.332-10.809 24.141-24.141 24.141-13.332 0-24.141-10.809-24.141-24.141v-79.742c0-13.332 10.809-24.141 24.141-24.141z"/>
 <path d="m992.37 168.58c-7.7656 0-14.062 6.2969-14.062 14.062v910.2c0 30.652-24.938 55.594-55.594 55.594h-578.9c-7.7656 0-14.062 6.2969-14.062 14.062s6.2969 14.062 14.062 14.062h578.9c46.164 0 83.719-37.555 83.719-83.719l0.003907-910.2c0-7.7656-6.2969-14.062-14.062-14.062z"/>
 <path d="m845.3 208.1c0-11.469-9.2969-20.766-20.77-20.766-11.469 0-20.766 9.2969-20.766 20.766v169.55c0 11.469 9.2969 20.77 20.766 20.77s20.77-9.2969 20.77-20.77z"/>
 <path d="m624.14 684.78c0 11.469 9.2969 20.766 20.77 20.766 11.469 0 20.77-9.2969 20.77-20.766v-169.55c0-11.469-9.2969-20.766-20.77-20.766-11.469 0-20.77 9.2969-20.77 20.766z"/>
 <path d="m354.7 822.34v169.55c0 11.469 9.2969 20.77 20.77 20.77 11.469 0 20.766-9.2969 20.766-20.77v-169.55c0-11.469-9.2969-20.77-20.766-20.77s-20.77 9.2969-20.77 20.77z"/>
 <path d="m803.77 822.34v169.55c0 11.469 9.2969 20.77 20.766 20.77s20.77-9.2969 20.77-20.77v-169.55c0-11.469-9.2969-20.77-20.77-20.77-11.469 0-20.766 9.2969-20.766 20.77z"/>
 <path d="m534.32 684.78c0 11.469 9.2969 20.766 20.77 20.766 11.469 0 20.766-9.2969 20.766-20.766v-169.55c0-11.469-9.2969-20.766-20.766-20.766s-20.77 9.2969-20.77 20.766z"/>
 <path d="m555.09 398.42c11.469 0 20.766-9.2969 20.766-20.77v-169.55c0-11.469-9.2969-20.766-20.766-20.766s-20.77 9.2969-20.77 20.766v169.55c0 11.469 9.2969 20.77 20.77 20.77z"/>
 <path d="m689.81 398.42c36.27 0 65.676-29.402 65.676-65.676v-79.742c0-36.27-29.402-65.676-65.676-65.676-36.27 0-65.676 29.402-65.676 65.676v79.742c0 36.27 29.402 65.676 65.676 65.676zm-24.141-145.42c0-13.332 10.809-24.141 24.141-24.141s24.141 10.809 24.141 24.141v79.742c0 13.332-10.809 24.141-24.141 24.141s-24.141-10.809-24.141-24.141z"/>
 <path d="m624.14 946.99c0 36.27 29.402 65.676 65.676 65.676 36.27 0 65.676-29.402 65.676-65.676v-79.742c0-36.27-29.402-65.676-65.676-65.676-36.27 0-65.676 29.402-65.676 65.676zm41.535-79.742c0-13.332 10.809-24.141 24.141-24.141 13.332 0 24.141 10.809 24.141 24.141v79.742c0 13.332-10.809 24.141-24.141 24.141-13.332 0-24.141-10.809-24.141-24.141z"/>
 <path d="m510.19 1012.7c36.27 0 65.676-29.402 65.676-65.676v-79.742c0-36.27-29.402-65.676-65.676-65.676-36.27 0-65.676 29.402-65.676 65.676v79.742c0 36.27 29.402 65.676 65.676 65.676zm-24.141-145.42c0-13.332 10.809-24.141 24.141-24.141s24.141 10.809 24.141 24.141v79.742c0 13.332-10.809 24.141-24.141 24.141s-24.141-10.809-24.141-24.141z"/>
 <path d="m420.37 705.55c36.27 0 65.676-29.402 65.676-65.676v-79.742c0-36.27-29.402-65.676-65.676-65.676-36.27 0-65.676 29.402-65.676 65.676v79.742c0 36.27 29.402 65.676 65.676 65.676zm-24.141-65.676v-79.742c0-13.332 10.809-24.141 24.141-24.141 13.332 0 24.141 10.809 24.141 24.141v79.742c0 13.332-10.809 24.141-24.141 24.141-13.332 0-24.141-10.809-24.141-24.141z"/>
 <path d="m845.3 560.13c0-36.27-29.402-65.676-65.676-65.676-36.27 0-65.676 29.402-65.676 65.676v79.742c0 36.27 29.402 65.676 65.676 65.676 36.27 0 65.676-29.402 65.676-65.676zm-41.535 79.742c0 13.332-10.809 24.141-24.141 24.141s-24.141-10.809-24.141-24.141v-79.742c0-13.332 10.809-24.141 24.141-24.141s24.141 10.809 24.141 24.141z"/>
</svg>
