<?xml version="1.0" encoding="UTF-8"?>
<svg width="1200pt" height="1200pt" version="1.1" viewBox="0 0 1200 1200" xmlns="http://www.w3.org/2000/svg">
 <path d="m1089.8 1069.3h-803.72c-1.8281 0-3.6562-0.75-4.9688-2.0625-1.3125-1.3164-2.0625-3.1172-2.0625-4.9688l0.023438-16.594c0-3.8906 3.1406-7.0312 7.0078-7.0312 3.8906 0 7.0312 3.1406 7.0312 7.0312v9.5625h789.66v-593.7c0-3.8672 3.1641-7.0078 7.0312-7.0078 3.8633 0 7.0039 3.1172 7.0312 6.9844v0.023437 0.25781 600.47c0 1.875-0.73047 3.6562-2.0664 4.9688-1.332 1.332-3.0898 2.0625-4.9648 2.0625zm-803.72-63.492c-3.8672 0-7.0312-3.1445-7.0312-7.0078 0-3.8906 3.1641-7.0312 7.0312-7.0312 3.8906 0 7.0312 3.1406 7.0312 7.0312 0 3.8633-3.1406 7.0078-7.0312 7.0078zm0-46.852c-3.8672 0-7.0312-3.168-7.0312-7.0312v-818.93c0-1.875 0.75-3.6797 2.0625-4.9922 1.3125-1.2891 3.1172-2.0391 4.9688-2.0391h1.3828c3.8906 0 7.0312 3.1406 7.0312 7.0312 0 1.5-0.46875 2.9531-1.3828 4.1719v814.76c0 3.8633-3.1406 7.0312-7.0312 7.0312zm803.72-537.19c-3.8672 0-7.0312-3.1406-7.0312-7.0312 0-3.8672 3.1641-7.0312 7.0312-7.0312 3.8633 0 7.0039 3.1406 7.0312 7.0078v0.023438c0 3.8906-3.1445 7.0312-7.0312 7.0312zm0-46.805c-3.8672 0-7.0312-3.1641-7.0312-7.0312v-21.68l-206.25-206.23h-495.3c-3.8672 0-7.0312-3.1641-7.0312-7.0312 0-3.8906 3.1641-7.0312 7.0312-7.0312h498.21c1.8516 0 3.6797 0.75 4.9688 2.0625l210.38 210.35c1.3359 1.3125 2.0664 3.0938 2.0664 4.9688v24.586c-0.003907 3.8672-3.1484 7.0312-7.0352 7.0312zm-755.46-234.94c-3.8672 0-7.0312-3.1641-7.0312-7.0312 0-3.8906 3.1641-7.0312 7.0312-7.0312 3.8906 0 7.0312 3.1406 7.0312 7.0312 0 3.8672-3.1406 7.0312-7.0312 7.0312z"/>
 <path d="m1089.8 350.41h-210.38c-1.8242 0-3.6562-0.75-4.9688-2.0625-1.2891-1.3125-2.0625-3.1172-2.0625-4.9688v-210.35c0-2.8594 1.7109-5.4141 4.3594-6.5156 2.5781-1.0781 5.6719-0.44531 7.6641 1.5234l210.35 210.38c2.0156 2.0156 2.625 5.0156 1.5234 7.6641-1.0742 2.625-3.6289 4.3359-6.4883 4.3359zm-203.35-14.062h186.38l-186.38-186.35z"/>
 <path d="m286.12 1012.8h-54.07c-1.8516 0-3.6562-0.75-4.9688-2.0625-1.3125-1.293-2.0625-3.1172-2.0625-4.9688v-766.24c0-3.8906 3.1641-7.0312 7.0312-7.0312 3.8672 0 7.0312 3.1406 7.0312 7.0312v759.21h40.008v-334.57c0-3.8672 3.1406-7.0312 7.0312-7.0312 3.8672 0 7.0078 3.1641 7.0078 7.0312v341.6c0 1.875-0.72656 3.6562-2.0391 4.9688-1.3359 1.3359-3.0938 2.0625-4.9688 2.0625zm0-388.48c-3.8906 0-7.0312-3.1406-7.0312-7.0312 0-3.8672 3.1406-7.0312 7.0312-7.0312 3.8672 0 7.0078 3.1641 7.0078 7.0312 0 3.8906-3.1406 7.0312-7.0078 7.0312zm0-46.875c-3.8906 0-7.0312-3.1406-7.0312-7.0312v-437.39c0-1.8516 0.75-3.6562 2.0391-4.9688 1.3125-1.2891 3.1172-2.0391 4.9922-2.0391h382.9c3.8867 0 7.0312 3.1406 7.0312 7.0078 0 3.8906-3.1445 7.0547-7.0312 7.0547h-375.89l0.023438 430.34c0 3.8906-3.1641 7.0312-7.0312 7.0312zm-54.07-377.77c-3.8672 0-7.0312-3.1641-7.0312-7.0312 0-3.8906 3.1641-7.0312 7.0312-7.0312 3.8672 0 7.0312 3.1406 7.0312 7.0312 0 3.8672-3.1641 7.0312-7.0312 7.0312zm0-46.875c-3.8672 0-7.0312-3.1641-7.0312-7.0312v-51.188c0-1.8516 0.75-3.6562 2.0625-4.9688s3.1172-2.0625 4.9688-2.0625h629.55c3.7031 0 6.793 2.9062 7.0039 6.6094l2.25 38.461c0.12109 1.9219-0.58594 3.8203-1.8984 5.2266s-3.1875 2.2266-5.1094 2.2266h-101.09c-3.8672 0-7.0312-3.1641-7.0312-7.0547 0-3.8672 3.1641-7.0078 7.0312-7.0078h93.629l-1.4258-24.398h-615.89v44.109 0.046874c0 3.8672-3.1406 7.0312-7.0312 7.0312zm483.87-12.727c-3.8906 0-7.0312-3.1641-7.0312-7.0547 0-3.8672 3.1406-7.0078 7.0312-7.0078 3.8633 0 7.0078 3.1406 7.0078 7.0078 0 3.8906-3.1445 7.0547-7.0078 7.0547z"/>
 <path d="m892.66 1108.4h-768.26c-3.8672 0-7.0312-3.1406-7.0312-7.0312 0-3.8633 3.1641-7.0312 7.0312-7.0312h768.26c3.8633 0 7.0312 3.168 7.0312 7.0312 0 3.8906-3.1641 7.0312-7.0312 7.0312z"/>
 <path d="m1105.8 1146.1h-531.56c-3.8906 0-7.0312-3.168-7.0312-7.0312 0-3.8906 3.1406-7.0312 7.0312-7.0312h531.56c3.8906 0 7.0312 3.1406 7.0312 7.0312 0 3.8633-3.1406 7.0312-7.0312 7.0312z"/>
 <path d="m346.03 1145h-251.86c-3.8906 0-7.0312-3.1641-7.0312-7.0312 0-3.8906 3.1406-7.0312 7.0312-7.0312h251.86c3.8906 0 7.0312 3.1406 7.0312 7.0312 0 3.8672-3.1406 7.0312-7.0312 7.0312z"/>
 <path d="m232.05 979.17h-49.406c-1.8516 0-3.6562-0.75-4.9688-2.0664-1.3125-1.3125-2.0625-3.1172-2.0625-4.9648v-770.93c0-3.8672 3.1641-7.0312 7.0312-7.0312 3.8906 0 7.0312 3.1641 7.0312 7.0312v763.9h35.344v-370.29c0-3.8906 3.1641-7.0312 7.0312-7.0312 3.8672 0 7.0312 3.1406 7.0312 7.0312v377.32c0 1.875-0.72656 3.6328-2.0625 4.9648-1.3359 1.3398-3.0938 2.0664-4.9688 2.0664zm0-424.22c-3.8672 0-7.0312-3.1406-7.0312-7.0312 0-3.8672 3.1641-7.0078 7.0312-7.0078 3.8672 0 7.0312 3.1406 7.0312 7.0078 0 3.8906-3.1641 7.0312-7.0312 7.0312zm0-46.852c-3.8672 0-7.0312-3.1641-7.0312-7.0547v-406.48c0-1.8516 0.75-3.6562 2.0625-4.9688s3.1172-2.0625 4.9688-2.0625h413.81c3.8906 0 7.0312 3.1641 7.0312 7.0312 0 3.8672-3.1406 7.0312-7.0312 7.0312h-406.78v399.45c0 3.8906-3.1641 7.0547-7.0312 7.0547zm-49.406-346.73c-3.8672 0-7.0312-3.1406-7.0312-7.0312 0-3.8672 3.1641-7.0312 7.0312-7.0312 3.8906 0 7.0312 3.1641 7.0312 7.0312 0 3.8906-3.1406 7.0312-7.0312 7.0312zm0-46.875c-3.8672 0-7.0312-3.1406-7.0312-7.0312v-46.523c0-1.8516 0.75-3.6562 2.0625-4.9688s3.1172-2.0625 4.9688-2.0625h647.58c3.7266 0 6.8203 2.9297 7.0312 6.6328l1.9219 33.633c0.11719 1.9219-0.58594 3.8203-1.8984 5.2266-1.3359 1.4062-3.1875 2.2031-5.1133 2.2031h-92.555c-3.8633 0-7.0312-3.1641-7.0312-7.0312 0-3.8672 3.168-7.0312 7.0312-7.0312h85.105l-1.125-19.57h-633.91v39.492c0 3.8906-3.1406 7.0312-7.0312 7.0312zm510.09-12.891c-3.8633 0-7.0312-3.1641-7.0312-7.0312 0-3.8672 3.168-7.0312 7.0312-7.0312 3.8906 0 7.0312 3.1641 7.0312 7.0312 0 3.8672-3.1406 7.0312-7.0312 7.0312z"/>
 <path d="m416.91 328.12c-9.9609 0-19.523-5.3203-26.25-14.602-6.375-8.7656-9.8906-20.273-9.8906-32.391 0-12.164 3.5156-23.695 9.8906-32.484 6.7266-9.2812 16.289-14.625 26.25-14.625 10.008 0 19.594 5.3438 26.32 14.625 6.375 8.7656 9.8906 20.32 9.9141 32.484-0.023437 12.117-3.5391 23.625-9.9141 32.391-6.75 9.2812-16.336 14.602-26.32 14.602zm0-80.039c-5.3906 0-10.688 3.1406-14.883 8.8594-4.5938 6.2812-7.2188 15.094-7.1953 24.188-0.023437 9.0469 2.6016 17.836 7.1953 24.094 4.1953 5.6953 9.4688 8.8359 14.859 8.8359h0.046876c5.5078 0 10.664-3.0469 14.93-8.8359 4.5938-6.2578 7.2422-15.047 7.2188-24.094 0.023437-9.1172-2.625-17.93-7.2188-24.188-4.2656-5.7891-9.4453-8.8594-14.93-8.8594h-0.023438z"/>
 <path d="m340.17 328.45c-3.8906 0-7.0312-3.1641-7.0312-7.0312v-80.672c0-3.8906 3.1406-7.0547 7.0312-7.0547 3.8672 0 7.0312 3.1641 7.0312 7.0547v80.672c0 3.8672-3.1641 7.0312-7.0312 7.0312z"/>
 <path d="m559.38 328.12c-10.008 0-19.57-5.3203-26.297-14.602-6.3516-8.7656-9.8438-20.273-9.8672-32.391 0.023438-12.164 3.5156-23.695 9.8672-32.461 6.7031-9.3047 16.289-14.648 26.297-14.648 9.9844 0 19.57 5.3438 26.273 14.648 6.3516 8.7656 9.8672 20.297 9.8672 32.461 0 12.117-3.5156 23.625-9.8672 32.391-6.7266 9.2812-16.289 14.602-26.273 14.602zm0-80.039c-5.5078 0-10.664 3.0703-14.906 8.8359-4.5938 6.2812-7.2188 15.094-7.1953 24.211-0.023438 9.0469 2.6016 17.836 7.1953 24.117 4.2422 5.7656 9.3984 8.8125 14.883 8.8125 5.5312 0 10.664-3.0469 14.93-8.8359 4.5703-6.2578 7.1953-15.047 7.1719-24.094 0.023437-9.1172-2.6016-17.93-7.1953-24.211-4.2422-5.7656-9.375-8.8359-14.883-8.8359z"/>
 <path d="m482.55 328.45c-3.8906 0-7.0312-3.1641-7.0312-7.0312v-80.672c0-3.8906 3.1406-7.0547 7.0312-7.0547 3.8672 0 7.0312 3.1641 7.0312 7.0547v80.672c0 3.8672-3.1641 7.0312-7.0312 7.0312z"/>
 <path d="m701.77 328.12c-10.012 0-19.574-5.3203-26.273-14.602-6.3516-8.7656-9.8672-20.273-9.8906-32.391 0.023438-12.188 3.5156-23.695 9.8672-32.461 6.7227-9.3047 16.285-14.648 26.297-14.648 10.031 0 19.617 5.3438 26.344 14.625 6.3516 8.7656 9.8672 20.297 9.8672 32.484 0 12.117-3.5156 23.625-9.8672 32.391-6.7266 9.2812-16.312 14.602-26.344 14.602zm0-80.039c-5.5117 0-10.664 3.0703-14.906 8.8359-4.5938 6.2812-7.1914 15.094-7.1914 24.211 0 9.0703 2.5977 17.859 7.1914 24.094 4.2461 5.7891 9.3984 8.8359 14.906 8.8359 5.5312 0 10.711-3.0469 14.977-8.8359 4.5703-6.2344 7.1953-15.023 7.1758-24.094 0.023437-9.1172-2.6016-17.93-7.1758-24.211-4.2656-5.7656-9.4453-8.8359-14.977-8.8359z"/>
 <path d="m625.01 328.45c-3.8672 0-7.0312-3.1641-7.0312-7.0312v-80.695c0-3.8672 3.1641-7.0078 7.0312-7.0078 3.8906 0 7.0312 3.1406 7.0312 7.0078v80.695c0 3.8672-3.1406 7.0312-7.0312 7.0312z"/>
 <path d="m767.41 328.45c-3.8906 0-7.0312-3.1641-7.0312-7.0312v-80.672c0-3.8906 3.1406-7.0312 7.0312-7.0312 3.8672 0 7.0312 3.1406 7.0312 7.0312v80.672c0 3.8672-3.1641 7.0312-7.0312 7.0312z"/>
 <path d="m416.91 488.3c-9.9609 0-19.523-5.3203-26.25-14.602-6.375-8.7891-9.8906-20.297-9.8906-32.414 0-12.141 3.5156-23.672 9.8906-32.461 6.7266-9.2812 16.289-14.625 26.25-14.625 10.008 0 19.594 5.3203 26.32 14.625 6.375 8.7656 9.8906 20.297 9.9141 32.461-0.023437 12.141-3.5391 23.648-9.9141 32.414-6.7266 9.2812-16.336 14.602-26.32 14.602zm0-80.039c-5.3906 0-10.688 3.1406-14.883 8.8359-4.5938 6.2812-7.2188 15.117-7.1953 24.188-0.023437 9.0703 2.6016 17.836 7.1953 24.117 4.1953 5.6953 9.4688 8.8359 14.859 8.8359h0.046876c5.5078 0 10.664-3.0703 14.93-8.8359 4.5938-6.2578 7.2422-15.047 7.2188-24.117 0.023437-9.0938-2.625-17.906-7.2188-24.188-4.2656-5.7891-9.4219-8.8359-14.93-8.8359h-0.023438z"/>
 <path d="m340.17 488.62c-3.8906 0-7.0312-3.1641-7.0312-7.0312v-80.695c0-3.8672 3.1406-7.0312 7.0312-7.0312 3.8672 0 7.0312 3.1641 7.0312 7.0312v80.695c0 3.8672-3.1641 7.0312-7.0312 7.0312z"/>
 <path d="m559.38 488.3c-10.008 0-19.57-5.3203-26.297-14.625-6.3516-8.7656-9.8438-20.25-9.8672-32.391 0.023438-12.164 3.5156-23.672 9.8672-32.461 6.7031-9.3047 16.289-14.625 26.297-14.625 9.9844 0 19.57 5.3203 26.273 14.625 6.3516 8.7891 9.8672 20.297 9.8672 32.461 0 12.141-3.5156 23.625-9.8672 32.391-6.7266 9.3047-16.289 14.625-26.273 14.625zm0-80.039c-5.5078 0-10.664 3.0469-14.906 8.8359-4.5938 6.2578-7.2188 15.094-7.1953 24.188-0.023438 9.0703 2.6016 17.859 7.1953 24.117 4.2422 5.7891 9.3984 8.8359 14.883 8.8359 5.5312 0 10.664-3.0469 14.93-8.8359 4.5703-6.2578 7.1953-15.047 7.1719-24.117 0.023437-9.0938-2.6016-17.93-7.1953-24.188-4.2422-5.7891-9.3984-8.8359-14.883-8.8359z"/>
 <path d="m482.55 488.62c-3.8906 0-7.0312-3.1641-7.0312-7.0312v-80.695c0-3.8672 3.1406-7.0312 7.0312-7.0312 3.8672 0 7.0312 3.1641 7.0312 7.0312v80.695c0 3.8672-3.1641 7.0312-7.0312 7.0312z"/>
 <path d="m701.77 488.3c-10.012 0-19.574-5.3438-26.273-14.625-6.3516-8.7656-9.8672-20.25-9.8906-32.391 0.023438-12.164 3.5156-23.695 9.8672-32.461 6.6992-9.3047 16.285-14.625 26.297-14.625 10.031 0 19.641 5.3203 26.344 14.625 6.3516 8.7656 9.8672 20.297 9.8672 32.461 0 12.141-3.5156 23.648-9.8672 32.391-6.7266 9.3047-16.34 14.625-26.344 14.625zm0-80.039c-5.5117 0-10.664 3.0469-14.906 8.8359-4.5938 6.2578-7.1914 15.07-7.1914 24.188 0 9.0703 2.5977 17.859 7.1914 24.117 4.2461 5.7891 9.3984 8.8359 14.906 8.8359 5.5312 0 10.711-3.0469 14.977-8.8359 4.5703-6.2344 7.1953-15.023 7.1758-24.117 0.023437-9.0938-2.6016-17.93-7.1758-24.188-4.2656-5.7891-9.4453-8.8359-14.977-8.8359z"/>
 <path d="m625.01 488.62c-3.8672 0-7.0312-3.1641-7.0312-7.0312v-80.695c0-3.8672 3.1641-7.0312 7.0312-7.0312 3.8906 0 7.0312 3.1641 7.0312 7.0312v80.695c0 3.8672-3.1406 7.0312-7.0312 7.0312z"/>
 <path d="m844.24 488.3c-10.012 0-19.594-5.3438-26.297-14.625-6.3516-8.7422-9.8438-20.25-9.8672-32.391 0.023437-12.164 3.5156-23.695 9.8672-32.461 6.6992-9.3047 16.285-14.625 26.297-14.625 9.9844 0 19.57 5.3438 26.273 14.625 6.3516 8.7656 9.8438 20.297 9.8672 32.461-0.023437 12.141-3.5156 23.625-9.8906 32.391-6.7031 9.2812-16.266 14.625-26.25 14.625zm0-80.039c-5.5117 0-10.664 3.0469-14.93 8.8359-4.5703 6.2578-7.1953 15.094-7.1719 24.188-0.027344 9.0703 2.5977 17.859 7.1719 24.117 4.2656 5.7891 9.4219 8.8359 14.93 8.8359 5.4844 0 10.641-3.0469 14.902-8.8359 4.5703-6.2578 7.1758-15.047 7.1758-24.117 0-9.0938-2.6016-17.93-7.1953-24.188-4.2422-5.7891-9.375-8.8359-14.883-8.8359z"/>
 <path d="m767.41 488.62c-3.8906 0-7.0312-3.1641-7.0312-7.0312v-80.695c0-3.8672 3.1406-7.0312 7.0312-7.0312 3.8672 0 7.0312 3.1641 7.0312 7.0312v80.695c0 3.8672-3.1641 7.0312-7.0312 7.0312z"/>
 <path d="m986.7 488.3c-9.9883 0-19.594-5.3203-26.32-14.602-6.375-8.7656-9.8906-20.273-9.9102-32.414 0.023437-12.164 3.5391-23.695 9.9102-32.461 6.7266-9.3047 16.336-14.625 26.32-14.625 9.9844 0 19.57 5.3203 26.273 14.625 6.3516 8.7656 9.8672 20.297 9.8672 32.461 0 12.141-3.5156 23.648-9.8672 32.391-6.7031 9.3047-16.289 14.625-26.273 14.625zm0-80.039c-5.5312 0-10.691 3.0469-14.957 8.8359-4.5938 6.2812-7.2422 15.094-7.2148 24.188-0.027344 9.0703 2.6211 17.836 7.2148 24.117 4.1953 5.6953 9.5195 8.8359 14.93 8.8359 5.5312 0 10.691-3.0469 14.93-8.8359 4.5703-6.2578 7.1953-15.047 7.1758-24.117 0.023437-9.0938-2.6016-17.93-7.1758-24.188-4.2383-5.7891-9.3945-8.8359-14.902-8.8359z"/>
 <path d="m909.87 488.62c-3.8672 0-7.0312-3.1641-7.0312-7.0312v-80.695c0-3.8672 3.1641-7.0312 7.0312-7.0312 3.8633 0 7.0312 3.1641 7.0312 7.0312v80.695c0 3.8672-3.168 7.0312-7.0312 7.0312z"/>
 <path d="m416.91 648.47c-9.9609-0.023438-19.523-5.3438-26.25-14.625-6.375-8.7617-9.8906-20.27-9.8906-32.391 0-12.164 3.5156-23.695 9.8906-32.461 6.7266-9.3047 16.289-14.625 26.25-14.625 10.008 0 19.594 5.3203 26.32 14.602 6.375 8.7891 9.9141 20.32 9.9141 32.484 0 12.117-3.5391 23.629-9.9141 32.391-6.75 9.2773-16.336 14.602-26.32 14.625zm0-80.062c-5.3906 0-10.688 3.1406-14.883 8.8594-4.5938 6.2812-7.2188 15.094-7.1953 24.188-0.023437 9.0469 2.6016 17.836 7.1953 24.121 4.1953 5.6953 9.4922 8.8359 14.883 8.8359 5.5312 0 10.688-3.0703 14.953-8.8594 4.5938-6.2578 7.2422-15.047 7.2188-24.094 0.023437-9.0938-2.625-17.906-7.2188-24.188-4.2656-5.793-9.4453-8.8633-14.953-8.8633z"/>
 <path d="m340.17 648.77c-3.8906 0-7.0312-3.1406-7.0312-7.0312v-80.672c0-3.8906 3.1406-7.0312 7.0312-7.0312 3.8672 0 7.0312 3.1406 7.0312 7.0312v80.672c0 3.8906-3.1641 7.0312-7.0312 7.0312z"/>
 <path d="m559.38 648.47c-10.008-0.023438-19.57-5.3438-26.297-14.625-6.3516-8.7617-9.8438-20.27-9.8672-32.391 0.023438-12.164 3.5156-23.695 9.8672-32.461 6.7266-9.3047 16.289-14.625 26.297-14.625 9.9844 0 19.57 5.3203 26.273 14.625 6.3516 8.7656 9.8438 20.297 9.8672 32.461-0.023438 12.117-3.5156 23.629-9.8672 32.391-6.7031 9.2773-16.289 14.602-26.273 14.625zm0-80.062c-5.5078 0-10.664 3.0703-14.906 8.8359-4.5938 6.2812-7.1953 15.094-7.1953 24.211 0 9.0469 2.6016 17.863 7.1719 24.121 4.2656 5.7656 9.4219 8.8359 14.906 8.8359 5.5312 0 10.664-3.0703 14.93-8.8359 4.5703-6.2578 7.1953-15.074 7.1719-24.121 0.023437-9.1172-2.6016-17.93-7.1719-24.211-4.2656-5.7656-9.4219-8.8359-14.906-8.8359z"/>
 <path d="m482.55 648.77c-3.8906 0-7.0312-3.1406-7.0312-7.0312v-80.672c0-3.8906 3.1406-7.0312 7.0312-7.0312 3.8672 0 7.0312 3.1406 7.0312 7.0312v80.672c0 3.8906-3.1641 7.0312-7.0312 7.0312z"/>
 <path d="m701.77 648.47c-10.012-0.023438-19.574-5.3438-26.273-14.625-6.3516-8.7617-9.8672-20.27-9.8906-32.391 0.023438-12.164 3.5156-23.695 9.8672-32.461 6.6992-9.3047 16.285-14.648 26.297-14.648 10.031 0 19.617 5.3438 26.344 14.648 6.3516 8.7656 9.8672 20.273 9.8672 32.461 0 12.141-3.5156 23.648-9.8672 32.391-6.7266 9.2773-16.34 14.625-26.344 14.625zm0-80.062c-5.5117 0-10.664 3.0703-14.906 8.8594-4.5938 6.2578-7.1914 15.07-7.1914 24.188 0 9.0742 2.5977 17.863 7.1914 24.121 4.2461 5.7656 9.3984 8.8359 14.906 8.8359 5.5312 0 10.711-3.0703 14.977-8.8359 4.5703-6.2578 7.1953-15.047 7.1758-24.121 0.023437-9.1172-2.6016-17.93-7.1758-24.188-4.2656-5.7891-9.4453-8.8594-14.977-8.8594z"/>
 <path d="m625.01 648.77c-3.8672 0-7.0312-3.1406-7.0312-7.0312v-80.672c0-3.8906 3.1641-7.0312 7.0312-7.0312 3.8906 0 7.0312 3.1406 7.0312 7.0312v80.672c0 3.8906-3.1406 7.0312-7.0312 7.0312z"/>
 <path d="m844.24 648.47c-10.012-0.023438-19.594-5.3438-26.297-14.625-6.3516-8.7617-9.8438-20.27-9.8672-32.391 0.023437-12.164 3.5156-23.695 9.8672-32.461 6.6992-9.3047 16.285-14.648 26.297-14.648 9.9844 0 19.57 5.3438 26.273 14.648 6.3516 8.7656 9.8438 20.297 9.8672 32.461-0.023437 12.117-3.5156 23.629-9.8906 32.391-6.6797 9.2773-16.266 14.602-26.25 14.625zm0-80.062c-5.5312 0-10.664 3.0703-14.93 8.8594-4.5703 6.2578-7.1953 15.07-7.1719 24.188-0.027344 9.0742 2.5977 17.836 7.1719 24.121 4.2656 5.7656 9.3984 8.8359 14.906 8.8359s10.664-3.0703 14.926-8.8359c4.5703-6.2852 7.1758-15.074 7.1758-24.121 0-9.1172-2.6016-17.93-7.1953-24.188-4.2422-5.7891-9.375-8.8594-14.883-8.8594z"/>
 <path d="m767.41 648.77c-3.8906 0-7.0312-3.1406-7.0312-7.0312v-80.672c0-3.8906 3.1406-7.0312 7.0312-7.0312 3.8672 0 7.0312 3.1406 7.0312 7.0312v80.672c0 3.8906-3.1641 7.0312-7.0312 7.0312z"/>
 <path d="m986.7 648.47c-9.9883-0.023438-19.594-5.3438-26.32-14.625-6.375-8.7617-9.8906-20.27-9.9102-32.391 0.023437-12.164 3.5391-23.695 9.9102-32.484 6.7266-9.2812 16.312-14.602 26.32-14.625 9.9844 0.023438 19.57 5.3438 26.273 14.648 6.3516 8.7656 9.8672 20.297 9.8672 32.461 0 12.117-3.5156 23.629-9.8672 32.391-6.7031 9.2773-16.289 14.602-26.273 14.625zm0-80.062c-5.5117 0-10.691 3.0703-14.957 8.8594-4.5938 6.2812-7.2422 15.094-7.2148 24.188-0.027344 9.0469 2.6211 17.836 7.2148 24.094 4.2656 5.793 9.4453 8.8594 14.957 8.8594 5.5078 0 10.664-3.0703 14.902-8.8359 4.5703-6.2852 7.1953-15.074 7.1758-24.121 0.023437-9.1172-2.6016-17.93-7.1758-24.211-4.2383-5.7617-9.3945-8.832-14.902-8.832z"/>
 <path d="m909.87 648.77c-3.8672 0-7.0312-3.1406-7.0312-7.0312v-80.672c0-3.8906 3.1641-7.0312 7.0312-7.0312 3.8633 0 7.0312 3.1406 7.0312 7.0312v80.672c0 3.8906-3.168 7.0312-7.0312 7.0312z"/>
 <path d="m416.91 808.62c-9.9609 0-19.523-5.3203-26.25-14.625-6.375-8.7891-9.8906-20.32-9.8906-32.461 0-12.117 3.5156-23.625 9.8906-32.391 6.7266-9.2812 16.289-14.625 26.25-14.625 9.9844 0 19.57 5.3242 26.32 14.602 6.375 8.7891 9.9141 20.297 9.9141 32.414 0 12.16-3.5391 23.695-9.9141 32.461-6.7266 9.3047-16.312 14.625-26.32 14.625zm0-80.043c-5.3906 0-10.688 3.1445-14.883 8.8398-4.5938 6.2578-7.2188 15.07-7.1953 24.117-0.023437 9.0938 2.6016 17.906 7.1953 24.188 4.1953 5.6953 9.4922 8.8359 14.883 8.8359 5.5078 0 10.688-3.0469 14.953-8.8359 4.5938-6.2852 7.2422-15.094 7.2188-24.188 0.023437-9.0469-2.625-17.836-7.2188-24.117-4.1953-5.6953-9.5156-8.8398-14.93-8.8398z"/>
 <path d="m340.17 808.94c-3.8906 0-7.0312-3.1641-7.0312-7.0312v-80.695c0-3.8672 3.1406-7.0312 7.0312-7.0312 3.8672 0 7.0312 3.1641 7.0312 7.0312v80.695c0 3.8711-3.1641 7.0312-7.0312 7.0312z"/>
 <path d="m559.38 808.62c-10.008 0-19.594-5.3438-26.297-14.625-6.3516-8.7617-9.8438-20.297-9.8672-32.461 0.023438-12.117 3.5156-23.625 9.8906-32.391 6.7031-9.2812 16.266-14.625 26.273-14.625 9.9844 0 19.57 5.3438 26.273 14.625 6.3516 8.7422 9.8438 20.254 9.8672 32.391-0.023438 12.16-3.5156 23.695-9.8672 32.461-6.7031 9.2773-16.289 14.625-26.273 14.625zm0-80.043c-5.5078 0-10.664 3.0508-14.93 8.8398-4.5703 6.2578-7.1719 15.047-7.1719 24.117 0 9.1172 2.6016 17.926 7.1953 24.188 4.2422 5.7891 9.3984 8.8359 14.906 8.8359 5.4844 0 10.641-3.0469 14.883-8.8359 4.5938-6.2617 7.2188-15.074 7.1953-24.188 0.023437-9.0703-2.6016-17.859-7.1719-24.117-4.2656-5.7891-9.3984-8.8398-14.906-8.8398z"/>
 <path d="m482.55 808.94c-3.8672 0-7.0312-3.1641-7.0312-7.0312v-80.695c0-3.8672 3.1641-7.0312 7.0312-7.0312 3.8672 0 7.0312 3.1641 7.0312 7.0312v80.695c0 3.8711-3.1641 7.0312-7.0312 7.0312z"/>
 <path d="m701.77 808.62c-10.012 0-19.594-5.3203-26.297-14.625-6.3281-8.7617-9.8438-20.297-9.8672-32.461 0.023438-12.141 3.5391-23.625 9.8906-32.391 6.6992-9.2812 16.262-14.625 26.273-14.625 10.008 0 19.617 5.3242 26.344 14.625 6.3516 8.7422 9.8672 20.254 9.8672 32.391 0 12.16-3.5156 23.695-9.8672 32.461-6.7031 9.3047-16.312 14.625-26.344 14.625zm0-80.043c-5.5117 0-10.664 3.0508-14.906 8.8398-4.5938 6.2578-7.1914 15.047-7.1914 24.117 0 9.1172 2.5977 17.926 7.1914 24.188 4.2461 5.7891 9.3984 8.8359 14.906 8.8359 5.5312 0 10.711-3.0469 14.977-8.8359 4.5703-6.2617 7.1953-15.074 7.1758-24.188 0.023437-9.0703-2.6016-17.859-7.1758-24.117-4.2656-5.7891-9.4453-8.8398-14.977-8.8398z"/>
 <path d="m625.01 808.94c-3.8672 0-7.0312-3.1641-7.0312-7.0312v-80.695c0-3.8672 3.1641-7.0312 7.0312-7.0312 3.8906 0 7.0312 3.1641 7.0312 7.0312v80.695c0 3.8711-3.1406 7.0312-7.0312 7.0312z"/>
 <path d="m844.24 808.62c-10.012 0-19.594-5.3203-26.297-14.625-6.3516-8.7617-9.8438-20.297-9.8672-32.461 0.023437-12.141 3.5156-23.648 9.8672-32.391 6.6992-9.3047 16.285-14.625 26.297-14.625 9.9844 0 19.547 5.3242 26.273 14.625 6.3516 8.7656 9.8438 20.254 9.8672 32.391-0.023437 12.16-3.5156 23.695-9.8672 32.461-6.7266 9.3047-16.289 14.625-26.273 14.625zm0-80.043c-5.5117 0-10.664 3.0508-14.93 8.8398-4.5703 6.2578-7.1953 15.047-7.1719 24.117-0.027344 9.1172 2.5977 17.926 7.1719 24.188 4.2656 5.7891 9.4219 8.8359 14.93 8.8359 5.4844 0 10.641-3.0469 14.883-8.8359 4.5938-6.2617 7.1953-15.094 7.1953-24.188 0-9.0703-2.6016-17.859-7.1758-24.117-4.2617-5.7891-9.418-8.8398-14.902-8.8398z"/>
 <path d="m767.41 808.94c-3.8906 0-7.0312-3.1641-7.0312-7.0312v-80.695c0-3.8672 3.1406-7.0312 7.0312-7.0312 3.8672 0 7.0078 3.1641 7.0078 7.0312v80.695c0 3.8711-3.1406 7.0312-7.0078 7.0312z"/>
 <path d="m986.7 808.62c-9.9883 0-19.594-5.3203-26.32-14.625-6.375-8.7617-9.8906-20.297-9.9102-32.461 0.023437-12.141 3.5391-23.648 9.9102-32.414 6.7266-9.2812 16.336-14.602 26.32-14.602 9.9844 0 19.57 5.3438 26.273 14.625 6.3516 8.7422 9.8672 20.254 9.8672 32.391 0 12.16-3.5156 23.695-9.8672 32.461-6.7031 9.3047-16.289 14.625-26.273 14.625zm0-80.043c-5.5117 0-10.691 3.0742-14.957 8.8398-4.5938 6.2812-7.2422 15.047-7.2148 24.117-0.027344 9.0938 2.6211 17.906 7.2148 24.188 4.2656 5.7891 9.4258 8.8359 14.93 8.8359h0.050781c5.4844 0 10.641-3.0469 14.883-8.8359 4.5703-6.2617 7.1953-15.074 7.1758-24.188 0.023437-9.0703-2.6016-17.859-7.1758-24.117-4.2422-5.7891-9.3984-8.8398-14.906-8.8398z"/>
 <path d="m909.87 808.94c-3.8672 0-7.0312-3.1641-7.0312-7.0312v-80.695c0-3.8672 3.1641-7.0312 7.0312-7.0312 3.8633 0 7.0312 3.1641 7.0312 7.0312v80.695c0 3.8711-3.168 7.0312-7.0312 7.0312z"/>
 <path d="m416.91 968.79c-9.9609 0-19.523-5.3438-26.25-14.625-6.375-8.7891-9.8906-20.32-9.8906-32.461 0-12.117 3.5156-23.625 9.9141-32.414 6.7031-9.2812 16.266-14.598 26.227-14.598 9.9844 0 19.57 5.3203 26.32 14.598 6.375 8.7656 9.9141 20.273 9.9141 32.414s-3.5391 23.672-9.9141 32.461c-6.7266 9.2773-16.336 14.625-26.32 14.625zm0-80.039c-5.3906 0-10.688 3.1406-14.883 8.8359-4.5938 6.2578-7.2188 15.047-7.1953 24.117-0.023437 9.0938 2.6016 17.906 7.1953 24.188 4.1953 5.6953 9.4688 8.8359 14.883 8.8359 5.5078 0 10.688-3.0703 14.953-8.8594 4.5938-6.2578 7.2422-15.07 7.2188-24.164 0.023437-9.0703-2.625-17.859-7.2188-24.117-4.2656-5.7891-9.4453-8.8359-14.953-8.8359z"/>
 <path d="m340.17 969.02c-3.8906 0-7.0312-3.1445-7.0312-7.0312v-80.602c0-3.8633 3.1406-7.0312 7.0312-7.0312 3.8672 0 7.0312 3.168 7.0312 7.0312v80.605c0 3.8828-3.1641 7.0273-7.0312 7.0273z"/>
 <path d="m559.38 968.79c-10.008 0-19.57-5.3438-26.297-14.648-6.3516-8.7656-9.8438-20.27-9.8672-32.438 0.023438-12.141 3.5156-23.648 9.8672-32.391 6.7266-9.3047 16.289-14.621 26.297-14.621 9.9844 0 19.547 5.3203 26.273 14.621 6.3516 8.7422 9.8438 20.254 9.8672 32.391-0.023438 12.164-3.5156 23.672-9.8672 32.438-6.7031 9.3008-16.289 14.648-26.273 14.648zm0-80.039c-5.5078 0-10.664 3.0469-14.93 8.8359-4.5703 6.2344-7.1719 15.047-7.1719 24.117 0 9.0938 2.6016 17.906 7.1953 24.188 4.2422 5.7656 9.3984 8.8359 14.906 8.8359 5.4844 0 10.641-3.0703 14.883-8.8359 4.5938-6.2852 7.2188-15.094 7.1953-24.188 0.023437-9.0703-2.6016-17.859-7.1719-24.117-4.2656-5.7891-9.4219-8.8359-14.906-8.8359z"/>
 <path d="m482.55 969.02c-3.8906 0-7.0312-3.1445-7.0312-7.0312v-80.602c0-3.8633 3.1406-7.0312 7.0312-7.0312 3.8672 0 7.0312 3.168 7.0312 7.0312v80.605c0 3.8828-3.1641 7.0273-7.0312 7.0273z"/>
 <path d="m701.77 968.79c-10.012 0-19.574-5.3438-26.297-14.648-6.3516-8.7656-9.8438-20.27-9.8672-32.438 0.023438-12.141 3.5156-23.648 9.8906-32.391 6.6992-9.3047 16.289-14.621 26.273-14.621 10.008 0 19.617 5.3203 26.344 14.598 6.3516 8.7656 9.8672 20.273 9.8672 32.414 0 12.164-3.5156 23.695-9.8672 32.461-6.7031 9.2773-16.312 14.625-26.344 14.625zm0-80.039c-5.5117 0-10.664 3.0469-14.906 8.8359-4.5938 6.2578-7.1914 15.047-7.1914 24.117 0 9.0938 2.5977 17.906 7.1914 24.188 4.2461 5.7656 9.3984 8.8359 14.906 8.8359 5.5312 0 10.711-3.0703 14.977-8.8359 4.5703-6.2852 7.1953-15.094 7.1953-24.188 0-9.0703-2.625-17.883-7.1953-24.117-4.2656-5.7891-9.4453-8.8359-14.977-8.8359z"/>
 <path d="m625.01 969.02c-3.8672 0-7.0312-3.1445-7.0312-7.0312v-80.602c0-3.8633 3.1641-7.0312 7.0312-7.0312 3.8906 0 7.0312 3.168 7.0312 7.0312v80.605c0 3.8828-3.1406 7.0273-7.0312 7.0273z"/>
 <path d="m844.24 968.79c-10.012 0-19.594-5.3438-26.297-14.648-6.3516-8.7656-9.8438-20.27-9.8672-32.438 0.023437-12.141 3.5156-23.648 9.8672-32.391 6.6992-9.3047 16.285-14.621 26.297-14.621 9.9844 0 19.547 5.3203 26.273 14.621 6.3516 8.7422 9.8438 20.254 9.8672 32.391-0.023437 12.164-3.5156 23.672-9.8672 32.438-6.7031 9.3008-16.289 14.648-26.273 14.648zm0-80.039c-5.5117 0-10.664 3.0469-14.93 8.8359-4.5703 6.2578-7.1953 15.047-7.1719 24.117-0.027344 9.0938 2.5977 17.906 7.1719 24.188 4.2656 5.7656 9.4219 8.8359 14.93 8.8359 5.4844 0 10.641-3.0703 14.883-8.8359 4.5938-6.2852 7.1953-15.094 7.1953-24.188 0-9.0703-2.6016-17.859-7.1953-24.117-4.2422-5.7891-9.3984-8.8359-14.883-8.8359z"/>
 <path d="m767.41 969.02c-3.8906 0-7.0312-3.1445-7.0312-7.0312v-80.602c0-3.8633 3.1406-7.0312 7.0312-7.0312 3.8672 0 7.0312 3.168 7.0312 7.0312v80.605c0 3.8828-3.1641 7.0273-7.0312 7.0273z"/>
 <path d="m986.7 968.79c-9.9883 0-19.594-5.3438-26.32-14.625-6.375-8.7617-9.8906-20.293-9.9102-32.461 0.023437-12.141 3.5391-23.648 9.9102-32.414 6.7266-9.2812 16.336-14.598 26.32-14.598 9.9844 0 19.57 5.3203 26.273 14.621 6.3516 8.7422 9.8672 20.254 9.8672 32.391s-3.5156 23.672-9.8672 32.438c-6.7031 9.3008-16.289 14.648-26.273 14.648zm0-80.039c-5.5117 0-10.691 3.0469-14.957 8.8359-4.5938 6.2578-7.2422 15.047-7.2148 24.117-0.027344 9.0938 2.6211 17.906 7.2148 24.164 4.2656 5.793 9.4453 8.8594 14.957 8.8594 5.5078 0 10.664-3.0703 14.902-8.8359 4.5703-6.2852 7.1953-15.094 7.1758-24.188 0.023437-9.0703-2.6016-17.859-7.1758-24.141-4.2383-5.7656-9.3945-8.8125-14.902-8.8125z"/>
 <path d="m909.87 969.02c-3.8672 0-7.0312-3.1445-7.0312-7.0312v-80.602c0-3.8633 3.1641-7.0312 7.0312-7.0312 3.8633 0 7.0312 3.168 7.0312 7.0312v80.605c0 3.8828-3.168 7.0273-7.0312 7.0273z"/>
</svg>
