<?xml version="1.0" encoding="UTF-8"?>
<svg width="1200pt" height="1200pt" version="1.1" viewBox="0 0 1200 1200" xmlns="http://www.w3.org/2000/svg">
 <path d="m490.92 111.98c-82.172-54.422-209.63 20.109-201.47 117.7-82.031 14.719-146.34 78.469-161.21 161.02l-8.3438 46.266c-61.453 87.328-59.484 206.16 4.9688 291.37-4.3125 101.16 58.125 194.06 152.72 227.29-24.562 125.48 133.13 202.31 222.24 115.73 31.688-30.609 49.828-73.406 49.828-117.47l0.046875-722.68c-0.14062-49.266-20.109-94.312-58.781-119.25zm22.547 841.92c0 34.312-14.156 67.594-38.719 91.359-46.312 47.625-140.34 28.078-158.76-37.219-16.547-51.609 12-99 84.891-140.81 20.484-12.047 2.5781-43.031-18.047-31.406-48.984 28.125-77.484 57.562-92.719 85.781-82.969-28.688-135-111.66-129-199.45 0.14062-5.2969-2.6719-10.078-6.0469-14.016-60.656-77.344-54.938-182.29-0.1875-260.76l9.0469-50.297c12.328-68.484 66.234-121.03 134.63-132.19 10.172 30.094 84.75 114.14 104.39 78.938 5.0156-8.625 2.0156-19.734-6.6094-24.703-4.125-2.3906-101.2-59.719-61.359-133.78 27.188-54.562 110.44-77.203 153.1-28.5 16.406 18.609 25.406 45 25.406 74.344z"/>
 <path d="m336.14 466.03c-7.2656-6.8438-18.703-6.5625-25.594 0.65625-2.2031 2.3438-54.141 57.797-52.312 129.1 1.0312 40.359 18.891 77.156 52.969 109.45 3.5156 3.3281 7.9688 4.9688 12.469 4.9688 15.703 0.51562 24.469-20.672 12.469-31.266-91.734-86.859-3.3281-182.95 0.70312-187.22 6.8906-7.2656 6.6094-18.703-0.65625-25.594z"/>
 <path d="m736.82 244.74c36.328 0 65.906-29.578 65.906-65.906v-15.797c-2.7656-87.094-129.1-87.094-131.86 0v15.797c0 36.375 29.578 65.906 65.906 65.906zm-29.719-81.703c0.70312-39 58.734-39 59.391 0v15.797c-0.70312 39.047-58.734 39.047-59.391 0z"/>
 <path d="m804.37 290.06c-36.328 0-65.906 29.578-65.906 65.906v15.797c2.7656 87.141 129.1 87.094 131.86 0v-15.797c0-36.375-29.578-65.906-65.906-65.906zm29.719 81.703c-0.70312 39.047-58.734 39.047-59.391 0v-15.797c0.70312-39.047 58.734-39.047 59.391 0z"/>
 <path d="m891.37 109.92c-0.375-23.766-35.812-23.812-36.234 0v120.42c0.375 23.766 35.812 23.812 36.234 0z"/>
 <path d="m674.11 433.31c9.9844 0 18.094-8.1094 18.094-18.094v-110.53c0-10.031-8.1094-18.094-18.094-18.094s-18.094 8.1094-18.094 18.094v110.53c0 10.031 8.1094 18.094 18.094 18.094z"/>
 <path d="m696.1 647.95c36.328 0 65.906-29.578 65.906-65.906v-15.797c-2.7656-87.141-129.1-87.094-131.86 0v15.797c0 36.328 29.578 65.906 65.906 65.906zm-29.719-81.703c0.70312-39.047 58.734-39.047 59.391 0v15.797c-0.70312 39-58.734 39-59.391 0z"/>
 <path d="m826.36 496.78c-9.9844 0-18.094 8.1094-18.094 18.094v110.53c0 10.031 8.1094 18.094 18.094 18.094s18.094-8.1094 18.094-18.094v-110.53c0-10.031-8.1094-18.094-18.094-18.094z"/>
 <path d="m778.55 710.76c-36.328 0-65.906 29.578-65.906 65.906v15.797c2.7656 87.141 129.1 87.094 131.81 0v-15.797c0-36.328-29.578-65.906-65.906-65.906zm29.719 81.703c-0.70312 39.047-58.688 39.047-59.391 0v-15.797c0.70312-39 58.688-39 59.391 0z"/>
 <path d="m648.28 853.97c9.9844 0 18.094-8.1094 18.094-18.094v-110.53c0-10.031-8.1094-18.094-18.094-18.094s-18.094 8.1094-18.094 18.094v110.53c0 10.031 8.1094 18.094 18.094 18.094z"/>
 <path d="m696.1 918.66c-36.328 0-65.906 29.578-65.906 65.906v15.797c2.7656 87.141 129.1 87.094 131.86 0v-15.797c0-36.328-29.578-65.906-65.906-65.906zm29.719 81.703c-0.70312 39.047-58.734 39.047-59.391 0v-15.797c0.70312-39 58.734-39 59.391 0z"/>
 <path d="m826.36 915.14c-9.9844 0-18.094 8.1094-18.094 18.094v110.53c0 10.031 8.1094 18.094 18.094 18.094s18.094-8.1094 18.094-18.094v-110.53c0-10.031-8.1094-18.094-18.094-18.094z"/>
 <path d="m1039.1 710.76c-36.328 0-65.906 29.578-65.906 65.906v15.797c2.7656 87.141 129.1 87.094 131.86 0v-15.797c0-36.328-29.578-65.906-65.906-65.906zm29.719 81.703c-0.70312 39.047-58.734 39.047-59.391 0v-15.797c0.70312-39 58.734-39 59.391 0z"/>
 <path d="m908.86 707.21c-9.9844 0-18.094 8.1094-18.094 18.094v110.53c0 10.031 8.1094 18.094 18.094 18.094s18.094-8.1094 18.094-18.094v-110.53c0-10.031-8.1094-18.094-18.094-18.094z"/>
 <path d="m1036.1 582v-15.797c0-36.375-29.578-65.906-65.906-65.906s-65.906 29.578-65.906 65.906v15.797c2.7656 87.094 129.1 87.094 131.81 0zm-36.234 0c-0.70312 39-58.688 39-59.391 0v-15.797c0.70312-39.047 58.688-39.047 59.391 0z"/>
 <path d="m1100.5 496.78c-9.9844 0-18.094 8.1094-18.094 18.094v110.53c0 10.031 8.1094 18.094 18.094 18.094s18.094-8.1094 18.094-18.094v-110.53c0-10.031-8.1094-18.094-18.094-18.094z"/>
 <path d="m1059.2 290.06c-36.328 0-65.906 29.578-65.906 65.906v15.797c2.7656 87.141 129.1 87.094 131.86 0v-15.797c0-36.375-29.578-65.906-65.906-65.906zm29.719 81.703c-0.70312 39.047-58.734 39.047-59.391 0v-15.797c0.70312-39.047 58.734-39.047 59.391 0z"/>
 <path d="m928.97 433.31c9.9844 0 18.094-8.1094 18.094-18.094v-110.53c0-10.031-8.1094-18.094-18.094-18.094s-18.094 8.1094-18.094 18.094v110.53c0 10.031 8.1094 18.094 18.094 18.094z"/>
</svg>
