<?xml version="1.0" encoding="UTF-8"?>
<svg width="1200pt" height="1200pt" version="1.1" viewBox="0 0 1200 1200" xmlns="http://www.w3.org/2000/svg">
 <path transform="scale(12)" d="m25.312 20.783 3.3932-0.016927 0.028971 5.6162 3.0579 3.0257 0.047852 9.36" fill="none" stroke="#000" stroke-miterlimit="10" stroke-width=".3053"/>
 <path transform="scale(12)" d="m22.515 23.021 1.9961 1.2757 2.571-0.65592 0.028972 5.557 2.5771 0.57194 0.023763 4.68" fill="none" stroke="#000" stroke-miterlimit="10" stroke-width=".3053"/>
 <path transform="scale(12)" d="m33.491 41.1-3.7438 0.019206-0.025065-4.7972-4.3659-6.998-0.013998-2.6908" fill="none" stroke="#000" stroke-miterlimit="10" stroke-width=".3053"/>
 <path transform="scale(12)" d="m22.528 25.595 0.016927 3.1589 2.8262 3.4951 0.016927 3.1598 1.6429 0.92708 0.041016 7.9561-1.6361 0.47689 0.011068 1.9893" fill="none" stroke="#000" stroke-miterlimit="10" stroke-width=".3053"/>
 <path transform="scale(12)" d="m22.639 46.773-0.014974-2.9261 2.2171-1.181-0.021159-3.861-2.223 0.011068-0.01595-3.1592-2.5951-3.9648-0.031901-6.084" fill="none" stroke="#000" stroke-miterlimit="10" stroke-width=".3053"/>
 <path transform="scale(12)" d="m21.501 30.514 2.124 3.3831 0.015951 3.042" fill="none" stroke="#000" stroke-miterlimit="10" stroke-width=".3053"/>
 <path transform="scale(12)" d="m22.437 41.625-1.8167-0.45801-0.025065-4.973-3.1891-5.6579-0.013997-2.6911" fill="none" stroke="#000" stroke-miterlimit="10" stroke-width=".3053"/>
 <path transform="scale(12)" d="m14.247 30.552 3.891 5.6549" fill="none" stroke="#000" stroke-miterlimit="10" stroke-width=".3053"/>
 <path transform="scale(12)" d="m11.801 32.671 1.638-0.007812 1.7728 3.5589 1.7562-0.009114" fill="none" stroke="#000" stroke-miterlimit="10" stroke-width=".3053"/>
 <path transform="scale(12)" d="m10.871 33.963 1.7738 3.6182 6.5531-0.03418" fill="none" stroke="#000" stroke-miterlimit="10" stroke-width=".3053"/>
 <path transform="scale(12)" d="m19.204 38.834-1.749 1.0622-3.861 0.019857 0.008789 1.7549 5.1481-0.027018" fill="none" stroke="#000" stroke-miterlimit="10" stroke-width=".3053"/>
 <path transform="scale(12)" d="m12.425 40.273-1.6911-2.6921-1.014 0.014974 0.028971 5.499 10.296-0.05306" fill="none" stroke="#000" stroke-miterlimit="10" stroke-width=".3053"/>
 <path transform="scale(12)" d="m7.6361 41.702 0.01595 3.1589 8.7751-0.044922 1.766 1.9798 2.6911-0.013997" fill="none" stroke="#000" stroke-miterlimit="10" stroke-width=".3053"/>
 <path transform="scale(12)" d="m7.6589 46.149 5.499-0.028972 1.9401 1.862 0.027995 5.3818" fill="none" stroke="#000" stroke-miterlimit="10" stroke-width=".3053"/>
 <path transform="scale(12)" d="m7.6699 48.255 4.7972-0.02474" fill="none" stroke="#000" stroke-miterlimit="10" stroke-width=".3053"/>
 <path transform="scale(12)" d="m7.6781 49.775 5.3818-0.027995 0.60905 4.5609 3.4069 2.79 3.042-0.015951" fill="none" stroke="#000" stroke-miterlimit="10" stroke-width=".3053"/>
 <path transform="scale(12)" d="m11.403 51.862-3.7139 0.020182" fill="none" stroke="#000" stroke-miterlimit="10" stroke-width=".3053"/>
 <path transform="scale(12)" d="m11.411 53.384 0.011719 2.223 2.4941 1.5068" fill="none" stroke="#000" stroke-miterlimit="10" stroke-width=".3053"/>
 <path transform="scale(12)" d="m17.066 55.226 5.4411-0.027994 0.027995 5.265" fill="none" stroke="#000" stroke-miterlimit="10" stroke-width=".3053"/>
 <path transform="scale(12)" d="m17.057 53.412 6.6689-0.093099-0.01302-2.457-5.499 0.028972-1.1628 1.263" fill="none" stroke="#000" stroke-miterlimit="10" stroke-width=".3053"/>
 <path transform="scale(12)" d="m17.03 48.206 11.642-0.061198-0.010742-2.1058 1.096-3.0482" fill="none" stroke="#000" stroke-miterlimit="10" stroke-width=".3053"/>
 <path transform="scale(12)" d="m24.875 49.335 3.8031-0.019857 0.007812 1.5208-3.8027 0.020182 0.039714 7.722" fill="none" stroke="#000" stroke-miterlimit="10" stroke-width=".3053"/>
 <path transform="scale(12)" d="m26.835 60.44-0.030925-5.9671 3.7139-0.01888-0.025065-4.7972 8.3301 4.2272" fill="none" stroke="#000" stroke-miterlimit="10" stroke-width=".3053"/>
 <path transform="scale(12)" d="m27.106 50.844 0.013021 2.458" fill="none" stroke="#000" stroke-miterlimit="10" stroke-width=".3053"/>
 <path transform="scale(12)" d="m29.783 48.139 10.296-0.053059 3.5-2.124-0.059245-11.35 1.0472-1" fill="none" stroke="#000" stroke-miterlimit="10" stroke-width=".3053"/>
 <path transform="scale(12)" d="m29.772 46.034 2.097-1.8838 9.5938-0.05013-2.6777 2.5892-6.903 0.03483" fill="none" stroke="#000" stroke-miterlimit="10" stroke-width=".3053"/>
 <path transform="scale(12)" d="m35.619 45.418 0.006836 1.2871" fill="none" stroke="#000" stroke-miterlimit="10" stroke-width=".3053"/>
 <path transform="scale(12)" d="m31.862 42.98 10.063-0.052083-0.025065-4.7972" fill="none" stroke="#000" stroke-miterlimit="10" stroke-width=".3053"/>
 <path transform="scale(12)" d="m34.9 42.029-0.014974-2.8079-1.4062-0.46094-0.03776-7.138 1.416 2.2158" fill="none" stroke="#000" stroke-miterlimit="10" stroke-width=".3053"/>
 <path transform="scale(12)" d="m36.886 41.55-0.013998-2.8083-1.9961-1.277-0.010092-1.8128 3.043-0.01595-3.0667-4.6061" fill="none" stroke="#000" stroke-miterlimit="10" stroke-width=".3053"/>
 <path transform="scale(12)" d="m38.758 41.54 1.2868-0.006185-0.020833-4.0947-2.1061 0.010742 0.83008 2.043" fill="none" stroke="#000" stroke-miterlimit="10" stroke-width=".3053"/>
 <path transform="scale(12)" d="m26.941 19.136 4.7969-0.025065 0.034179 6.4359-2.1152-1.627-0.013997-2.6911" fill="none" stroke="#000" stroke-miterlimit="10" stroke-width=".3053"/>
 <path transform="scale(12)" d="m31.777 26.6 3.0531 2.0902-0.013021-2.5742 1.5228 0.45996 0.020182 3.861 2.597 4.1992" fill="none" stroke="#000" stroke-miterlimit="10" stroke-width=".3053"/>
 <path transform="scale(12)" d="m33.413 26.123-0.03418-6.4349 2.9271 0.33594 0.022135 4.0951-1.5202 0.24186-0.013998-2.6911" fill="none" stroke="#000" stroke-miterlimit="10" stroke-width=".3053"/>
 <path transform="scale(12)" d="m29.625 17.719 5.8499-0.030925 4.4772 5.944 0.028972 5.6159" fill="none" stroke="#000" stroke-miterlimit="10" stroke-width=".3053"/>
 <path transform="scale(12)" d="m37.849 24.111 0.028972 5.6159 2.9502 4.8991" fill="none" stroke="#000" stroke-miterlimit="10" stroke-width=".3053"/>
 <path transform="scale(12)" d="m39.987 30.36 4.5632-0.024088-2.6742 3.29 0.013997 2.6331" fill="none" stroke="#000" stroke-miterlimit="10" stroke-width=".3053"/>
 <path transform="scale(12)" d="m42.269 30.348-1.4557 1.236" fill="none" stroke="#000" stroke-miterlimit="10" stroke-width=".3053"/>
 <path transform="scale(12)" d="m34.059 15.472 2.988 0.80404 1.598 3.3851 5.8802 5.819 0.019857 3.861-3.013-0.10124" fill="none" stroke="#000" stroke-miterlimit="10" stroke-width=".3053"/>
 <path transform="scale(12)" d="m42.89 26.074 0.016927 3.1592" fill="none" stroke="#000" stroke-miterlimit="10" stroke-width=".3053"/>
 <path transform="scale(12)" d="m34.998 49.633 5.0889-0.026042 0.015951 2.9248-2.5527-1.4489" fill="none" stroke="#000" stroke-miterlimit="10" stroke-width=".3053"/>
 <path transform="scale(12)" d="m31.912 52.575 0.022787 4.4463-3.2168 0.01595 0.028971 5.5" fill="none" stroke="#000" stroke-miterlimit="10" stroke-width=".3053"/>
 <path transform="scale(12)" d="m29.852 61.361 3.7441-0.019857-0.031901-6.2012" fill="none" stroke="#000" stroke-miterlimit="10" stroke-width=".3053"/>
 <path transform="scale(12)" d="m33.585 59.118-2.6911 0.014322" fill="none" stroke="#000" stroke-miterlimit="10" stroke-width=".3053"/>
 <path transform="scale(12)" d="m33.554 53.268 4.459 2.4342 0.041992 7.9557-2.224 0.012044-0.03418-6.6699" fill="none" stroke="#000" stroke-miterlimit="10" stroke-width=".3053"/>
 <path transform="scale(12)" d="m30.362 63.699 3.2461-0.016927 0.011068 1.9889 4.446-0.023763" fill="none" stroke="#000" stroke-miterlimit="10" stroke-width=".3053"/>
 <path transform="scale(12)" d="m39.537 67.512-0.061198-11.7 3.5482-4.1139 3.042-0.015951-0.019206-3.627 1.5101-2.1139" fill="none" stroke="#000" stroke-miterlimit="10" stroke-width=".3053"/>
 <path transform="scale(12)" d="m41.638 49.599 3.013-0.01595" fill="none" stroke="#000" stroke-miterlimit="10" stroke-width=".3053"/>
 <path transform="scale(12)" d="m43.144 49.591 3.3542-4.8151-0.035156-6.6689" fill="none" stroke="#000" stroke-miterlimit="10" stroke-width=".3053"/>
 <path transform="scale(12)" d="m44.791 41.509-0.024089-4.68 1.6781-2.2321-0.015951-3.042" fill="none" stroke="#000" stroke-miterlimit="10" stroke-width=".3053"/>
 <path transform="scale(12)" d="m52.301 13.388 0.013997 2.6911 2.4678 1.9769 0.035156 6.6689-3.0329 1.7712 0.030925 5.9668" fill="none" stroke="#000" stroke-miterlimit="10" stroke-width=".3053"/>
 <path transform="scale(12)" d="m50.036 27.675 0.034831 6.903 3.277-0.017253 0.011067 2.165 3.5101-0.01888 0.050781 9.887-1.9779 2.1169 0.032878 6.318" fill="none" stroke="#000" stroke-miterlimit="10" stroke-width=".3053"/>
 <path transform="scale(12)" d="m51.841 37.377-3.1592 0.016927-0.020833-4.125-2.2471-4.639" fill="none" stroke="#000" stroke-miterlimit="10" stroke-width=".3053"/>
 <path transform="scale(12)" d="m37.797 14.283 1.484 4.0882 6.264 5.6999 0.019206 3.569 3.068-0.015951" fill="none" stroke="#000" stroke-miterlimit="10" stroke-width=".3053"/>
 <path transform="scale(12)" d="m50.429 13.398 0.014974 2.6908 2.8229 2.9102 0.023112 4.388-2.8021 1.2438" fill="none" stroke="#000" stroke-miterlimit="10" stroke-width=".3053"/>
 <path transform="scale(12)" d="m50.027 26.037-2.5739 0.013021-0.019206-3.8021-1.8978 0.010091" fill="none" stroke="#000" stroke-miterlimit="10" stroke-width=".3053"/>
 <path transform="scale(12)" d="m47.725 13.412 0.019206 3.5098 4.0049 2.6702" fill="none" stroke="#000" stroke-miterlimit="10" stroke-width=".3053"/>
 <path transform="scale(12)" d="m51.762 22.225-3.1491 1.8301-0.023112-4.446 2.347 1.304" fill="none" stroke="#000" stroke-miterlimit="10" stroke-width=".3053"/>
 <path transform="scale(12)" d="m47.425 20.668-0.012044-2.457-1.901-0.57487-0.022135-4.2119" fill="none" stroke="#000" stroke-miterlimit="10" stroke-width=".3053"/>
 <path transform="scale(12)" d="m39.26 14.275 0.66081 3.39 1.8721-0.010091-0.02181-4.2119" fill="none" stroke="#000" stroke-miterlimit="10" stroke-width=".3053"/>
 <path transform="scale(12)" d="m43.321 13.435 0.029947 5.6162-1.5498 0.007812 2.873-0.014974 0.009765 1.902 1.7939-0.009115" fill="none" stroke="#000" stroke-miterlimit="10" stroke-width=".3053"/>
 <path transform="scale(12)" d="m54.89 38.648-3.627 0.01888 0.034831 6.6689-2.097 1.8831 0.013021 2.3398-1.638 0.009115" fill="none" stroke="#000" stroke-miterlimit="10" stroke-width=".3053"/>
 <path transform="scale(12)" d="m49.157 38.678 0.022135 4.2119-1.2939 1.1771" fill="none" stroke="#000" stroke-miterlimit="10" stroke-width=".3053"/>
 <path transform="scale(12)" d="m54.901 40.783 0.027018 5.1781-2.1051 0.011067-0.027019-5.1781" fill="none" stroke="#000" stroke-miterlimit="10" stroke-width=".3053"/>
 <path transform="scale(12)" d="m51.253 48.028 2.2822-0.012044-0.081054 6.904-2.165 0.011068-0.027994-5.3831" fill="none" stroke="#000" stroke-miterlimit="10" stroke-width=".3053"/>
 <path transform="scale(12)" d="m47.921 51.029-2.221 2.82 0.024088 4.6211 2.2389 0.57292 0.028971 5.5579" fill="none" stroke="#000" stroke-miterlimit="10" stroke-width=".3053"/>
 <path transform="scale(12)" d="m45.756 64.613-0.02181-4.2708-2.1751-1.276-0.029948-5.791-2.7891 3.6999 0.055013 10.53 2.3112-0.012044" fill="none" stroke="#000" stroke-miterlimit="10" stroke-width=".3053"/>
 <path transform="scale(12)" d="m43.596 66.086-1.5511 0.009114-0.035807-7.0212 1.5618 2.2161 0.012044 2.3398" fill="none" stroke="#000" stroke-miterlimit="10" stroke-width=".3053"/>
 <path transform="scale(12)" d="m49.224 51.49-1.6201 3.46 0.013021 2.5163 2.333-0.013021-0.70801-2.512" fill="none" stroke="#000" stroke-miterlimit="10" stroke-width=".3053"/>
 <path transform="scale(12)" d="m49.287 63.6-0.024088-4.5628 2.6911-0.014974 0.006836 1.2868" fill="none" stroke="#000" stroke-miterlimit="10" stroke-width=".3053"/>
 <path transform="scale(12)" d="m50.386 61.254v1.71l3.5778 0.027018 2.2562 6.306" fill="none" stroke="#000" stroke-miterlimit="10" stroke-width=".3053"/>
 <path transform="scale(12)" d="m51.299 56.686 3.6849-0.01888 0.024089 4.6211-2.1211-2.9141" fill="none" stroke="#000" stroke-miterlimit="10" stroke-width=".3053"/>
 <path transform="scale(12)" d="m54.874 35.548-0.021158-4.0368-1.8428 0.010091-0.014974-2.9261 4.5238-2.1289-0.013021-2.3691-1.5208-0.080078-0.040039-7.5469-1.7708-3.0921" fill="none" stroke="#000" stroke-miterlimit="10" stroke-width=".3053"/>
 <path transform="scale(12)" d="m58.575 72.093-0.023763-4.68-1.529-1.3962-0.061197-11.584 2.221-0.65397" fill="none" stroke="#000" stroke-miterlimit="10" stroke-width=".3053"/>
 <path transform="scale(12)" d="m56.951 52.444-0.016927-3.276 2.223-0.011068 0.017253 3.276" fill="none" stroke="#000" stroke-miterlimit="10" stroke-width=".3053"/>
 <path transform="scale(12)" d="m59.193 56.06 0.049805 9.4772 1.7741 3.735-0.84994 5.153" fill="none" stroke="#000" stroke-miterlimit="10" stroke-width=".3053"/>
 <path transform="scale(12)" d="m87.491 30.112-8.7747 0.10514-1.5303-1.748-9.126 0.047851-1.6429-0.986" fill="none" stroke="#000" stroke-miterlimit="10" stroke-width=".3053"/>
 <path transform="scale(12)" d="m85.844 28.424-6.082 0.41178-1.8851-2.4759-8.307 0.042969-0.010091-1.8721-6.5518 0.035157 0.025716 5.0299 1.1771 1.2809" fill="none" stroke="#000" stroke-miterlimit="10" stroke-width=".3053"/>
 <path transform="scale(12)" d="m83.844 26.329-3.9782 0.019856 0.70898 1.2842 1.9893-0.010091" fill="none" stroke="#000" stroke-miterlimit="10" stroke-width=".3053"/>
 <path transform="scale(12)" d="m72.017 24.519 9.8281-0.050781" fill="none" stroke="#000" stroke-miterlimit="10" stroke-width=".3053"/>
 <path transform="scale(12)" d="m64.646 24.557 0.023763 4.5632 2.4632 1.1569-4.0742 3.999 0.019206 3.7451" fill="none" stroke="#000" stroke-miterlimit="10" stroke-width=".3053"/>
 <path transform="scale(12)" d="m53.783 28.224 3.056 2.6921 0.024089 4.6211" fill="none" stroke="#000" stroke-miterlimit="10" stroke-width=".3053"/>
 <path transform="scale(12)" d="m57.975 35.531 0.027018 5.236 1.9889-0.009766 0.035157 6.7568-1.5791 0.008138 0.096029-4.1693" fill="none" stroke="#000" stroke-miterlimit="10" stroke-width=".3053"/>
 <path transform="scale(12)" d="m56.747 13.365 3.1309 5.5999 0.10221 15.051-1.583-1.5869-0.022135-4.2282-1.5501 0.008138" fill="none" stroke="#000" stroke-miterlimit="10" stroke-width=".3053"/>
 <path transform="scale(12)" d="m57.476 18.393 0.020183 3.8021 2.3988-0.012044" fill="none" stroke="#000" stroke-miterlimit="10" stroke-width=".3053"/>
 <path transform="scale(12)" d="m61.525 31.849 0.045899 8.9001 7.488-0.039062 3.613-2.7389" fill="none" stroke="#000" stroke-miterlimit="10" stroke-width=".3053"/>
 <path transform="scale(12)" d="m65.132 39.355 3.5687-0.018229 3.3773-3.235 6.083-0.20801-0.014974-2.778-1.8792-1.3438-0.125-1.6012-6.903 0.095053" fill="none" stroke="#000" stroke-miterlimit="10" stroke-width=".3053"/>
 <path transform="scale(12)" d="m67.843 31.816 1.1768 1.347 2.5993-0.80306 5.5879 0.083984" fill="none" stroke="#000" stroke-miterlimit="10" stroke-width=".3053"/>
 <path transform="scale(12)" d="m64.23 34.505 13.922-0.30697" fill="none" stroke="#000" stroke-miterlimit="10" stroke-width=".3053"/>
 <path transform="scale(12)" d="m69.623 34.351-1.748 3.6452-2.75 0.013997-0.010091-2.0482 1.9889-0.009766" fill="none" stroke="#000" stroke-miterlimit="10" stroke-width=".3053"/>
 <path transform="scale(12)" d="m80.901 22.775-4.7982 0.025065-2.7038-2.5892 3.042-0.014974" fill="none" stroke="#000" stroke-miterlimit="10" stroke-width=".3053"/>
 <path transform="scale(12)" d="m73.883 23.28-2.7663-3.057-8.1289 0.36393-0.02181-4.153 1.1618-1.5859" fill="none" stroke="#000" stroke-miterlimit="10" stroke-width=".3053"/>
 <path transform="scale(12)" d="m61.433 14.16c0.001953 0.35091 0.064127 12.285 0.064127 12.285" fill="none" stroke="#000" stroke-miterlimit="10" stroke-width=".3053"/>
 <path transform="scale(12)" d="m61.476 22.451 8.1891-0.20182 0.8278 1.6921" fill="none" stroke="#000" stroke-miterlimit="10" stroke-width=".3053"/>
 <path transform="scale(12)" d="m72.57 18.314-7.543 0.77083-0.88802-2.1309 1.8099-0.53613" fill="none" stroke="#000" stroke-miterlimit="10" stroke-width=".3053"/>
 <path transform="scale(12)" d="m79.894 31.753c-9.76e-4 -0.13802 8.1901-0.042969 8.1901-0.042969l0.014974 2.9619-8.1868 0.74512-0.012044-2.3109 5.3841 0.29394" fill="none" stroke="#000" stroke-miterlimit="10" stroke-width=".3053"/>
 <path transform="scale(12)" d="m90.322 34.369 0.033203 6.4339 1.8818 1.863 0.05013 9.5941" fill="none" stroke="#000" stroke-miterlimit="10" stroke-width=".3053"/>
 <path transform="scale(12)" d="m90.433 55.897-0.061849-11.993" fill="none" stroke="#000" stroke-miterlimit="10" stroke-width=".3053"/>
 <path transform="scale(12)" d="m90.392 47.824-2.224 0.011068-0.019857-3.9189-4.7972-0.033855" fill="none" stroke="#000" stroke-miterlimit="10" stroke-width=".3053"/>
 <path transform="scale(12)" d="m88.168 47.835 0.024088 4.446-4.2119 0.022136 0.012696 2.5749" fill="none" stroke="#000" stroke-miterlimit="10" stroke-width=".3053"/>
 <path transform="scale(12)" d="m86.826 37.195-2.3398 0.012044 0.024088 4.5628-7.2542 0.038086-1.1589 2.1709 0.033854 6.61 6.6712 0.25814" fill="none" stroke="#000" stroke-miterlimit="10" stroke-width=".3053"/>
 <path transform="scale(12)" d="m79.952 42.73c0.12012 0.58398 0.027019 5.1481 0.027019 5.1481l1.529 1.513 6.6689-0.035156" fill="none" stroke="#000" stroke-miterlimit="10" stroke-width=".3053"/>
 <path transform="scale(12)" d="m79.922 45.187-2.181 0.012044 0.020183 3.861" fill="none" stroke="#000" stroke-miterlimit="10" stroke-width=".3053"/>
 <path transform="scale(12)" d="m79.991 47.117 4.7803-0.02474" fill="none" stroke="#000" stroke-miterlimit="10" stroke-width=".3053"/>
 <path transform="scale(12)" d="m86.018 39.247 0.024088 4.7669" fill="none" stroke="#000" stroke-miterlimit="10" stroke-width=".3053"/>
 <path transform="scale(12)" d="m86.03 41.631 2.5752 0.11816" fill="none" stroke="#000" stroke-miterlimit="10" stroke-width=".3053"/>
 <path transform="scale(12)" d="m83.319 37.915-2.3271 2.4108-6.4938 0.03418 0.067057 12.695 7.847-0.041016" fill="none" stroke="#000" stroke-miterlimit="10" stroke-width=".3053"/>
 <path transform="scale(12)" d="m83.313 36.628-7.9531 0.62695-5.5931 4.5921" fill="none" stroke="#000" stroke-miterlimit="10" stroke-width=".3053"/>
 <path transform="scale(12)" d="m73.496 38.785 6.3929-0.033203" fill="none" stroke="#000" stroke-miterlimit="10" stroke-width=".3053"/>
 <path transform="scale(12)" d="m61.933 42.824 5.9671-0.030924 1.8818 1.9792 3.7451-0.019205 0.022136 4.3291" fill="none" stroke="#000" stroke-miterlimit="10" stroke-width=".3053"/>
 <path transform="scale(12)" d="m68.498 45.364-6.902 0.21094-0.008138-1.5788" fill="none" stroke="#000" stroke-miterlimit="10" stroke-width=".3053"/>
 <path transform="scale(12)" d="m61.956 47.211 9.7399-0.050782 0.022135 4.2129 1.8428-0.010091" fill="none" stroke="#000" stroke-miterlimit="10" stroke-width=".3053"/>
 <path transform="scale(12)" d="m60.913 49.148 8.8919-0.047201 0.016927 3.276-8.8919 0.045899-0.008138-1.4619 5.6152-0.32194" fill="none" stroke="#000" stroke-miterlimit="10" stroke-width=".3053"/>
 <path transform="scale(12)" d="m60.937 53.769 0.05599 10.765 2.2051 2.1823" fill="none" stroke="#000" stroke-miterlimit="10" stroke-width=".3053"/>
 <path transform="scale(12)" d="m61.71 67.397 1.5371 3.0339 0.012045 2.3402 12.987-0.068034" fill="none" stroke="#000" stroke-miterlimit="10" stroke-width=".3053"/>
 <path transform="scale(12)" d="m76.861 71.179 0.28613-5.2669 9.0049-0.80697" fill="none" stroke="#000" stroke-miterlimit="10" stroke-width=".3053"/>
 <path transform="scale(12)" d="m84.175 67.28-5.8512 0.029948 0.013998 2.6911 1.7201 1.1611" fill="none" stroke="#000" stroke-miterlimit="10" stroke-width=".3053"/>
 <path transform="scale(12)" d="m80.047 69.173 2.4492-0.012696" fill="none" stroke="#000" stroke-miterlimit="10" stroke-width=".3053"/>
 <path transform="scale(12)" d="m89.744 58.241-3.7523-1.502-0.016927-3.0999" fill="none" stroke="#000" stroke-miterlimit="10" stroke-width=".3053"/>
 <path transform="scale(12)" d="m86.101 55.335 2.1071-0.011068" fill="none" stroke="#000" stroke-miterlimit="10" stroke-width=".3053"/>
 <path transform="scale(12)" d="m88.711 62.224-1.7611-1.1598-0.010742-2.2533-5.8662-2.8359-0.007813-1.667" fill="none" stroke="#000" stroke-miterlimit="10" stroke-width=".3053"/>
 <path transform="scale(12)" d="m71.727 53.07 0.45117 2.3369 6.8161-0.034831 0.017903 3.4808" fill="none" stroke="#000" stroke-miterlimit="10" stroke-width=".3053"/>
 <path transform="scale(12)" d="m68.897 54.371 0.014974 2.984 7.877-0.041992" fill="none" stroke="#000" stroke-miterlimit="10" stroke-width=".3053"/>
 <path transform="scale(12)" d="m67.197 53.737-4.0671 0.021159-0.3929 8.6009 1.6569 3.6188" fill="none" stroke="#000" stroke-miterlimit="10" stroke-width=".3053"/>
 <path transform="scale(12)" d="m65.035 71.24 7.6927-0.040039 2.7113-1.944-0.030274-5.792 4.667-0.023763" fill="none" stroke="#000" stroke-miterlimit="10" stroke-width=".3053"/>
 <path transform="scale(12)" d="m82.466 63.427 4.4967-0.023112-2.82-2.2669-0.009766-1.8141-3.0492-1.3301" fill="none" stroke="#000" stroke-miterlimit="10" stroke-width=".3053"/>
 <path transform="scale(12)" d="m82.034 60.709-4.68 0.024089-0.55697-1.8402-5.4779 0.028971" fill="none" stroke="#000" stroke-miterlimit="10" stroke-width=".3053"/>
 <path transform="scale(12)" d="m76.192 62.289-2.5742 0.013998 0.033203 6.319" fill="none" stroke="#000" stroke-miterlimit="10" stroke-width=".3053"/>
 <path transform="scale(12)" d="m65.019 68.228 8.6221-1.5667" fill="none" stroke="#000" stroke-miterlimit="10" stroke-width=".3053"/>
 <path transform="scale(12)" d="m65.395 56.028 0.022135 4.1969 9.4769-0.048828" fill="none" stroke="#000" stroke-miterlimit="10" stroke-width=".3053"/>
 <path transform="scale(12)" d="m72.203 60.234 0.025716 4.943" fill="none" stroke="#000" stroke-miterlimit="10" stroke-width=".3053"/>
 <path transform="scale(12)" d="m72.22 63.481-4.9561 3.2129" fill="none" stroke="#000" stroke-miterlimit="10" stroke-width=".3053"/>
 <path transform="scale(12)" d="m64.375 62.351 7.8389-0.041015" fill="none" stroke="#000" stroke-miterlimit="10" stroke-width=".3053"/>
 <path transform="scale(12)" d="m66.189 62.458 0.013997 2.6481 1.7168-1.6032" fill="none" stroke="#000" stroke-miterlimit="10" stroke-width=".3053"/>
 <path transform="scale(12)" d="m71.361 67.076 0.01595 2.9613-4.7389 0.02474 2.04-1.4137" fill="none" stroke="#000" stroke-miterlimit="10" stroke-width=".3053"/>
 <path transform="scale(12)" d="m61.747 74.417 3.4508-0.017903 0.029948 5.7331" fill="none" stroke="#000" stroke-miterlimit="10" stroke-width=".3053"/>
 <path transform="scale(12)" d="m66.704 82.815-0.033204-6.4352 1.985-0.71191-0.014973-2.9251" fill="none" stroke="#000" stroke-miterlimit="10" stroke-width=".3053"/>
 <path transform="scale(12)" d="m69.782 72.737 0.16113 2.807 2.349 1.6839 0.065104 12.578" fill="none" stroke="#000" stroke-miterlimit="10" stroke-width=".3053"/>
 <path transform="scale(12)" d="m72.592 74.36 2.0947 2.3291 0.055013 10.531-1.041 0.004883" fill="none" stroke="#000" stroke-miterlimit="10" stroke-width=".3053"/>
 <path transform="scale(12)" d="m70.254 79.17 0.032227 6.2012h-1.084l-1.1042-4.5521" fill="none" stroke="#000" stroke-miterlimit="10" stroke-width=".3053"/>
 <path transform="scale(12)" d="m75.465 74.345 1.7262-0.009114" fill="none" stroke="#000" stroke-miterlimit="10" stroke-width=".3053"/>
 <path d="m217.96 333.12c0.023437 4.4727-3.582 8.1211-8.0547 8.1406-4.4766 0.023437-8.1211-3.582-8.1445-8.0547-0.023437-4.4766 3.5859-8.1211 8.0586-8.1445 4.4727-0.023437 8.1172 3.5859 8.1406 8.0586z"/>
 <path d="m281.72 500.52c0.023438 4.4727-3.582 8.1172-8.0586 8.1406-4.4727 0.023438-8.1172-3.5859-8.1406-8.0586-0.023438-4.4727 3.5859-8.1172 8.0586-8.1406 4.4727-0.023438 8.1211 3.582 8.1406 8.0586z"/>
 <path d="m235.43 498.3c0.023437 4.4766-3.5859 8.1211-8.0586 8.1445-4.4727 0.023438-8.1172-3.5859-8.1406-8.0586-0.023437-4.4727 3.582-8.1172 8.0586-8.1406 4.4727-0.023438 8.1172 3.582 8.1406 8.0547z"/>
 <path d="m239.8 465.98c0.023438 4.4727-3.582 8.1172-8.0547 8.1406-4.4766 0.023438-8.1211-3.5859-8.1445-8.0586-0.023437-4.4727 3.5859-8.1172 8.0586-8.1406 4.4727-0.023437 8.1172 3.582 8.1406 8.0586z"/>
 <path d="m210.39 434.53c0.023437 4.4727-3.582 8.1172-8.0586 8.1406-4.4727 0.023437-8.1172-3.5859-8.1406-8.0586-0.023437-4.4727 3.5859-8.1172 8.0586-8.1406 4.4727-0.023437 8.1172 3.582 8.1406 8.0586z"/>
 <path d="m231.54 434.43c0.023438 4.4727-3.582 8.1211-8.0586 8.1445-4.4727 0.023437-8.1172-3.5859-8.1406-8.0586-0.023438-4.4727 3.5859-8.1211 8.0586-8.1445 4.4727-0.023438 8.1172 3.5859 8.1406 8.0586z"/>
 <path d="m181.73 366.59c0.023437 4.4727-3.582 8.1172-8.0586 8.1406-4.4727 0.023438-8.1172-3.582-8.1406-8.0586-0.023437-4.4727 3.5859-8.1172 8.0586-8.1406 4.4727-0.023438 8.1172 3.5859 8.1406 8.0586z"/>
 <path d="m150.98 392.01c0.023437 4.4766-3.5859 8.1211-8.0586 8.1445s-8.1211-3.5859-8.1445-8.0586c-0.023438-4.4727 3.5859-8.1172 8.0586-8.1406 4.4727-0.023437 8.1211 3.582 8.1445 8.0547z"/>
 <path d="m137.38 409.67c0.023438 4.4766-3.582 8.1211-8.0586 8.1445-4.4727 0.023438-8.1172-3.5859-8.1406-8.0586-0.023438-4.4727 3.5859-8.1172 8.0586-8.1406 4.4727-0.023438 8.1172 3.582 8.1406 8.0547z"/>
 <path d="m158.45 483.25c0.023437 4.4766-3.5859 8.1211-8.0586 8.1445-4.4727 0.023437-8.1211-3.5859-8.1445-8.0586-0.019531-4.4727 3.5859-8.1172 8.0586-8.1406 4.4766-0.023437 8.1211 3.582 8.1445 8.0547z"/>
 <path d="m253.39 516.86c0.023438 4.4727-3.582 8.1211-8.0586 8.1445-4.4727 0.019532-8.1172-3.5859-8.1406-8.0586-0.023437-4.4766 3.5859-8.1211 8.0586-8.1445 4.4727-0.023438 8.1172 3.5859 8.1406 8.0586z"/>
 <path d="m259.98 561.35c0.023438 4.4727-3.582 8.1172-8.0547 8.1406-4.4766 0.023438-8.1211-3.5859-8.1445-8.0586-0.023438-4.4727 3.5859-8.1172 8.0586-8.1406 4.4727-0.023437 8.1211 3.582 8.1406 8.0586z"/>
 <path d="m213.73 578.43c0.023437 4.4727-3.5859 8.1211-8.0586 8.1445s-8.1172-3.5859-8.1406-8.0586c-0.023438-4.4727 3.582-8.1211 8.0586-8.1445 4.4727-0.023438 8.1172 3.5859 8.1406 8.0586z"/>
 <path d="m213.96 625.46c0.023437 4.4766-3.582 8.1211-8.0547 8.1445-4.4766 0.023437-8.1211-3.582-8.1445-8.0586-0.023438-4.4727 3.582-8.1172 8.0586-8.1406 4.4727-0.023437 8.1172 3.582 8.1406 8.0547z"/>
 <path d="m279.8 729.06c0.027343 4.4766-3.582 8.1211-8.0547 8.1445-4.4727 0.023438-8.1211-3.582-8.1445-8.0586-0.023438-4.4727 3.5859-8.1172 8.0586-8.1406 4.4727-0.023437 8.1172 3.582 8.1406 8.0547z"/>
 <path d="m308.45 702.9c0.027343 4.4727-3.582 8.1211-8.0547 8.1445-4.4727 0.023437-8.1211-3.5859-8.1445-8.0586-0.023438-4.4727 3.5859-8.1172 8.0586-8.1406 4.4727-0.023437 8.1172 3.582 8.1406 8.0547z"/>
 <path d="m334.79 640.29c0.023437 4.4766-3.5859 8.1211-8.0586 8.1445-4.4727 0.023437-8.1172-3.582-8.1445-8.0586-0.023438-4.4727 3.5859-8.1172 8.0586-8.1406 4.4727-0.023438 8.1211 3.582 8.1445 8.0547z"/>
 <path d="m306.79 592c0.023438 4.4766-3.5859 8.1211-8.0586 8.1445-4.4727 0.023437-8.1211-3.5859-8.1445-8.0586-0.023437-4.4727 3.5859-8.1172 8.0586-8.1406 4.4727-0.023437 8.1172 3.582 8.1445 8.0547z"/>
 <path d="m214.18 662.68c0.023438 4.4766-3.5859 8.1211-8.0586 8.1406-4.4727 0.023438-8.1172-3.582-8.1406-8.0586-0.023437-4.4727 3.5859-8.1172 8.0586-8.1406 4.4727-0.023438 8.1172 3.5859 8.1406 8.0586z"/>
 <path d="m176.38 685.33c0.023438 4.4727-3.5859 8.1172-8.0586 8.1406-4.4727 0.023438-8.1172-3.5859-8.1406-8.0586-0.023438-4.4727 3.5859-8.1172 8.0586-8.1406 4.4727-0.023438 8.1172 3.5859 8.1406 8.0586z"/>
 <path d="m146.3 641.27c0.023437 4.4727-3.582 8.1211-8.0547 8.1445-4.4766 0.023438-8.1211-3.5859-8.1445-8.0586-0.023438-4.4727 3.582-8.1172 8.0586-8.1406 4.4727-0.027344 8.1172 3.582 8.1406 8.0547z"/>
 <path d="m101.62 620.44c0.023437 4.4727-3.5859 8.1211-8.0586 8.1445-4.4727 0.023438-8.1172-3.5859-8.1406-8.0586-0.023438-4.4727 3.582-8.1211 8.0547-8.1445 4.4727-0.023437 8.1211 3.5859 8.1445 8.0586z"/>
 <path d="m158.94 578.73c0.023438 4.4727-3.5859 8.1172-8.0586 8.1406-4.4727 0.023438-8.1211-3.5859-8.1445-8.0586-0.023437-4.4727 3.5859-8.1172 8.0586-8.1406 4.4727-0.023437 8.1211 3.582 8.1445 8.0586z"/>
 <path d="m101.42 581.51c0.023437 4.4727-3.5859 8.1211-8.0586 8.1445-4.4727 0.023437-8.1211-3.5859-8.1445-8.0586s3.5859-8.1211 8.0586-8.1445c4.4727-0.023438 8.1211 3.5859 8.1445 8.0586z"/>
 <path d="m98.469 555.16c0.023438 4.4727-3.5859 8.1172-8.0586 8.1406s-8.1172-3.582-8.1406-8.0547c-0.023437-4.4766 3.582-8.1211 8.0547-8.1445 4.4766-0.023437 8.1211 3.5859 8.1445 8.0586z"/>
 <path d="m314.7 561.07c0.023437 4.4727-3.5859 8.1211-8.0586 8.1406-4.4727 0.023437-8.1172-3.582-8.1406-8.0547-0.023437-4.4766 3.582-8.1211 8.0586-8.1445 4.4727-0.023437 8.1172 3.5859 8.1406 8.0586z"/>
 <path d="m366.43 516.28c0.023438 4.4727-3.582 8.1172-8.0586 8.1406-4.4727 0.023437-8.1172-3.582-8.1406-8.0586-0.023437-4.4727 3.5859-8.1172 8.0586-8.1406 4.4727-0.023437 8.1172 3.5859 8.1406 8.0586z"/>
 <path d="m411.23 493.18c0.023437 4.4727-3.582 8.1172-8.0586 8.1406-4.4727 0.023437-8.1172-3.582-8.1406-8.0586-0.023437-4.4727 3.5859-8.1172 8.0586-8.1406s8.1172 3.5859 8.1406 8.0586z"/>
 <path d="m388.63 465.21c0.023438 4.4727-3.5859 8.1172-8.0586 8.1406-4.4727 0.023438-8.1172-3.582-8.1406-8.0586-0.023438-4.4727 3.582-8.1172 8.0547-8.1406 4.4766-0.023438 8.1211 3.5859 8.1445 8.0586z"/>
 <path d="m427.67 408.15c0.023437 4.4727-3.5859 8.1172-8.0586 8.1406-4.4727 0.023437-8.1211-3.5859-8.1445-8.0586-0.023438-4.4727 3.5859-8.1172 8.0586-8.1406 4.4727-0.023438 8.1211 3.582 8.1445 8.0586z"/>
 <path d="m390.71 324.14c0.023437 4.4727-3.5859 8.1172-8.0586 8.1406-4.4727 0.023437-8.1172-3.5859-8.1406-8.0586-0.023438-4.4727 3.582-8.1172 8.0547-8.1406 4.4766-0.023437 8.1211 3.582 8.1445 8.0586z"/>
 <path d="m463.56 290.34c0.023437 4.4727-3.5859 8.1172-8.0586 8.1406s-8.1172-3.582-8.1406-8.0547c-0.023437-4.4766 3.582-8.1211 8.0547-8.1445 4.4766-0.023437 8.1211 3.5859 8.1445 8.0586z"/>
 <path d="m313.1 249.37c0.023438 4.4727-3.5859 8.1172-8.0586 8.1406-4.4727 0.023437-8.1211-3.582-8.1445-8.0547-0.019531-4.4766 3.5859-8.1211 8.0586-8.1445 4.4766-0.023438 8.1211 3.5859 8.1445 8.0586z"/>
 <path d="m279.55 275.5c0.023437 4.4727-3.5859 8.1172-8.0586 8.1406-4.4727 0.023438-8.1172-3.5859-8.1406-8.0586-0.023437-4.4727 3.582-8.1172 8.0586-8.1406 4.4727-0.023437 8.1172 3.582 8.1406 8.0586z"/>
 <path d="m313.47 319.55c0.023438 4.4727-3.5859 8.1172-8.0586 8.1406-4.4727 0.023438-8.1172-3.582-8.1406-8.0547-0.023438-4.4766 3.582-8.1211 8.0586-8.1445 4.4727-0.023438 8.1172 3.5859 8.1406 8.0586z"/>
 <path d="m293.06 443.23c0.023438 4.4727-3.5859 8.1172-8.0586 8.1406-4.4727 0.023437-8.1211-3.5859-8.1406-8.0586-0.023437-4.4727 3.582-8.1172 8.0547-8.1406 4.4766-0.023437 8.1211 3.582 8.1445 8.0586z"/>
 <path d="m279.71 307.1c0.023437 4.4727-3.582 8.1172-8.0547 8.1406-4.4766 0.023438-8.1211-3.582-8.1445-8.0547-0.023437-4.4766 3.5859-8.1211 8.0586-8.1445 4.4727-0.023437 8.1172 3.5859 8.1406 8.0586z"/>
 <path d="m426.9 260.52c0.019531 4.4766-3.5859 8.1211-8.0586 8.1445-4.4766 0.023437-8.1211-3.5859-8.1445-8.0586-0.023437-4.4727 3.5859-8.1172 8.0586-8.1406s8.1211 3.582 8.1445 8.0547z"/>
 <path d="m481.79 419.07c0.023438 4.4727-3.582 8.1172-8.0547 8.1406-4.4766 0.023437-8.1211-3.582-8.1445-8.0547-0.023438-4.4766 3.5859-8.1211 8.0586-8.1445 4.4727-0.023438 8.1211 3.5859 8.1406 8.0586z"/>
 <path d="m474.35 473.88c0.023438 4.4727-3.5859 8.1172-8.0586 8.1406-4.4727 0.023437-8.1172-3.582-8.1406-8.0586-0.023438-4.4727 3.582-8.1172 8.0586-8.1406 4.4727-0.023437 8.1172 3.5859 8.1406 8.0586z"/>
 <path d="m451.99 499.64c0.023438 4.4727-3.5859 8.1172-8.0586 8.1406-4.4727 0.023438-8.1172-3.582-8.1406-8.0547-0.023437-4.4766 3.582-8.1211 8.0547-8.1445 4.4766-0.023437 8.1211 3.5859 8.1445 8.0586z"/>
 <path d="m365.18 555.89c0.023438 4.4727-3.582 8.1172-8.0586 8.1406-4.4727 0.023438-8.1172-3.5859-8.1406-8.0586-0.023437-4.4727 3.5859-8.1172 8.0586-8.1406 4.4727-0.023438 8.1172 3.582 8.1406 8.0586z"/>
 <path d="m428.64 595.57c0.023437 4.4727-3.5859 8.1172-8.0586 8.1406-4.4727 0.023437-8.1172-3.5859-8.1406-8.0586-0.023437-4.4727 3.582-8.1172 8.0547-8.1406 4.4766-0.023438 8.1211 3.582 8.1445 8.0586z"/>
 <path d="m460.73 616.08c0.023437 4.4727-3.5859 8.1172-8.0586 8.1406s-8.1211-3.5859-8.1406-8.0586c-0.023438-4.4766 3.582-8.1211 8.0586-8.1406 4.4727-0.023437 8.1172 3.582 8.1406 8.0586z"/>
 <path d="m412.03 639.17c0.023438 4.4727-3.5859 8.1211-8.0586 8.1406-4.4727 0.023438-8.1211-3.582-8.1406-8.0586-0.023437-4.4727 3.582-8.1172 8.0586-8.1406 4.4727-0.023437 8.1172 3.5859 8.1406 8.0586z"/>
 <path d="m392.3 627.03c0.023437 4.4727-3.5859 8.1172-8.0586 8.1406-4.4727 0.027343-8.1172-3.582-8.1406-8.0547-0.023437-4.4727 3.582-8.1211 8.0547-8.1445s8.1211 3.5859 8.1445 8.0586z"/>
 <path d="m354.35 751.81c0.023438 4.4727-3.582 8.1172-8.0547 8.1406-4.4766 0.027344-8.1211-3.582-8.1445-8.0547-0.023438-4.4727 3.582-8.1211 8.0586-8.1445 4.4727-0.023437 8.1172 3.5859 8.1406 8.0586z"/>
 <path d="m381.83 710.63c0.023438 4.4727-3.5859 8.1172-8.0586 8.1406-4.4766 0.023438-8.1211-3.5859-8.1445-8.0586-0.019531-4.4766 3.5859-8.1211 8.0625-8.1406 4.4727-0.023437 8.1172 3.582 8.1406 8.0586z"/>
 <path d="m373.56 736.27c0.023438 4.4727-3.582 8.1172-8.0547 8.1406-4.4766 0.023438-8.1211-3.582-8.1445-8.0586-0.023437-4.4727 3.582-8.1172 8.0586-8.1406 4.4727-0.023437 8.1172 3.582 8.1406 8.0586z"/>
 <path d="m375.88 767.57c0.023438 4.4766-3.5859 8.1211-8.0586 8.1445-4.4727 0.019531-8.1172-3.5859-8.1406-8.0586-0.023437-4.4766 3.5859-8.1211 8.0586-8.1445 4.4727-0.019531 8.1172 3.5859 8.1406 8.0586z"/>
 <path d="m437.54 683.97c0.023437 4.4727-3.5859 8.1172-8.0586 8.1406s-8.1172-3.5859-8.1406-8.0586c-0.023438-4.4727 3.5859-8.1172 8.0586-8.1406 4.4727-0.023437 8.1172 3.5859 8.1406 8.0586z"/>
 <path d="m466.14 787.73c0.023438 4.4727-3.582 8.1172-8.0547 8.1406-4.4766 0.023438-8.1211-3.582-8.1445-8.0547-0.023437-4.4766 3.582-8.1211 8.0586-8.1445 4.4727-0.023437 8.1172 3.582 8.1406 8.0586z"/>
 <path d="m532.39 766.77c0.023437 4.4727-3.582 8.1172-8.0586 8.1406-4.4727 0.023438-8.1172-3.582-8.1406-8.0547-0.023438-4.4766 3.582-8.1211 8.0547-8.1445 4.4766-0.023438 8.1211 3.582 8.1445 8.0586z"/>
 <path d="m528.77 810.93c0.023437 4.4727-3.582 8.1172-8.0547 8.1445-4.4727 0.023437-8.1211-3.5859-8.1445-8.0586-0.023438-4.4727 3.5859-8.1211 8.0586-8.1445 4.4727-0.023438 8.1172 3.5859 8.1406 8.0586z"/>
 <path d="m558.5 782.5c0.023437 4.4727-3.582 8.1211-8.0586 8.1406-4.4727 0.023438-8.1172-3.582-8.1406-8.0586-0.023437-4.4727 3.5859-8.1172 8.0586-8.1406 4.4727-0.023437 8.1211 3.5859 8.1406 8.0586z"/>
 <path d="m584.45 612.3c0.023438 4.4727-3.5859 8.1172-8.0586 8.1406-4.4727 0.023438-8.1172-3.5859-8.1406-8.0586-0.023438-4.4727 3.5859-8.1172 8.0586-8.1406 4.4727-0.023438 8.1172 3.5859 8.1406 8.0586z"/>
 <path d="m507.28 595.15c0.023437 4.4727-3.5859 8.1172-8.0586 8.1406-4.4727 0.023438-8.1172-3.582-8.1406-8.0547-0.023437-4.4766 3.582-8.1211 8.0586-8.1445 4.4727-0.023438 8.1172 3.5859 8.1406 8.0586z"/>
 <path d="m580.06 551.57c0.023437 4.4727-3.5859 8.1211-8.0586 8.1406-4.4727 0.023437-8.1172-3.582-8.1406-8.0547-0.023437-4.4766 3.582-8.1211 8.0586-8.1445 4.4727-0.023437 8.1172 3.5859 8.1406 8.0586z"/>
 <path d="m599.27 465.11c0.023438 4.4727-3.5859 8.1172-8.0586 8.1406-4.4727 0.023438-8.1172-3.582-8.1406-8.0547-0.023437-4.4766 3.582-8.1211 8.0547-8.1445 4.4766-0.023438 8.1211 3.5859 8.1445 8.0586z"/>
 <path d="m564.89 456.17c0.023437 4.4766-3.5859 8.1211-8.0586 8.1445-4.4727 0.023438-8.1211-3.5859-8.1445-8.0586-0.023438-4.4727 3.5859-8.1211 8.0586-8.1445 4.4727-0.019531 8.1211 3.5859 8.1445 8.0586z"/>
 <path d="m548.93 502.1c0.023437 4.4727-3.5859 8.1211-8.0586 8.1445-4.4727 0.023437-8.1172-3.5859-8.1406-8.0586-0.023438-4.4727 3.582-8.1211 8.0547-8.1445 4.4766-0.023437 8.1211 3.5859 8.1445 8.0586z"/>
 <path d="m544.19 403.3c0.023438 4.4727-3.5859 8.1172-8.0586 8.1406-4.4727 0.023438-8.1172-3.582-8.1406-8.0547-0.023437-4.4766 3.582-8.1211 8.0586-8.1445 4.4727-0.023438 8.1172 3.5859 8.1406 8.0586z"/>
 <path d="m609.79 333.49c0.023438 4.4727-3.582 8.1211-8.0586 8.1445-4.4727 0.019531-8.1172-3.5859-8.1406-8.0586-0.023438-4.4766 3.5859-8.1211 8.0586-8.1445 4.4727-0.023438 8.1172 3.5859 8.1406 8.0586z"/>
 <path d="m566.5 378.65c0.023438 4.4727-3.5859 8.1172-8.0586 8.1406-4.4727 0.023438-8.1211-3.582-8.1445-8.0586-0.023437-4.4727 3.5859-8.1172 8.0586-8.1406 4.4727-0.023438 8.1211 3.5859 8.1445 8.0586z"/>
 <path d="m512.15 457.56c0.019531 4.4727-3.5859 8.1172-8.0586 8.1406-4.4766 0.023437-8.1211-3.582-8.1445-8.0547-0.023437-4.4766 3.5859-8.1211 8.0586-8.1445s8.1211 3.5859 8.1445 8.0586z"/>
 <path d="m489.23 364.97c0.023438 4.4727-3.582 8.1172-8.0586 8.1406-4.4727 0.023438-8.1172-3.582-8.1406-8.0547-0.023438-4.4766 3.5859-8.1211 8.0586-8.1445 4.4727-0.023437 8.1172 3.5859 8.1406 8.0586z"/>
 <path d="m524.05 312.84c0.023438 4.4727-3.5859 8.1172-8.0586 8.1406-4.4727 0.023437-8.1172-3.582-8.1406-8.0547-0.023437-4.4766 3.582-8.1211 8.0586-8.1445 4.4727-0.023437 8.1172 3.5859 8.1406 8.0586z"/>
 <path d="m418.4 187.04c0.023437 4.4727-3.5859 8.1172-8.0586 8.1406-4.4727 0.023437-8.1172-3.5859-8.1406-8.0586s3.5859-8.1172 8.0586-8.1406c4.4727-0.023437 8.1172 3.5859 8.1406 8.0586z"/>
 <path d="m510.63 161.27c0.023438 4.4727-3.5859 8.1172-8.0586 8.1406-4.4727 0.023438-8.1172-3.582-8.1406-8.0547-0.023438-4.4766 3.582-8.1211 8.0586-8.1445 4.4727-0.023438 8.1172 3.5859 8.1406 8.0586z"/>
 <path d="m555.24 161.07c0.023438 4.4727-3.582 8.1172-8.0547 8.1406-4.4766 0.023437-8.1211-3.5859-8.1445-8.0586-0.023437-4.4727 3.5859-8.1172 8.0586-8.1406s8.1172 3.582 8.1406 8.0586z"/>
 <path d="m614.72 160.73c0.023438 4.4727-3.5859 8.1172-8.0586 8.1406-4.4727 0.023437-8.1172-3.582-8.1406-8.0586-0.023438-4.4727 3.582-8.1172 8.0586-8.1406 4.4727-0.023437 8.1172 3.5859 8.1406 8.0586z"/>
 <path d="m699.09 220.67c0.023438 4.4727-3.582 8.1172-8.0547 8.1406-4.4766 0.023438-8.1211-3.5859-8.1445-8.0586-0.023437-4.4727 3.5859-8.1172 8.0586-8.1406 4.4727-0.023437 8.1172 3.582 8.1406 8.0586z"/>
 <path d="m746.57 169.87c0.019532 4.4727-3.5859 8.1172-8.0586 8.1406-4.4766 0.023437-8.1211-3.582-8.1445-8.0586-0.023438-4.4727 3.5859-8.1172 8.0586-8.1406 4.4727-0.023438 8.1211 3.5859 8.1445 8.0586z"/>
 <path d="m747.32 317.32c0.023437 4.4766-3.5859 8.1211-8.0586 8.1406-4.4727 0.023437-8.1211-3.582-8.1406-8.0586-0.023438-4.4727 3.582-8.1172 8.0586-8.1406 4.4727-0.023437 8.1172 3.5859 8.1406 8.0586z"/>
 <path d="m691.29 341.14c0.023438 4.4727-3.5859 8.1172-8.0586 8.1406-4.4727 0.023438-8.1172-3.5859-8.1406-8.0586-0.023438-4.4727 3.582-8.1172 8.0547-8.1406 4.4766-0.023437 8.1211 3.582 8.1445 8.0586z"/>
 <path d="m747.66 385.81c0.023438 4.4727-3.582 8.1172-8.0586 8.1406-4.4727 0.023437-8.1172-3.582-8.1406-8.0547-0.023438-4.4766 3.5859-8.1211 8.0586-8.1445 4.4727-0.023438 8.1172 3.5859 8.1406 8.0586z"/>
 <path d="m710.85 522.56c0.023438 4.4766-3.582 8.1211-8.0547 8.1445-4.4766 0.023437-8.1211-3.5859-8.1445-8.0586-0.023438-4.4727 3.5859-8.1172 8.0586-8.1406 4.4727-0.023437 8.1172 3.582 8.1406 8.0547z"/>
 <path d="m748.41 529.7c0.023438 4.4727-3.5859 8.1172-8.0586 8.1406-4.4727 0.023438-8.1172-3.582-8.1406-8.0586-0.023438-4.4727 3.582-8.1172 8.0586-8.1406 4.4727-0.023437 8.1172 3.5859 8.1406 8.0586z"/>
 <path d="m692.8 631.07c0.023438 4.4727-3.5859 8.1172-8.0586 8.1406-4.4727 0.023437-8.1172-3.582-8.1406-8.0586-0.023437-4.4727 3.5859-8.1172 8.0586-8.1406s8.1172 3.5859 8.1406 8.0586z"/>
 <path d="m719.52 630.93c0.023437 4.4727-3.5859 8.1172-8.0586 8.1406-4.4727 0.027344-8.1211-3.582-8.1445-8.0547s3.5859-8.1211 8.0586-8.1445c4.4727-0.023438 8.1172 3.5859 8.1445 8.0586z"/>
 <path d="m740.35 591.82c0.023438 4.4727-3.5859 8.1211-8.0586 8.1406-4.4727 0.023437-8.1172-3.582-8.1406-8.0586-0.023438-4.4727 3.5859-8.1172 8.0586-8.1406 4.4727-0.023437 8.1172 3.5859 8.1406 8.0586z"/>
 <path d="m753.38 567.52c0.023438 4.4727-3.5859 8.1211-8.0586 8.1445-4.4727 0.019532-8.1211-3.5859-8.1445-8.0586-0.023437-4.4727 3.5859-8.1211 8.0586-8.1445 4.4727-0.023438 8.1211 3.5859 8.1445 8.0586z"/>
 <path d="m789.56 471.21c0.023437 4.4727-3.5859 8.1172-8.0586 8.1406-4.4727 0.023438-8.1211-3.582-8.1445-8.0547-0.023438-4.4766 3.5859-8.1211 8.0586-8.1445 4.4727-0.023438 8.1211 3.5859 8.1445 8.0586z"/>
 <path d="m812.36 432.41c0.023437 4.4766-3.5859 8.1211-8.0586 8.1445-4.4727 0.023437-8.1172-3.5859-8.1406-8.0586s3.582-8.1211 8.0586-8.1406c4.4727-0.023438 8.1172 3.582 8.1406 8.0547z"/>
 <path d="m822.43 381.79c0.023438 4.4727-3.582 8.1172-8.0586 8.1406-4.4727 0.023437-8.1172-3.582-8.1406-8.0586-0.023437-4.4727 3.5859-8.1172 8.0586-8.1406s8.1172 3.5859 8.1406 8.0586z"/>
 <path d="m855.28 287.28c0.023437 4.4727-3.5859 8.1172-8.0586 8.1406s-8.1172-3.5859-8.1406-8.0586c-0.023437-4.4727 3.5859-8.1172 8.0586-8.1406 4.4727-0.023437 8.1172 3.5859 8.1406 8.0586z"/>
 <path d="m878.8 219.77c0.023438 4.4727-3.5859 8.1172-8.0586 8.1406-4.4727 0.023438-8.1172-3.5859-8.1406-8.0586-0.023437-4.4727 3.5859-8.1172 8.0586-8.1406 4.4727-0.023438 8.1172 3.5859 8.1406 8.0586z"/>
 <path d="m802.98 193.17c0.019531 4.4727-3.5859 8.1211-8.0586 8.1445-4.4766 0.023438-8.1211-3.5859-8.1445-8.0586-0.023438-4.4727 3.5859-8.1211 8.0586-8.1445 4.4727-0.023437 8.1211 3.5859 8.1445 8.0586z"/>
 <path d="m806.36 330.09c0.023437 4.4727-3.5859 8.1211-8.0586 8.1445-4.4727 0.023438-8.1172-3.5859-8.1406-8.0586-0.023437-4.4727 3.582-8.1211 8.0586-8.1445 4.4727-0.023437 8.1172 3.5859 8.1406 8.0586z"/>
 <path d="m779.9 371.59c0.023437 4.4766-3.5859 8.1211-8.0586 8.1445-4.4727 0.019531-8.1172-3.5859-8.1406-8.0586-0.023437-4.4766 3.5859-8.1211 8.0586-8.1445 4.4727-0.019531 8.1172 3.5859 8.1406 8.0586z"/>
 <path d="m839 363.2c0.023438 4.4727-3.5859 8.1172-8.0586 8.1406s-8.1172-3.582-8.1406-8.0547c-0.023437-4.4766 3.582-8.1211 8.0547-8.1445 4.4766-0.023437 8.1211 3.5859 8.1445 8.0586z"/>
 <path d="m999.82 330.02c0.023438 4.4727-3.582 8.1172-8.0586 8.1406-4.4727 0.023438-8.1172-3.5859-8.1406-8.0586-0.023438-4.4727 3.5859-8.1172 8.0586-8.1406 4.4727-0.023438 8.1172 3.582 8.1406 8.0586z"/>
 <path d="m981.58 273.88c0.023438 4.4727-3.5859 8.1172-8.0586 8.1406-4.4727 0.023437-8.1211-3.582-8.1445-8.0547-0.023437-4.4766 3.5859-8.1211 8.0586-8.1445 4.4727-0.023438 8.1211 3.5859 8.1445 8.0586z"/>
 <path d="m890.34 280.07c0.023437 4.4727-3.5859 8.1172-8.0586 8.1406-4.4727 0.023437-8.1172-3.5859-8.1406-8.0586s3.582-8.1172 8.0586-8.1406c4.4727-0.023438 8.1172 3.582 8.1406 8.0586z"/>
 <path d="m926.65 242.7c0.023437 4.4727-3.582 8.1172-8.0547 8.1406-4.4766 0.023438-8.1211-3.5859-8.1445-8.0586s3.5859-8.1172 8.0586-8.1406c4.4727-0.023437 8.1172 3.582 8.1406 8.0586z"/>
 <path d="m967.59 378.73c0.023437 4.4727-3.5859 8.1172-8.0586 8.1406-4.4766 0.023437-8.1211-3.5859-8.1445-8.0586-0.019531-4.4727 3.5859-8.1172 8.0625-8.1406 4.4727-0.023438 8.1172 3.5859 8.1406 8.0586z"/>
 <path d="m1033.9 400.75c0.023437 4.4727-3.5859 8.1211-8.0586 8.1445-4.4727 0.023438-8.1172-3.5859-8.1406-8.0586-0.023437-4.4727 3.582-8.1211 8.0586-8.1445 4.4727-0.023437 8.1172 3.5859 8.1406 8.0586z"/>
 <path d="m1009.1 439.69c0.023438 4.4727-3.582 8.1172-8.0547 8.1406-4.4766 0.023438-8.1211-3.582-8.1445-8.0586-0.023438-4.4727 3.5859-8.1172 8.0586-8.1406 4.4727-0.023437 8.1211 3.5859 8.1406 8.0586z"/>
 <path d="m892.13 616.3c0.019532 4.4727-3.5859 8.1172-8.0586 8.1406-4.4766 0.023438-8.1211-3.5859-8.1445-8.0586-0.023438-4.4727 3.5859-8.1172 8.0586-8.1406 4.4766-0.023438 8.1211 3.5859 8.1445 8.0586z"/>
 <path d="m872.91 638.23c0.023438 4.4727-3.5859 8.1172-8.0586 8.1406-4.4727 0.023437-8.1172-3.5859-8.1406-8.0586-0.023437-4.4727 3.5859-8.1172 8.0586-8.1406 4.4727-0.023438 8.1172 3.5859 8.1406 8.0586z"/>
 <path d="m807.83 607.62c0.023437 4.4727-3.5859 8.1172-8.0586 8.1406-4.4727 0.023438-8.1172-3.5859-8.1406-8.0586-0.023437-4.4727 3.5859-8.1172 8.0586-8.1406 4.4727-0.023438 8.1172 3.5859 8.1406 8.0586z"/>
 <path d="m827.88 546.45c0.023438 4.4766-3.5859 8.1211-8.0586 8.1445-4.4727 0.023437-8.1172-3.5859-8.1406-8.0586-0.023437-4.4727 3.582-8.1172 8.0547-8.1406 4.4766-0.023437 8.1211 3.582 8.1445 8.0547z"/>
 <path d="m844.82 505.72c0.023437 4.4727-3.582 8.1172-8.0547 8.1406-4.4766 0.023437-8.1211-3.5859-8.1445-8.0586-0.023438-4.4727 3.5859-8.1172 8.0586-8.1406 4.4727-0.023437 8.1172 3.582 8.1406 8.0586z"/>
 <path d="m968.02 465.03c0.023438 4.4727-3.5859 8.1172-8.0586 8.1406-4.4727 0.023437-8.1172-3.582-8.1406-8.0547-0.023437-4.4766 3.582-8.1211 8.0586-8.1445 4.4727-0.023437 8.1172 3.5859 8.1406 8.0586z"/>
 <path d="m942.54 590.77c0.023438 4.4727-3.5859 8.1211-8.0586 8.1445-4.4727 0.023437-8.1172-3.5859-8.1406-8.0586-0.023438-4.4727 3.582-8.1211 8.0586-8.1445 4.4727-0.023438 8.1172 3.5859 8.1406 8.0586z"/>
 <path d="m1027.3 565.11c0.023437 4.4766-3.5859 8.1211-8.0586 8.1445-4.4727 0.023438-8.1172-3.5859-8.1406-8.0586-0.023437-4.4727 3.582-8.1172 8.0586-8.1406 4.4727-0.023438 8.1172 3.582 8.1406 8.0547z"/>
 <path d="m1075.1 502.07c0.023437 4.4727-3.582 8.1211-8.0547 8.1406-4.4766 0.023437-8.1211-3.582-8.1445-8.0547-0.023438-4.4766 3.5859-8.1211 8.0586-8.1445 4.4727-0.023438 8.1172 3.5859 8.1406 8.0586z"/>
 <path d="m1093.2 413.79c0.023438 4.4727-3.582 8.1172-8.0547 8.1406-4.4766 0.023438-8.1211-3.582-8.1445-8.0586-0.023437-4.4727 3.5859-8.1172 8.0586-8.1406 4.4727-0.023437 8.1172 3.5859 8.1406 8.0586z"/>
 <path d="m1094.6 668.98c0.023438 4.4727-3.582 8.1211-8.0586 8.1445-4.4727 0.023438-8.1172-3.5859-8.1406-8.0586-0.023438-4.4727 3.582-8.1211 8.0547-8.1445 4.4766-0.023437 8.1211 3.5859 8.1445 8.0586z"/>
 <path d="m977.34 695.92c0.023437 4.4727-3.582 8.1172-8.0547 8.1406-4.4766 0.023438-8.1211-3.582-8.1445-8.0547-0.023437-4.4766 3.582-8.1211 8.0586-8.1445 4.4727-0.023437 8.1172 3.582 8.1406 8.0586z"/>
 <path d="m982.18 656.2c0.023438 4.4727-3.582 8.1211-8.0547 8.1445-4.4766 0.023438-8.1211-3.5859-8.1445-8.0586-0.023437-4.4727 3.582-8.1172 8.0586-8.1406 4.4727-0.027343 8.1172 3.582 8.1406 8.0547z"/>
 <path d="m865.14 707.03c0.023437 4.4727-3.5859 8.1172-8.0586 8.1406-4.4727 0.023437-8.1172-3.582-8.1406-8.0547-0.023437-4.4727 3.582-8.1211 8.0547-8.1445 4.4727-0.023437 8.1211 3.5859 8.1445 8.0586z"/>
 <path d="m794.14 674c0.019531 4.4727-3.5859 8.1172-8.0586 8.1406-4.4766 0.023437-8.1211-3.5859-8.1445-8.0586-0.019531-4.4727 3.5859-8.1172 8.0586-8.1406 4.4766-0.023437 8.1211 3.5859 8.1445 8.0586z"/>
 <path d="m825.48 761.98c0.023438 4.4727-3.5859 8.1211-8.0586 8.1445-4.4727 0.023438-8.1211-3.5859-8.1445-8.0586-0.023438-4.4727 3.5859-8.1172 8.0586-8.1445 4.4727-0.023437 8.1172 3.5859 8.1445 8.0586z"/>
 <path d="m782.12 791.69c0.023437 4.4727-3.5859 8.1172-8.0586 8.1406s-8.1172-3.5859-8.1406-8.0586c-0.023438-4.4766 3.5859-8.1211 8.0586-8.1406 4.4727-0.023437 8.1172 3.582 8.1406 8.0586z"/>
 <path d="m719.73 673.03c0.023437 4.4727-3.5859 8.1172-8.0586 8.1406-4.4727 0.023437-8.1172-3.5859-8.1406-8.0586s3.5859-8.1172 8.0586-8.1406 8.1172 3.5859 8.1406 8.0586z"/>
 <path d="m833.01 652.43c0.023437 4.4727-3.5859 8.1211-8.0586 8.1445s-8.1172-3.5859-8.1406-8.0586c-0.023438-4.4727 3.582-8.1172 8.0547-8.1445 4.4727-0.023438 8.1211 3.5859 8.1445 8.0586z"/>
 <path d="m993.79 730.27c0.023437 4.4727-3.582 8.1172-8.0547 8.1406-4.4766 0.023438-8.1211-3.582-8.1445-8.0547-0.023438-4.4766 3.582-8.1211 8.0586-8.1445 4.4727-0.023437 8.1172 3.5859 8.1406 8.0586z"/>
 <path d="m970.32 761.21c0.023438 4.4727-3.5859 8.1172-8.0586 8.1406-4.4727 0.023437-8.1211-3.5859-8.1406-8.0586-0.023438-4.4766 3.582-8.1211 8.0586-8.1406 4.4727-0.023438 8.1172 3.582 8.1406 8.0586z"/>
 <path d="m893.2 823.42c0.023438 4.4766-3.5859 8.1211-8.0586 8.1445-4.4727 0.023438-8.1211-3.582-8.1445-8.0586-0.023438-4.4727 3.5859-8.1172 8.0586-8.1406 4.4727-0.023438 8.1172 3.582 8.1445 8.0547z"/>
 <path d="m1043.2 782.25c0.023437 4.4727-3.5859 8.1211-8.0586 8.1445-4.4727 0.023438-8.1211-3.5859-8.1445-8.0586-0.023437-4.4727 3.5859-8.1172 8.0586-8.1406 4.4727-0.027343 8.1211 3.582 8.1445 8.0547z"/>
 <path d="m1073.9 746.64c0.023438 4.4727-3.582 8.1211-8.0547 8.1445-4.4766 0.023438-8.1211-3.5859-8.1445-8.0586-0.023438-4.4727 3.582-8.1172 8.0586-8.1445 4.4727-0.023438 8.1172 3.5859 8.1406 8.0586z"/>
 <path d="m1065.4 663.84c0.023437 4.4766-3.5859 8.1211-8.0586 8.1445-4.4766 0.019531-8.1211-3.5859-8.1406-8.0586-0.023437-4.4766 3.582-8.1211 8.0586-8.1445 4.4727-0.019531 8.1172 3.5859 8.1406 8.0586z"/>
 <path d="m1116.8 627.06c0.019531 4.4727-3.5859 8.1172-8.0586 8.1406-4.4766 0.023437-8.1211-3.5859-8.1445-8.0586-0.019531-4.4727 3.5859-8.1172 8.0586-8.1406 4.4766-0.023438 8.1211 3.5859 8.1445 8.0586z"/>
 <path d="m1017.3 659.57c0.023437 4.4727-3.582 8.1172-8.0586 8.1406-4.4727 0.023437-8.1172-3.5859-8.1406-8.0586s3.5859-8.1211 8.0586-8.1406c4.4727-0.023438 8.1211 3.582 8.1406 8.0586z"/>
 <path d="m1001.9 611.01c0.023438 4.4727-3.5859 8.1172-8.0586 8.1445-4.4727 0.023437-8.1211-3.5859-8.1445-8.0586-0.023437-4.4727 3.5859-8.1211 8.0586-8.1445 4.4727-0.023438 8.1211 3.5859 8.1445 8.0586z"/>
 <path d="m934.6 687.7c0.023438 4.4727-3.582 8.1172-8.0547 8.1406-4.4766 0.023438-8.1211-3.582-8.1445-8.0547-0.023438-4.4727 3.582-8.1211 8.0586-8.1445 4.4727-0.023437 8.1172 3.5859 8.1406 8.0586z"/>
 <path d="m786.98 854.86c0.023437 4.4727-3.5859 8.1172-8.0586 8.1406-4.4727 0.023437-8.1211-3.5859-8.1406-8.0586-0.023438-4.4727 3.582-8.1211 8.0586-8.1406 4.4727-0.023437 8.1172 3.582 8.1406 8.0586z"/>
 <path d="m832.84 823.73c0.023438 4.4727-3.582 8.1172-8.0586 8.1406-4.4727 0.023438-8.1172-3.5859-8.1406-8.0586-0.023437-4.4727 3.5859-8.1172 8.0586-8.1406 4.4766-0.023437 8.1211 3.5859 8.1406 8.0586z"/>
 <path d="m876.21 785.6c0.023437 4.4727-3.582 8.1211-8.0586 8.1445-4.4727 0.023437-8.1172-3.5859-8.1406-8.0586s3.582-8.1172 8.0547-8.1406c4.4766-0.027344 8.1211 3.582 8.1445 8.0547z"/>
 <path d="m749.92 811.41c0.023437 4.4727-3.5859 8.1211-8.0586 8.1406-4.4727 0.023437-8.1172-3.582-8.1406-8.0586-0.023437-4.4727 3.5859-8.1172 8.0586-8.1406 4.4727-0.023438 8.1172 3.5859 8.1406 8.0586z"/>
 <path d="m750.34 892.96c0.023438 4.4727-3.5859 8.1211-8.0586 8.1445s-8.1172-3.5859-8.1406-8.0586c-0.023437-4.4727 3.582-8.1172 8.0547-8.1406 4.4766-0.023437 8.1211 3.582 8.1445 8.0547z"/>
 <path d="m826.56 969.79c0.023437 4.4727-3.5859 8.1172-8.0586 8.1406-4.4727 0.023437-8.1172-3.5859-8.1406-8.0586s3.5859-8.1172 8.0586-8.1406c4.4727-0.023438 8.1172 3.5859 8.1406 8.0586z"/>
 <path d="m877.69 1077.6c0.023438 4.4766-3.582 8.1211-8.0586 8.1445-4.4727 0.019531-8.1172-3.5859-8.1406-8.0586-0.023438-4.4766 3.5859-8.1211 8.0586-8.1445 4.4766-0.019531 8.1211 3.5859 8.1406 8.0586z"/>
 <path d="m893.81 1046.6c0.023437 4.4766-3.5859 8.1211-8.0586 8.1445-4.4727 0.019531-8.1172-3.5859-8.1406-8.0586-0.023437-4.4766 3.5859-8.1211 8.0586-8.1445 4.4727-0.019532 8.1172 3.5859 8.1406 8.0586z"/>
 <path d="m712.64 865.07c0.019531 4.4727-3.5859 8.1172-8.0586 8.1406-4.4766 0.023437-8.1211-3.5859-8.1445-8.0586-0.019531-4.4766 3.5859-8.1211 8.0586-8.1406 4.4766-0.023438 8.1211 3.582 8.1445 8.0586z"/>
 <path d="m740.65 649.34c0.023437 4.4727-3.5859 8.1211-8.0586 8.1406-4.4727 0.023437-8.1172-3.582-8.1406-8.0586-0.023437-4.4727 3.5859-8.1172 8.0586-8.1406 4.4727-0.023438 8.1172 3.5859 8.1406 8.0586z"/>
 <path d="m891.43 591.03c0.023437 4.4727-3.5859 8.1211-8.0586 8.1406-4.4727 0.023437-8.1172-3.582-8.1406-8.0586-0.023437-4.4727 3.5859-8.1172 8.0586-8.1406 4.4727-0.023438 8.1172 3.5859 8.1406 8.0586z"/>
 <path d="m968.32 518.86c0.023437 4.4727-3.5859 8.1172-8.0586 8.1406s-8.1211-3.582-8.1445-8.0586c-0.023438-4.4727 3.5859-8.1172 8.0586-8.1406 4.4727-0.023437 8.1211 3.5859 8.1445 8.0586z"/>
 <path d="m1008.5 527.3c0.023437 4.4727-3.582 8.1211-8.0547 8.1445-4.4766 0.023438-8.1211-3.5859-8.1445-8.0586-0.023438-4.4727 3.5859-8.1211 8.0586-8.1445 4.4727-0.023438 8.1211 3.5859 8.1406 8.0586z"/>
 <path d="m1093.8 526.17c0.023437 4.4727-3.5859 8.1172-8.0586 8.1406-4.4727 0.023437-8.1211-3.5859-8.1406-8.0586-0.023438-4.4727 3.582-8.1172 8.0547-8.1406 4.4766-0.023437 8.1211 3.582 8.1445 8.0586z"/>
 <path d="m1056.9 447.59c0.023437 4.4727-3.5859 8.1172-8.0586 8.1406-4.4727 0.023438-8.1211-3.582-8.1445-8.0547-0.023438-4.4766 3.5859-8.1211 8.0586-8.1445 4.4727-0.023438 8.1211 3.5859 8.1445 8.0586z"/>
 <path d="m1059.3 362.06c0.023437 4.4727-3.5859 8.1172-8.0586 8.1406s-8.1172-3.582-8.1406-8.0547c-0.023438-4.4766 3.582-8.1211 8.0586-8.1445 4.4727-0.023437 8.1172 3.5859 8.1406 8.0586z"/>
 <path d="m882.36 454.55c0.019531 4.4727-3.5859 8.1211-8.0625 8.1406-4.4727 0.023438-8.1172-3.582-8.1406-8.0586-0.023438-4.4727 3.5859-8.1172 8.0586-8.1406 4.4766-0.023438 8.1211 3.5859 8.1445 8.0586z"/>
 <path d="m705.07 426.32c0.023437 4.4766-3.582 8.1211-8.0586 8.1445-4.4727 0.023438-8.1172-3.5859-8.1406-8.0586s3.5859-8.1172 8.0586-8.1406c4.4727-0.023437 8.1172 3.582 8.1406 8.0547z"/>
 <path d="m585.27 775.18c0.023437 4.4727-3.5859 8.1211-8.0586 8.1445-4.4727 0.023437-8.1172-3.5859-8.1445-8.0586-0.023437-4.4727 3.5859-8.1211 8.0586-8.1445 4.4727-0.023438 8.1211 3.5859 8.1445 8.0586z"/>
 <path d="m475.25 646.18c0.023438 4.4727-3.5859 8.1211-8.0586 8.1406-4.4727 0.023437-8.1172-3.582-8.1406-8.0586-0.023437-4.4727 3.5859-8.1172 8.0586-8.1406s8.1172 3.5859 8.1406 8.0586z"/>
 <path d="m365.89 411.59c0.023437 4.4727-3.5859 8.1172-8.0586 8.1406-4.4727 0.023437-8.1172-3.5859-8.1406-8.0586-0.023437-4.4727 3.582-8.1172 8.0586-8.1406 4.4727-0.023437 8.1172 3.582 8.1406 8.0586z"/>
 <path d="m282.03 560.86c0.023437 4.4766-3.5859 8.1211-8.0586 8.1445s-8.1172-3.5859-8.1406-8.0586 3.582-8.1172 8.0586-8.1406c4.4727-0.023437 8.1172 3.582 8.1406 8.0547z"/>
 <path d="m267.07 366.14c0.023438 4.4727-3.582 8.1172-8.0547 8.1406-4.4766 0.023438-8.1211-3.582-8.1445-8.0586-0.023438-4.4727 3.5859-8.1172 8.0586-8.1406 4.4727-0.023437 8.1172 3.5859 8.1406 8.0586z"/>
 <path d="m100.96 498.99c0.023437 4.4727-3.5859 8.1172-8.0586 8.1406-4.4727 0.023438-8.1172-3.582-8.1406-8.0547-0.023437-4.4766 3.582-8.1211 8.0586-8.1445 4.4727-0.023438 8.1172 3.5859 8.1406 8.0586z"/>
 <path d="m190.88 640.01c0.023438 4.4727-3.5859 8.1172-8.0586 8.1406-4.4727 0.023437-8.1172-3.582-8.1406-8.0547-0.023437-4.4766 3.582-8.1211 8.0547-8.1445 4.4727-0.023437 8.1211 3.582 8.1445 8.0586z"/>
 <path d="m690.35 162.06c0.023438 4.4727-3.5859 8.1172-8.0586 8.1406-4.4727 0.023437-8.1211-3.582-8.1445-8.0586-0.023437-4.4727 3.5859-8.1172 8.0586-8.1406 4.4727-0.023437 8.1211 3.5859 8.1445 8.0586z"/>
 <path d="m510.98 228.66c0.023437 4.4727-3.582 8.1172-8.0586 8.1406-4.4727 0.023437-8.1172-3.582-8.1406-8.0586-0.023438-4.4727 3.5859-8.1172 8.0586-8.1406 4.4727-0.023438 8.1172 3.5859 8.1406 8.0586z"/>
 <path d="m630.36 236.09c0.023437 4.4727-3.5859 8.1172-8.0586 8.1406-4.4727 0.023437-8.1172-3.582-8.1406-8.0547-0.023437-4.4766 3.582-8.1211 8.0586-8.1445 4.4727-0.023438 8.1172 3.5859 8.1406 8.0586z"/>
 <path d="m780.15 414.41c0.023437 4.4727-3.5859 8.1172-8.0586 8.1406-4.4727 0.023438-8.1172-3.582-8.1406-8.0586-0.023438-4.4727 3.582-8.1172 8.0547-8.1406 4.4766-0.023437 8.1211 3.5859 8.1445 8.0586z"/>
 <path d="m1091 702.52c0.023437 4.4766-3.5859 8.1211-8.0586 8.1445-4.4727 0.019532-8.1172-3.5859-8.1406-8.0586-0.023437-4.4766 3.5859-8.1211 8.0586-8.1445 4.4727-0.019531 8.1172 3.5859 8.1406 8.0586z"/>
 <path d="m1018.1 810.04c0.023438 4.4727-3.5859 8.1172-8.0586 8.1406-4.4727 0.023437-8.1172-3.582-8.1406-8.0547-0.027343-4.4766 3.582-8.1211 8.0547-8.1445s8.1211 3.582 8.1445 8.0586z"/>
 <path d="m921.86 872.39c0.023437 4.4727-3.5859 8.1211-8.0586 8.1406-4.4727 0.023438-8.1172-3.582-8.1406-8.0586-0.023437-4.4727 3.5859-8.1172 8.0586-8.1406 4.4727-0.023438 8.1172 3.5859 8.1406 8.0586z"/>
 <path d="m781.89 748.16c0.019531 4.4766-3.5859 8.1211-8.0625 8.1445-4.4727 0.019531-8.1172-3.5859-8.1406-8.0586-0.023438-4.4766 3.5859-8.1211 8.0586-8.1445 4.4766-0.019531 8.1211 3.5859 8.1445 8.0586z"/>
 <path d="m926.83 747.4c0.023437 4.4727-3.5859 8.1172-8.0586 8.1406-4.4766 0.023437-8.1211-3.5859-8.1445-8.0586-0.019531-4.4727 3.5859-8.1211 8.0586-8.1406 4.4766-0.023438 8.1211 3.582 8.1445 8.0586z"/>
 <path d="m632.68 679.46c0.023438 4.4727-3.582 8.1172-8.0586 8.1406-4.4727 0.023437-8.1172-3.5859-8.1406-8.0586-0.023437-4.4727 3.5859-8.1172 8.0586-8.1406s8.1172 3.5859 8.1406 8.0586z"/>
 <path d="m728.96 893.08c0.023437 4.4727-3.5859 8.1211-8.0586 8.1445-4.4727 0.023438-8.1172-3.5859-8.1406-8.0586-0.027344-4.4727 3.582-8.1172 8.0547-8.1406 4.4727-0.027344 8.1211 3.582 8.1445 8.0547z"/>
 <path d="m787.51 961.58c0.023437 4.4727-3.5859 8.1211-8.0586 8.1445-4.4727 0.023438-8.1172-3.5859-8.1406-8.0586-0.023438-4.4727 3.582-8.1172 8.0547-8.1406 4.4727-0.023438 8.1211 3.582 8.1445 8.0547z"/>
 <path d="m809.83 993.75c0.023437 4.4727-3.582 8.1172-8.0547 8.1406-4.4766 0.023438-8.1211-3.582-8.1445-8.0547-0.023437-4.4766 3.582-8.1211 8.0586-8.1445 4.4727-0.023437 8.1172 3.582 8.1406 8.0586z"/>
 <path d="m852.43 949.99c0.023437 4.4727-3.5859 8.1172-8.0586 8.1406-4.4727 0.023438-8.1211-3.5859-8.1406-8.0586-0.023437-4.4727 3.582-8.1172 8.0586-8.1406 4.4727-0.023438 8.1172 3.5859 8.1406 8.0586z"/>
 <path d="m882.32 892.27c0.023438 4.4727-3.582 8.1172-8.0547 8.1406-4.4727 0.023438-8.1211-3.582-8.1445-8.0547-0.023438-4.4727 3.5859-8.1211 8.0586-8.1445 4.4727-0.023438 8.1172 3.5859 8.1406 8.0586z"/>
 <path d="m940.4 891.96c0.023437 4.4727-3.5859 8.1172-8.0586 8.1406-4.4727 0.023438-8.1211-3.5859-8.1406-8.0586-0.023437-4.4727 3.582-8.1211 8.0586-8.1406 4.4727-0.023438 8.1172 3.582 8.1406 8.0586z"/>
 <path d="m969.96 830.73c0.023438 4.4727-3.5859 8.1172-8.0586 8.1406-4.4727 0.023437-8.1211-3.5859-8.1406-8.0586-0.023437-4.4727 3.582-8.1172 8.0586-8.1406 4.4727-0.023437 8.1172 3.5859 8.1406 8.0586z"/>
 <path d="m932.07 854.12c0.023437 4.4766-3.582 8.1211-8.0547 8.1445-4.4766 0.023437-8.1211-3.582-8.1445-8.0586-0.023438-4.4727 3.582-8.1172 8.0586-8.1406 4.4727-0.023438 8.1172 3.582 8.1406 8.0547z"/>
 <path d="m786.79 819.33c0.023438 4.4766-3.582 8.1211-8.0586 8.1445-4.4727 0.023438-8.1172-3.5859-8.1406-8.0586-0.023438-4.4766 3.5859-8.1211 8.0586-8.1445 4.4727-0.019532 8.1172 3.5859 8.1406 8.0586z"/>
 <path d="m658.38 160.5c0.023438 4.4766-3.5859 8.1211-8.0586 8.1445-4.4727 0.023438-8.1172-3.5859-8.1406-8.0586-0.023438-4.4727 3.582-8.1211 8.0586-8.1406 4.4727-0.023437 8.1172 3.582 8.1406 8.0547z"/>
 <path d="m557.83 267.97c0.023437 4.4727-3.5859 8.1211-8.0586 8.1445-4.4727 0.019531-8.1172-3.5859-8.1406-8.0586-0.023437-4.4766 3.582-8.1211 8.0547-8.1445 4.4766-0.023437 8.1211 3.5859 8.1445 8.0586z"/>
 <path d="m630.53 267.57c0.023437 4.4727-3.5859 8.1172-8.0586 8.1406-4.4727 0.023438-8.1172-3.582-8.1406-8.0586-0.023437-4.4727 3.582-8.1172 8.0586-8.1406 4.4727-0.023437 8.1172 3.5859 8.1406 8.0586z"/>
 <path d="m631.19 394.75c0.023438 4.4727-3.582 8.1172-8.0547 8.1406-4.4766 0.023437-8.1211-3.5859-8.1445-8.0586-0.023437-4.4727 3.5859-8.1172 8.0586-8.1406s8.1172 3.582 8.1406 8.0586z"/>
 <path d="m667.82 424.09c0.023437 4.4727-3.582 8.1172-8.0547 8.1406-4.4766 0.023438-8.1211-3.582-8.1445-8.0586-0.023438-4.4727 3.5859-8.1172 8.0586-8.1406 4.4727-0.023438 8.1211 3.5859 8.1406 8.0586z"/>
 <path d="m673.16 464.79c0.023438 4.4727-3.5859 8.1172-8.0586 8.1406-4.4727 0.023437-8.1211-3.5859-8.1445-8.0586s3.5859-8.1172 8.0586-8.1406c4.4727-0.023438 8.1211 3.582 8.1445 8.0586z"/>
 <path d="m642.38 489.5c0.023438 4.4766-3.5859 8.1211-8.0586 8.1445s-8.1211-3.5859-8.1445-8.0586c-0.023437-4.4727 3.5859-8.1211 8.0586-8.1445 4.4727-0.019531 8.1211 3.5859 8.1445 8.0586z"/>
 <path d="m669.11 665.93c0.023437 4.4766-3.5859 8.1211-8.0586 8.1445-4.4727 0.023437-8.1172-3.582-8.1406-8.0586-0.023438-4.4727 3.582-8.1172 8.0547-8.1406 4.4727-0.023438 8.1211 3.582 8.1445 8.0547z"/>
 <path d="m600.29 660.65c0.023438 4.4727-3.5859 8.1172-8.0586 8.1406-4.4766 0.023438-8.1211-3.582-8.1406-8.0586-0.023438-4.4727 3.582-8.1172 8.0586-8.1406 4.4727-0.023438 8.1172 3.5859 8.1406 8.0586z"/>
 <path d="m632.9 724.04c0.023437 4.4766-3.582 8.1211-8.0547 8.1445-4.4766 0.023437-8.1211-3.582-8.1445-8.0586-0.023438-4.4727 3.582-8.1172 8.0586-8.1406 4.4727-0.023438 8.1172 3.582 8.1406 8.0547z"/>
 <path d="m684.03 832.23c0.023438 4.4727-3.5859 8.1172-8.0586 8.1406s-8.1172-3.582-8.1445-8.0547c-0.023437-4.4727 3.5859-8.1211 8.0586-8.1445 4.4727-0.023437 8.1211 3.5859 8.1445 8.0586z"/>
 <path d="m624.04 576.29c0.023438 4.4727-3.5859 8.1211-8.0586 8.1445-4.4727 0.023438-8.1172-3.5859-8.1406-8.0586-0.023438-4.4727 3.582-8.1211 8.0586-8.1445 4.4727-0.023437 8.1172 3.5859 8.1406 8.0586z"/>
 <path d="m436.45 545c0.019531 4.4727-3.5859 8.1172-8.0625 8.1406-4.4727 0.023437-8.1172-3.5859-8.1406-8.0586s3.5859-8.1172 8.0586-8.1406c4.4766-0.023438 8.1211 3.5859 8.1445 8.0586z"/>
</svg>
