<?xml version="1.0" encoding="UTF-8"?>
<svg width="1200pt" height="1200pt" version="1.1" viewBox="0 0 1200 1200" xmlns="http://www.w3.org/2000/svg">
 <path d="m1050.8 62.109h-901.69c-48 0-87.047 39.047-87.047 87.047v901.69c0 48 39.047 87.047 87.047 87.047h901.69c48 0 87.047-39.047 87.047-87.047v-901.69c0-48-39.047-87.047-87.047-87.047zm-901.69 33.75h901.69c29.391 0 53.297 23.906 53.297 53.297v92.859h-1008.3v-92.859c0-29.391 23.906-53.297 53.297-53.297zm901.69 1008.3h-901.69c-29.391 0-53.297-23.906-53.297-53.297v-775.08h1008.3v775.08c0 29.391-23.906 53.297-53.297 53.297zm-874.31-892.97c23.297 0 42.234-18.938 42.234-42.234s-18.938-42.234-42.234-42.234-42.234 18.938-42.234 42.234 18.938 42.234 42.234 42.234zm0-50.719c4.6875 0 8.4844 3.7969 8.4844 8.4844s-3.7969 8.4844-8.4844 8.4844-8.4844-3.7969-8.4844-8.4844 3.7969-8.4844 8.4844-8.4844zm92.953 50.719c23.297 0 42.234-18.938 42.234-42.234s-18.938-42.234-42.234-42.234-42.234 18.938-42.234 42.234 18.938 42.234 42.234 42.234zm0-50.719c4.6875 0 8.4844 3.7969 8.4844 8.4844s-3.7969 8.4844-8.4844 8.4844-8.4844-3.7969-8.4844-8.4844 3.7969-8.4844 8.4844-8.4844zm426.32 8.4844c0-9.3281 7.5469-16.875 16.875-16.875h305.44c9.3281 0 16.875 7.5469 16.875 16.875s-7.5469 16.875-16.875 16.875h-305.44c-9.3281 0-16.875-7.5469-16.875-16.875zm-333.37 42.234c23.297 0 42.234-18.938 42.234-42.234s-18.938-42.234-42.234-42.234-42.234 18.938-42.234 42.234 18.938 42.234 42.234 42.234zm0-50.719c4.6875 0 8.4844 3.7969 8.4844 8.4844s-3.7969 8.4844-8.4844 8.4844-8.4844-3.7969-8.4844-8.4844 3.7969-8.4844 8.4844-8.4844zm691.92 148.22h-908.72c-9.3281 0-16.875 7.5469-16.875 16.875v728.81c0 9.3281 7.5469 16.875 16.875 16.875h908.72c9.3281 0 16.875-7.5469 16.875-16.875v-728.81c0-9.3281-7.5469-16.875-16.875-16.875zm-891.84 33.75h420.61v695.06h-420.61zm874.97 695.06h-420.61v-695.06h420.61zm-494.21-531.1h-10.5c-3.4219-11.859-8.1562-23.25-14.156-34.078l7.4062-7.4062c8.8125-8.8125 8.8125-23.203 0-32.016l-33.422-33.422c-4.2656-4.2656-9.9375-6.6094-16.031-6.6094-6.0469 0-11.719 2.3438-16.031 6.6094l-7.4531 7.4531c-10.828-6-22.219-10.734-34.078-14.156v-10.5c0-12.469-10.172-22.641-22.641-22.641h-47.297c-12.469 0-22.641 10.172-22.641 22.641v10.5c-11.859 3.4219-23.25 8.1562-34.078 14.156l-7.4062-7.4062c-4.2656-4.2656-9.9375-6.6094-16.031-6.6094-6.0469 0-11.719 2.3438-16.031 6.6094l-33.422 33.422c-8.8125 8.8125-8.8125 23.203 0 32.016l7.4062 7.4062c-6 10.828-10.734 22.219-14.156 34.078h-10.5c-12.469 0-22.641 10.172-22.641 22.641v47.297c0 12.469 10.172 22.641 22.641 22.641h10.5c3.4219 11.859 8.1562 23.25 14.156 34.078l-7.4062 7.4062c-8.8125 8.8125-8.8125 23.203 0 32.016l33.422 33.422c4.2656 4.2656 9.9375 6.6094 16.031 6.6094 6.0469 0 11.719-2.3438 16.031-6.6094l7.4062-7.4062c10.828 6 22.219 10.734 34.078 14.156v10.5c0 12.469 10.172 22.641 22.641 22.641h47.297c12.469 0 22.641-10.172 22.641-22.641v-10.5c11.859-3.4219 23.25-8.1562 34.078-14.156l7.4062 7.4062c4.2656 4.2656 9.9375 6.6094 16.031 6.6094 6.0469 0 11.719-2.3438 16.031-6.6094l33.422-33.422c8.8125-8.8125 8.8125-23.203 0-32.016l-7.4062-7.4062c6-10.828 10.734-22.219 14.156-34.078h10.5c12.469 0 22.641-10.172 22.641-22.641v-47.297c0-12.469-10.172-22.641-22.641-22.641zm-11.109 58.781h-12.656c-8.0625 0-14.953 5.6719-16.547 13.594-3.375 17.016-10.031 33-19.688 47.438-4.4531 6.7031-3.6094 15.609 2.1094 21.281l8.9531 8.9531-17.719 17.719-8.9531-8.9531c-5.6719-5.6719-14.625-6.5625-21.281-2.1094-14.484 9.6562-30.422 16.266-47.438 19.688-7.875 1.5938-13.594 8.5312-13.594 16.547v12.656h-25.078v-12.656c0-8.0625-5.6719-14.953-13.594-16.547-17.016-3.375-32.953-10.031-47.438-19.688-6.7031-4.4531-15.609-3.6094-21.281 2.1094l-8.9531 8.9531-17.719-17.719 8.9531-8.9531c5.6719-5.6719 6.5625-14.625 2.1094-21.281-9.6562-14.484-16.266-30.422-19.688-47.438-1.5938-7.875-8.5312-13.594-16.547-13.594h-12.656v-25.078h12.656c8.0625 0 14.953-5.6719 16.547-13.594 3.375-17.016 10.031-32.953 19.688-47.438 4.4531-6.7031 3.6094-15.609-2.1094-21.281l-8.9531-8.9531 17.719-17.719 8.9531 8.9531c5.6719 5.6719 14.625 6.5625 21.281 2.1094 14.484-9.6562 30.422-16.266 47.438-19.688 7.875-1.5938 13.594-8.4844 13.594-16.547v-12.656h25.078v12.656c0 8.0625 5.6719 14.953 13.594 16.547 17.016 3.375 32.953 10.031 47.438 19.688 6.7031 4.4531 15.609 3.6094 21.281-2.1094l8.9531-8.9531 17.719 17.719-8.9531 8.9531c-5.6719 5.6719-6.5625 14.625-2.1094 21.281 9.6562 14.484 16.266 30.422 19.688 47.438 1.5938 7.875 8.4844 13.594 16.547 13.594h12.656zm-159.37-132.98c-66.422 0-120.47 54.047-120.47 120.47s54.047 120.47 120.47 120.47 120.47-54.047 120.47-120.47-54.047-120.47-120.47-120.47zm0 207.19c-47.812 0-86.719-38.906-86.719-86.719s38.906-86.719 86.719-86.719 86.719 38.906 86.719 86.719-38.906 86.719-86.719 86.719zm54.516-125.39 26.484 26.812c6.4688 6.5625 6.4688 17.156 0 23.719l-26.484 26.812c-3.2812 3.3281-7.6406 5.0156-12 5.0156-4.2656 0-8.5781-1.6406-11.859-4.875-6.6562-6.5625-6.7031-17.25-0.14062-23.859l14.766-14.953-14.766-14.953c-6.5625-6.6562-6.4688-17.297 0.14062-23.859 6.6562-6.5625 17.297-6.4688 23.859 0.14062zm-85.125 77.531c-3.2812 3.2344-7.5938 4.875-11.859 4.875-4.3594 0-8.7188-1.6875-12-5.0156l-26.484-26.812c-6.4688-6.5625-6.4688-17.156 0-23.719l26.484-26.812c6.5625-6.6562 17.25-6.7031 23.859-0.14062 6.6562 6.5625 6.7031 17.25 0.14062 23.859l-14.766 14.953 14.766 14.953c6.5625 6.6562 6.4688 17.297-0.14062 23.859zm56.812-71.297-19.734 73.688c-2.0156 7.5469-8.8594 12.516-16.266 12.516-1.4531 0-2.9062-0.1875-4.3594-0.5625-9-2.3906-14.344-11.672-11.906-20.672l19.734-73.688c2.3906-9 11.672-14.344 20.672-11.906 9 2.3906 14.344 11.672 11.906 20.672zm279-49.781 92.062 144.61v93.422c0 5.9062 3.0938 11.391 8.1562 14.438 2.6719 1.5938 5.6719 2.4375 8.7188 2.4375 2.7188 0 5.3906-0.65625 7.875-1.9688l80.484-42.562c5.5312-2.9062 9-8.6719 9-14.906v-50.859l92.062-144.61c18.656-2.0625 33.188-17.906 33.188-37.078 0-20.578-16.734-37.312-37.312-37.312h-290.11c-20.578 0-37.312 16.734-37.312 37.312 0 19.172 14.531 35.016 33.188 37.078zm175.22 130.64c-1.7344 2.7188-2.625 5.8594-2.625 9.0469v45.609l-46.734 24.703v-70.359c0-3.2344-0.89063-6.375-2.625-9.0469l-83.016-130.36h218.06l-83.016 130.36zm-171.1-171.28h290.11c1.9219 0 3.5625 1.6406 3.5625 3.5625s-1.6406 3.5625-3.5625 3.5625h-290.11c-1.9219 0-3.5625-1.6406-3.5625-3.5625s1.6406-3.5625 3.5625-3.5625zm-203.39 357.52c0 9.3281-7.5469 16.875-16.875 16.875h-40.547c-9.3281 0-16.875-7.5469-16.875-16.875s7.5469-16.875 16.875-16.875h40.547c9.3281 0 16.875 7.5469 16.875 16.875zm74.297 69.188c0 9.3281-7.5469 16.875-16.875 16.875h-19.453c-9.3281 0-16.875-7.5469-16.875-16.875s7.5469-16.875 16.875-16.875h19.453c9.3281 0 16.875 7.5469 16.875 16.875zm-74.297 0c0 9.3281-7.5469 16.875-16.875 16.875h-61.641c-9.3281 0-16.875-7.5469-16.875-16.875s7.5469-16.875 16.875-16.875h61.641c9.3281 0 16.875 7.5469 16.875 16.875zm0 69.234c0 9.3281-7.5469 16.875-16.875 16.875h-40.547c-9.3281 0-16.875-7.5469-16.875-16.875s7.5469-16.875 16.875-16.875h40.547c9.3281 0 16.875 7.5469 16.875 16.875zm74.297 0c0 9.3281-7.5469 16.875-16.875 16.875h-19.453c-9.3281 0-16.875-7.5469-16.875-16.875s7.5469-16.875 16.875-16.875h19.453c9.3281 0 16.875 7.5469 16.875 16.875zm-74.297 69.188c0 9.3281-7.5469 16.875-16.875 16.875h-40.547c-9.3281 0-16.875-7.5469-16.875-16.875s7.5469-16.875 16.875-16.875h40.547c9.3281 0 16.875 7.5469 16.875 16.875zm74.297 0c0 9.3281-7.5469 16.875-16.875 16.875h-19.453c-9.3281 0-16.875-7.5469-16.875-16.875s7.5469-16.875 16.875-16.875h19.453c9.3281 0 16.875 7.5469 16.875 16.875zm0-207.61c0 9.3281-7.5469 16.875-16.875 16.875h-19.453c-9.3281 0-16.875-7.5469-16.875-16.875 0-9.3281 7.5469-16.875 16.875-16.875h19.453c9.3281 0 16.875 7.5469 16.875 16.875zm-186.52 16.875h-82.734c-9.3281 0-16.875-7.5469-16.875-16.875 0-9.3281 7.5469-16.875 16.875-16.875h82.734c9.3281 0 16.875 7.5469 16.875 16.875 0 9.3281-7.5469 16.875-16.875 16.875zm-173.9-16.875c0-9.3281 7.5469-16.875 16.875-16.875h19.453c9.3281 0 16.875 7.5469 16.875 16.875 0 9.3281-7.5469 16.875-16.875 16.875h-19.453c-9.3281 0-16.875-7.5469-16.875-16.875zm0 69.188c0-9.3281 7.5469-16.875 16.875-16.875h40.547c9.3281 0 16.875 7.5469 16.875 16.875 0 9.3281-7.5469 16.875-16.875 16.875h-40.547c-9.3281 0-16.875-7.5469-16.875-16.875zm116.48 138.42c0 9.3281-7.5469 16.875-16.875 16.875h-82.734c-9.3281 0-16.875-7.5469-16.875-16.875 0-9.3281 7.5469-16.875 16.875-16.875h82.734c9.3281 0 16.875 7.5469 16.875 16.875zm74.297-69.188c0 9.3281-7.5469 16.875-16.875 16.875h-40.547c-9.3281 0-16.875-7.5469-16.875-16.875 0-9.3281 7.5469-16.875 16.875-16.875h40.547c9.3281 0 16.875 7.5469 16.875 16.875zm-190.78 0c0-9.3281 7.5469-16.875 16.875-16.875h61.641c9.3281 0 16.875 7.5469 16.875 16.875 0 9.3281-7.5469 16.875-16.875 16.875h-61.641c-9.3281 0-16.875-7.5469-16.875-16.875zm152.81-86.109c9.3281 0 16.875 7.5469 16.875 16.875 0 9.3281-7.5469 16.875-16.875 16.875h-40.547c-9.3281 0-16.875-7.5469-16.875-16.875 0-9.3281 7.5469-16.875 16.875-16.875zm37.969 155.29c0 9.3281-7.5469 16.875-16.875 16.875h-19.453c-9.3281 0-16.875-7.5469-16.875-16.875s7.5469-16.875 16.875-16.875h19.453c9.3281 0 16.875 7.5469 16.875 16.875zm375.84-155.29h40.547c9.3281 0 16.875 7.5469 16.875 16.875 0 9.3281-7.5469 16.875-16.875 16.875h-40.547c-9.3281 0-16.875-7.5469-16.875-16.875 0-9.3281 7.5469-16.875 16.875-16.875zm173.86 86.109c0 9.3281-7.5469 16.875-16.875 16.875h-40.547c-9.3281 0-16.875-7.5469-16.875-16.875 0-9.3281 7.5469-16.875 16.875-16.875h40.547c9.3281 0 16.875 7.5469 16.875 16.875zm74.297 69.188c0 9.3281-7.5469 16.875-16.875 16.875h-19.453c-9.3281 0-16.875-7.5469-16.875-16.875 0-9.3281 7.5469-16.875 16.875-16.875h19.453c9.3281 0 16.875 7.5469 16.875 16.875zm-74.297 0c0 9.3281-7.5469 16.875-16.875 16.875h-40.547c-9.3281 0-16.875-7.5469-16.875-16.875 0-9.3281 7.5469-16.875 16.875-16.875h40.547c9.3281 0 16.875 7.5469 16.875 16.875zm-36.328-190.74c-9.3281 0-16.875-7.5469-16.875-16.875s7.5469-16.875 16.875-16.875h19.453c9.3281 0 16.875 7.5469 16.875 16.875s-7.5469 16.875-16.875 16.875zm110.62 121.55c0 9.3281-7.5469 16.875-16.875 16.875h-19.453c-9.3281 0-16.875-7.5469-16.875-16.875s7.5469-16.875 16.875-16.875h19.453c9.3281 0 16.875 7.5469 16.875 16.875zm0-138.42c0 9.3281-7.5469 16.875-16.875 16.875h-19.453c-9.3281 0-16.875-7.5469-16.875-16.875s7.5469-16.875 16.875-16.875h19.453c9.3281 0 16.875 7.5469 16.875 16.875zm0 69.188c0 9.3281-7.5469 16.875-16.875 16.875h-61.641c-9.3281 0-16.875-7.5469-16.875-16.875s7.5469-16.875 16.875-16.875h61.641c9.3281 0 16.875 7.5469 16.875 16.875zm-169.64 69.234c0 9.3281-7.5469 16.875-16.875 16.875h-82.734c-9.3281 0-16.875-7.5469-16.875-16.875s7.5469-16.875 16.875-16.875h82.734c9.3281 0 16.875 7.5469 16.875 16.875zm-36.328-121.55c-9.3281 0-16.875-7.5469-16.875-16.875s7.5469-16.875 16.875-16.875h40.547c9.3281 0 16.875 7.5469 16.875 16.875s-7.5469 16.875-16.875 16.875zm-80.156 52.312c0 9.3281-7.5469 16.875-16.875 16.875h-40.547c-9.3281 0-16.875-7.5469-16.875-16.875s7.5469-16.875 16.875-16.875h40.547c9.3281 0 16.875 7.5469 16.875 16.875zm-21.094 69.234c0 9.3281-7.5469 16.875-16.875 16.875h-19.453c-9.3281 0-16.875-7.5469-16.875-16.875s7.5469-16.875 16.875-16.875h19.453c9.3281 0 16.875 7.5469 16.875 16.875zm63.281-138.42c0 9.3281-7.5469 16.875-16.875 16.875h-82.734c-9.3281 0-16.875-7.5469-16.875-16.875s7.5469-16.875 16.875-16.875h82.734c9.3281 0 16.875 7.5469 16.875 16.875zm-63.281 207.61c0 9.3281-7.5469 16.875-16.875 16.875h-19.453c-9.3281 0-16.875-7.5469-16.875-16.875 0-9.3281 7.5469-16.875 16.875-16.875h19.453c9.3281 0 16.875 7.5469 16.875 16.875zm137.58 0c0 9.3281-7.5469 16.875-16.875 16.875h-82.734c-9.3281 0-16.875-7.5469-16.875-16.875 0-9.3281 7.5469-16.875 16.875-16.875h82.734c9.3281 0 16.875 7.5469 16.875 16.875zm36.281-121.55h-19.453c-9.3281 0-16.875-7.5469-16.875-16.875 0-9.3281 7.5469-16.875 16.875-16.875h19.453c9.3281 0 16.875 7.5469 16.875 16.875 0 9.3281-7.5469 16.875-16.875 16.875z"/>
</svg>
