<?xml version="1.0" encoding="UTF-8"?>
<svg width="1200pt" height="1200pt" version="1.1" viewBox="0 0 1200 1200" xmlns="http://www.w3.org/2000/svg">
 <path d="m495.42 748.82-201-201c-7.3125-7.3125-19.172-7.3125-26.531 0l-200.95 200.95v0.046875c-7.3594 7.3125-7.3594 19.172 0 26.531l47.719 47.719-47.719 47.719c-7.3594 7.3125-7.3594 19.219 0 26.531l200.95 200.95c3.5156 3.5156 8.2969 5.5312 13.266 5.5312s9.75-2.0156 13.266-5.5312l200.95-200.95h0.046875c3.5156-3.5156 5.4844-8.2969 5.4844-13.266s-1.9688-9.75-5.4844-13.266l-47.766-47.719 47.766-47.719c7.3125-7.3594 7.3125-19.219 0-26.531zm-39.844 135.24-174.42 174.42-174.42-174.42 34.453-34.453 126.71 126.71c3.5156 3.5156 8.2969 5.4844 13.266 5.4844s9.75-1.9688 13.266-5.4844l126.71-126.71zm-47.062-74.906c-0.23438 0.1875-0.46875 0.42188-0.70312 0.60938-0.23438 0.23438-0.42188 0.46875-0.60938 0.70312l-126.05 126-126.71-126.66-47.719-47.719 174.42-174.42 174.42 174.42zm707.95-138.74h-282.84v-73.312c0-4.9688-1.9688-9.75-5.4844-13.266-3.5156-3.5156-8.2969-5.4844-13.266-5.4844h-92.109c-4.9688 0-9.75 1.9688-13.266 5.4844-3.5156 3.5156-5.4844 8.2969-5.4844 13.266v73.312h-10.875c-4.9688 0-9.75 2.0156-13.266 5.5312-3.5156 3.5156-5.4844 8.2969-5.4844 13.266v97.453c0 3.9375 1.2188 7.7812 3.5156 10.969l132.71 184.55 0.75 180.42c0.046874 6.0469 3 11.766 7.9688 15.281 5.0156 3.4688 11.391 4.3594 17.109 2.2969l149.29-53.156c7.4531-2.6719 12.469-9.75 12.469-17.672v-126l133.5-183.79h-0.046875c2.3438-3.1875 3.6094-7.0781 3.6094-11.016v-99.328c0-4.9688-2.0156-9.75-5.5312-13.266s-8.2969-5.5312-13.266-5.5312zm-374.9-54.516h54.562l-0.046875 54.516h-54.516zm222.66 350.34c-2.2969 3.1875-3.5625 7.0781-3.5625 11.016v118.83l-111.84 39.844-0.70312-159.94c0-3.8906-1.2656-7.6875-3.5156-10.875l-117.56-163.45h356.72zm133.5-201.74c-1.2188-0.23438-2.4844-0.375-3.75-0.375h-382.08v-56.156h385.82zm-222.47-209.39h92.062c5.0156 0 9.75-1.9688 13.266-5.4844 3.5625-3.5156 5.5312-8.2969 5.5312-13.266v-92.109c0-4.9688-1.9688-9.75-5.5312-13.266-3.5156-3.5156-8.25-5.4844-13.266-5.4844h-92.062c-4.9688 0-9.75 1.9688-13.266 5.4844-3.5156 3.5156-5.4844 8.2969-5.4844 13.266v92.109c0 4.9688 1.9688 9.75 5.4844 13.266 3.5156 3.5156 8.2969 5.4844 13.266 5.4844zm18.75-92.062h54.562v54.562l-54.562-0.046875zm225.79 54.562-92.062-0.046875c-4.9688 0-9.75 1.9688-13.266 5.5312-3.5156 3.5156-5.5312 8.25-5.5312 13.266v92.062c0 4.9688 2.0156 9.75 5.5312 13.266s8.2969 5.4844 13.266 5.4844h92.062c4.9688 0 9.75-1.9688 13.266-5.4844s5.5312-8.2969 5.5312-13.266v-92.062c0-5.0156-2.0156-9.75-5.5312-13.266-3.5156-3.5625-8.2969-5.5312-13.266-5.5312zm-18.75 92.062h-54.562v-54.562h54.562zm-565.5-426.56c-59.109-14.953-120.61 13.875-146.81 68.953-26.25 55.078-9.9375 120.98 38.953 157.45 48.891 36.516 116.72 33.375 162.05-7.4531 45.328-40.828 55.453-108 24.281-160.4-17.297-29.203-45.516-50.297-78.469-58.5zm56.109 146.21c-7.4062 29.25-28.922 52.875-57.375 62.953s-60.047 5.2969-84.234-12.75-37.781-47.016-36.188-77.156 18.141-57.469 44.062-72.891c13.922-8.3438 29.812-12.75 46.031-12.75 7.5469 0 15.047 0.9375 22.359 2.8125 23.25 5.8594 43.172 20.766 55.453 41.344 12.234 20.578 15.797 45.234 9.8906 68.438zm131.34 163.82h0.046875c24.562-27.656 43.547-59.859 55.828-94.781 2.8594-8.3906-0.5625-17.625-8.2031-22.125l-42.281-24.938v-0.046875c6.4688-29.859 6.7969-60.75 0.9375-90.75l42.75-24.141c7.7812-4.4062 11.391-13.734 8.5781-22.219-11.578-35.109-29.906-67.547-53.906-95.625-5.8125-6.8438-15.656-8.5781-23.484-4.1719l-42.844 24.188c-22.594-20.578-49.172-36.281-78.094-46.172l0.51562-49.078v0.046875c0.09375-9-6.1875-16.781-14.953-18.609-36.188-7.5469-73.547-7.9219-109.88-1.125-8.8125 1.6406-15.234 9.3281-15.281 18.281l-0.46875 49.078c-29.109 9.3281-56.016 24.516-78.984 44.672l-42.328-25.031c-7.7344-4.5469-17.578-3-23.578 3.6562-24.609 27.703-43.594 59.906-55.922 94.875-2.8125 8.3906 0.60938 17.625 8.25 22.172l42.281 24.938c-6.4688 29.859-6.7969 60.703-0.89062 90.656l-42.75 24.141c-7.7812 4.4062-11.391 13.734-8.5781 22.266 11.578 35.062 29.906 67.547 53.906 95.625 5.8125 6.8438 15.703 8.5781 23.484 4.1719l42.797-24.188c22.594 20.578 49.172 36.328 78.094 46.219l-0.46875 49.078c-0.046875 8.9531 6.1875 16.734 14.953 18.562 36.188 7.5469 73.5 7.9219 109.83 1.0312 8.7656-1.6406 15.188-9.2812 15.281-18.234l0.51562-49.078c29.109-9.3281 56.016-24.516 78.984-44.672l42.328 25.031c7.7344 4.5469 17.578 3 23.578-3.7031zm-81.656-57.938c-23.812 23.812-53.625 40.688-86.297 48.844-8.2969 2.0625-14.203 9.4688-14.297 18l-0.51562 47.25h0.046875c-21.609 2.6719-43.453 2.4844-65.016-0.65625l0.46875-47.203c0.09375-8.5312-5.625-16.078-13.922-18.281-32.484-8.8125-62.016-26.25-85.359-50.531-5.9531-6.1406-15.281-7.5-22.734-3.3281l-41.109 23.25c-13.125-17.391-23.859-36.422-31.922-56.625l41.062-23.203c7.4531-4.2188 11.109-12.891 8.9062-21.141-8.625-32.578-8.2969-66.844 0.98438-99.188 2.3438-8.2031-1.125-17.016-8.4844-21.328l-40.734-24.047c8.5781-20.016 19.734-38.859 33.141-55.969l40.688 24c7.3594 4.3594 16.734 3.1875 22.828-2.8594 23.812-23.766 53.672-40.641 86.344-48.797 8.2969-2.0625 14.156-9.5156 14.203-18.047l0.46875-47.203c21.609-2.6719 43.5-2.4375 65.016 0.70312l-0.46875 47.203c-0.09375 8.5312 5.625 16.078 13.875 18.328 32.531 8.7188 62.016 26.156 85.359 50.391 5.9531 6.1875 15.281 7.5469 22.734 3.3281l41.203-23.25c13.125 17.391 23.859 36.469 31.922 56.672l-41.062 23.203c-7.4531 4.2188-11.109 12.891-8.9062 21.141 8.5781 32.578 8.25 66.891-1.0312 99.234-2.3438 8.25 1.125 17.016 8.4844 21.328l40.734 24.047v0.046875c-8.5781 19.969-19.688 38.766-33.094 55.875l-40.688-24.047c-7.3594-4.3594-16.734-3.1406-22.828 2.8594z"/>
</svg>
