<?xml version="1.0" encoding="UTF-8"?>
<svg width="1200pt" height="1200pt" version="1.1" viewBox="0 0 1200 1200" xmlns="http://www.w3.org/2000/svg">
 <path d="m969.61 231.98h-185.81c-0.51563-3.5625-1.0781-7.125-1.8281-10.688l32.391-19.125 0.046874 0.046875c7.7344-4.5469 11.156-13.969 8.1562-22.406-10.172-28.875-25.875-55.453-46.219-78.328-5.9531-6.6562-15.797-8.25-23.531-3.6562l-32.484 19.125c-3.0938-2.625-6.2812-5.1094-9.5156-7.5l22.453-22.453 192.94-27.797v29.578l0.046874-0.046875c-28.547 9.2344-46.172 37.922-41.484 67.594 4.6875 29.625 30.234 51.516 60.281 51.516 30.047 0 55.594-21.891 60.281-51.516 4.6875-29.672-12.938-58.359-41.531-67.594v-51.234c0-5.4375-2.3438-10.594-6.4688-14.156s-9.5625-5.2031-14.953-4.4062l-220.6 31.734c-3.9844 0.60938-7.7344 2.4375-10.594 5.3438l-33.609 33.609c-6.0938-2.8125-12.328-5.25-18.656-7.4062l-0.32812-37.547c-0.09375-9-6.4688-16.641-15.281-18.281-30.094-5.7188-61.031-5.4375-91.031 0.84375-8.7656 1.8281-15 9.6094-14.906 18.562l0.32812 37.594c-5.2031 1.8281-10.266 3.9375-15.281 6.2812l-33.609-33.656c-2.8594-2.9062-6.6094-4.7344-10.594-5.3438l-220.6-31.734c-5.3906-0.79688-10.828 0.84375-14.953 4.4062s-6.4688 8.7188-6.4688 14.156v51.234c-28.594 9.2344-46.219 37.922-41.531 67.594 4.6875 29.625 30.234 51.516 60.281 51.516s55.594-21.891 60.281-51.516c4.6875-29.672-12.938-58.359-41.484-67.594v-29.578l192.94 27.797 22.453 22.453c-4.1719 3.1406-8.25 6.375-12.188 9.8438l-32.766-18.516v0.046875c-7.8281-4.4531-17.672-2.7188-23.484 4.125-19.969 23.297-35.156 50.297-44.812 79.453-2.625 8.4375 0.98438 17.625 8.7188 21.984l32.719 18.469c-0.42188 2.3906-0.79688 4.7812-1.125 7.2188l-185.81-0.046875c-48.562 0-88.078 41.859-88.078 93.328v509.26c0 51.469 39.516 93.328 88.078 93.328l301.36-0.046876-155.29 223.92v0.046874c-3.9844 5.7188-4.4531 13.172-1.2188 19.359 3.2812 6.1875 9.6562 10.078 16.641 10.078h416.26c6.9844 0 13.359-3.8906 16.641-10.078 3.2344-6.1875 2.7656-13.641-1.2188-19.359l-155.29-223.92 301.36-0.046876c48.562 0 88.078-41.859 88.078-93.328v-509.21c0-51.469-39.516-93.328-88.078-93.328zm-24.562-108.7v0.046875c9.4688 0 18 5.7188 21.656 14.484 3.6094 8.7656 1.5938 18.844-5.1562 25.547-6.7031 6.7031-16.781 8.7188-25.547 5.0625s-14.438-12.188-14.438-21.703c0.046875-12.938 10.547-23.391 23.484-23.391zm-666.61 23.438c0.046875 9.5156-5.6719 18.094-14.438 21.75s-18.891 1.6875-25.641-5.0156c-6.7031-6.75-8.7188-16.828-5.1094-25.641 3.6562-8.7656 12.188-14.484 21.703-14.484 12.938 0 23.438 10.453 23.484 23.391zm138.47 34.734v0.046875c6.0469-14.203 13.688-27.703 22.781-40.172l30.938 17.484c7.4531 4.2188 16.781 2.8594 22.734-3.2812 18.609-19.359 42.188-33.281 68.109-40.312 8.25-2.2031 13.969-9.75 13.875-18.281l-0.32812-35.484c15.328-1.9688 30.844-2.1094 46.172-0.42188l0.32812 35.484v-0.046875c0.09375 8.5781 5.9531 15.984 14.25 18.047 26.062 6.5156 49.875 19.969 68.859 38.953 6.0469 6 15.422 7.2188 22.781 2.8594l30.656-18.047c9.3281 12.281 17.203 25.641 23.438 39.75l-30.562 18v0.046875c-7.3594 4.3594-10.875 13.125-8.4844 21.328 3.0938 10.828 4.9219 21.984 5.5312 33.234v0.14062h-0.046875c0 0.65625 0.046875 1.3125 0.14062 1.9688 0.5625 14.766-1.0781 29.531-4.875 43.828-2.2031 8.25 1.4531 16.969 8.9062 21.188l30.938 17.484 0.046875-0.046875c-6.0469 14.203-13.688 27.703-22.781 40.172l-30.938-17.438c-7.4531-4.1719-16.781-2.8594-22.688 3.2812-18.703 19.312-42.234 33.234-68.203 40.266-8.25 2.2031-13.969 9.75-13.922 18.281l0.375 35.484v0.046875c-7.5 0.9375-15.094 1.4531-22.688 1.5469h-0.51562c-7.6406 0.046875-15.328-0.32812-22.922-1.1719l-0.32812-35.484v0.046875c-0.09375-8.5781-5.9531-16.031-14.25-18.047-26.062-6.4688-49.875-19.922-68.859-38.906-6.0469-6.0469-15.422-7.2656-22.781-2.9062l-30.656 18.047c-9.3281-12.281-17.203-25.641-23.438-39.797l30.562-18.047v0.046875c7.3594-4.3594 10.875-13.125 8.4844-21.375-7.4062-25.828-7.6406-53.156-0.75-79.125 2.2031-8.2969-1.4531-16.969-8.9062-21.188zm208.69 395.86c0 9.5156-5.7188 18.047-14.531 21.703-8.7656 3.6094-18.844 1.6406-25.594-5.1094-6.7031-6.7031-8.7188-16.828-5.0625-25.594 3.6094-8.7656 12.188-14.484 21.703-14.484 6.2344 0 12.188 2.4844 16.594 6.8906s6.8906 10.359 6.8906 16.594zm146.68 566.39h-344.53l149.68-215.86h45.141zm247.87-309.19c0 30.75-22.688 55.781-50.531 55.781l-337.4 0.046875h-401.82c-27.844 0-50.531-25.031-50.531-55.781v-81.234h840.28zm0-118.73h-840.28v-390.47c0-30.75 22.688-55.781 50.531-55.781h184.26-0.046875c0.51562 8.6719 1.6406 17.297 3.375 25.828l-32.391 19.078v0.046875c-7.7344 4.5469-11.156 13.922-8.1562 22.406 2.0625 5.8125 4.4062 11.484 6.8438 17.109l-122.72 70.875c-5.7656 3.3281-9.375 9.5156-9.375 16.219v78.141c-28.547 9.2344-46.125 37.875-41.438 67.5 4.6406 29.672 30.188 51.469 60.188 51.516 30 0 55.547-21.844 60.234-51.469s-12.891-58.266-41.438-67.5v-67.312l112.41-64.922c6.4688 9.8906 13.641 19.312 21.516 28.125 5.9531 6.7031 15.797 8.25 23.531 3.7031l32.438-19.125v0.046875c18.047 15.375 38.906 27.188 61.453 34.688l0.32812 37.547c0.09375 9 6.4688 16.641 15.281 18.281s17.719 2.7656 26.625 3.4219v25.547-0.046875c-28.547 9.2812-46.172 37.922-41.484 67.594 4.6406 29.672 30.234 51.516 60.281 51.516 30 0 55.594-21.844 60.281-51.516 4.6406-29.672-12.938-58.312-41.531-67.594v-25.781c9-0.79688 17.953-2.1094 26.812-3.9375 8.8125-1.7812 15.047-9.6094 15-18.562l-0.375-37.594h-0.046875c22.359-8.0156 42.984-20.203 60.797-35.906l32.812 18.469c7.7812 4.4062 17.625 2.6719 23.484-4.125 6.4688-7.5938 12.469-15.609 17.906-23.953l111 64.125v67.312-0.046875c-28.547 9.2812-46.172 37.922-41.484 67.594s30.234 51.516 60.281 51.516 55.594-21.844 60.281-51.516c4.6406-29.672-12.938-58.312-41.531-67.594v-78.141c0-6.7031-3.5625-12.891-9.375-16.219l-121.03-69.891v-0.046875c3.3281-7.3125 6.2344-14.906 8.7188-22.594 2.625-8.4375-0.98438-17.625-8.7188-21.984l-32.719-18.469c1.3594-7.4062 2.2031-14.859 2.6719-22.359h184.31c27.844 0 50.531 25.031 50.531 55.781zm-725.76-138.47c0 9.4688-5.7188 18.047-14.484 21.656-8.7656 3.6094-18.844 1.5938-25.547-5.1094-6.7031-6.75-8.7188-16.828-5.0625-25.594s12.188-14.438 21.703-14.438c6.1875 0 12.188 2.4844 16.547 6.8906 4.4062 4.4062 6.8906 10.359 6.8438 16.594zm632.63-23.484h0.046875c9.4688 0 18 5.7188 21.609 14.484 3.6562 8.7656 1.6406 18.844-5.0625 25.547s-16.781 8.7188-25.547 5.1094c-8.7656-3.6562-14.484-12.188-14.484-21.656 0-12.984 10.5-23.484 23.484-23.484zm-436.36 268.03c0-4.9688 1.9688-9.75 5.4844-13.266s8.2969-5.4844 13.312-5.4844h181.18c10.312 0 18.703 8.3906 18.703 18.75s-8.3906 18.75-18.703 18.797h-181.18c-5.0156 0-9.7969-2.0156-13.312-5.5312s-5.4844-8.2969-5.4844-13.266zm109.55-459.1v0.046875c47.578-0.14062 89.062-32.391 100.92-78.469 11.812-46.078-8.9531-94.312-50.578-117.38s-93.562-15.094-126.32 19.406c-32.766 34.453-38.109 86.719-12.984 127.13 19.031 30.797 52.734 49.5 88.969 49.312zm-35.578-161.29c10.594-6.6094 22.781-10.078 35.203-10.078 5.2031 0 10.359 0.5625 15.375 1.7812 31.125 7.2656 52.734 35.484 51.656 67.406-1.0312 31.922-24.516 58.641-56.016 63.844-31.5 5.1562-62.297-12.656-73.547-42.516-11.25-29.906 0.23438-63.562 27.328-80.438z"/>
</svg>
