<?xml version="1.0" encoding="UTF-8"?>
<svg width="1200pt" height="1200pt" version="1.1" viewBox="0 0 1200 1200" xmlns="http://www.w3.org/2000/svg">
 <path d="m538.5 509.34c-37.734 22.969-57.984 66.375-51.188 110.06 6.75 43.641 39.141 78.938 82.078 89.438 42.938 10.453 87.938-6 114-41.625 26.109-35.672 28.172-83.531 5.2031-121.31-31.406-51.469-98.531-67.828-150.1-36.562zm94.031 154.6c-33.844 20.578-77.953 9.8438-98.531-24-20.578-33.797-9.8438-77.906 24-98.484v-0.046875c33.844-20.531 77.906-9.7969 98.484 24.047 20.578 33.797 9.8438 77.906-23.953 98.484zm481.13 149.02c-6.2344-23.484-20.672-43.969-40.734-57.75 33.094-100.83 33.094-209.58 0-310.4 43.875-30.328 57.141-89.297 30.422-135.47-26.672-46.172-84.375-64.125-132.52-41.25-70.781-79.031-164.95-133.4-268.78-155.21-4.2656-53.156-48.656-94.172-102-94.172s-97.781 40.969-102.05 94.172c-103.83 21.75-198 76.172-268.78 155.26-48.141-22.922-105.89-5.0156-132.61 41.156-26.719 46.219-13.453 105.19 30.469 135.52-33 100.83-33 209.58 0 310.4-32.812 22.734-49.453 62.391-42.656 101.72 6.7969 39.328 35.859 71.109 74.391 81.422 8.6719 2.3438 17.625 3.5156 26.672 3.5156 15.141 0 30.094-3.4219 43.734-9.9844 70.781 79.078 164.95 133.5 268.78 155.26 4.2656 53.203 48.703 94.172 102.05 94.172s97.734-41.016 102-94.172c103.83-21.797 198-76.172 268.78-155.21 13.641 6.5156 28.594 9.9375 43.734 9.9375 9 0 17.953-1.1719 26.625-3.5156 54.609-14.672 87.047-70.781 72.469-125.39zm-161.58-469.18c3.8906-14.625 12.75-27.375 25.078-36.094 0.1875-0.14062 0.375-0.23438 0.51562-0.375 1.5-1.0312 3-2.0156 4.5938-2.9062 9.8438-5.6719 21-8.6719 32.344-8.7188 5.7188 0 11.391 0.75 16.922 2.25 16.594 4.4062 30.797 15.281 39.328 30.188v0.046875c10.828 18.75 11.531 41.625 1.9688 61.031-9.6094 19.406-28.219 32.766-49.688 35.578-21.422 2.8125-42.891-5.25-57.141-21.516-14.297-16.266-19.5-38.578-13.922-59.484zm62.812 119.16 0.046875-0.046875c7.9219 0 15.797-0.9375 23.531-2.7656 11.062 34.641 17.953 70.547 20.578 106.83l-133.31-133.31 11.297-6.5156c19.5 22.734 47.953 35.812 77.906 35.766zm-208.74 188.26-30.656-17.719c4.1719-22.031 4.2188-44.672 0.046875-66.75l30.703-17.719c7.7344-4.4531 11.25-13.828 8.3438-22.312-2.7188-7.9688-5.9062-15.75-9.5156-23.391l86.953-50.25 146.9 146.9-146.95 146.95-86.859-50.109c3.6562-7.6406 6.8438-15.516 9.5156-23.531 2.7656-8.4375-0.79688-17.672-8.4844-22.078zm-108.05-500.76c93.281 20.344 177.89 69.234 242.16 139.82-26.344 27.938-34.828 68.203-22.078 104.39l-19.969 11.531-219.56-219.61c8.8594-10.594 15.469-22.922 19.453-36.141zm166.45 275.16-78.234 45.188h0.046875c-4.7344-6.8906-9.8906-13.5-15.375-19.828-5.8594-6.75-15.75-8.3906-23.531-3.9375l-30.703 17.766c-17.016-14.672-36.656-26.062-57.844-33.469l0.046875-35.391v0.046875c0-9-6.3281-16.688-15.094-18.469-8.2969-1.6406-16.688-2.8125-25.125-3.5156v-152.26c10.828-2.0156 21.234-5.7656 30.844-11.109zm-128.53 136.78v0.046874c6.7969 24.656 6.7969 50.719-0.046875 75.375-2.2969 8.25 1.3125 16.969 8.7188 21.281l28.875 16.641h-0.046875c-5.7188 13.031-12.891 25.406-21.375 36.844l-28.828-16.641c-7.4062-4.3125-16.781-3-22.781 3.0938-17.906 18.234-40.453 31.219-65.203 37.641-8.2969 2.1094-14.109 9.6094-14.109 18.141v33.328c-14.156 1.5938-28.453 1.5938-42.656-0.046876l0.046875-33.234c0.046875-8.5781-5.7656-16.078-14.062-18.188-24.75-6.4219-47.25-19.453-65.156-37.734-6-6.1406-15.375-7.4531-22.781-3.1406l-28.922 16.688c-8.4844-11.484-15.609-23.906-21.281-36.984l28.828-16.641c7.4062-4.2656 10.969-12.984 8.7188-21.234-6.7969-24.656-6.75-50.719 0.046875-75.375 2.2969-8.25-1.3125-16.969-8.7188-21.281l-28.875-16.641h0.046875c5.7656-13.031 12.938-25.359 21.375-36.844l28.828 16.641c7.4062 4.2656 16.734 3.0469 22.734-3.0469 17.953-18.234 40.5-31.266 65.25-37.688 8.2969-2.1094 14.109-9.6094 14.109-18.141v-33.328c14.156-1.5938 28.453-1.5938 42.656 0.046874l-0.046875 33.234c-0.046875 8.5781 5.7656 16.078 14.062 18.188 24.75 6.4219 47.344 19.5 65.25 37.781 6 6.0938 15.375 7.4062 22.781 3.0938l28.828-16.641c4.1719 5.625 7.9688 11.484 11.484 17.531l0.14062 0.28125c0.046875 0.09375 0.09375 0.14063 0.14062 0.23438 3.5156 6.1406 6.7031 12.422 9.5156 18.891l-28.828 16.641c-7.4062 4.2656-10.969 12.984-8.7188 21.234zm-136.03-506.11c35.812 0.046875 64.828 29.062 64.875 64.875 0 1.9688-0.09375 3.8906-0.28125 5.8125v0.1875c-2.3906 25.547-19.641 47.297-44.016 55.453-24.328 8.1562-51.188 1.1719-68.484-17.812s-21.75-46.359-11.391-69.844 33.609-38.672 59.297-38.672zm-49.594 154.36c9.6094 5.3438 20.016 9.0938 30.844 11.109v152.26c-8.3438 0.70313-16.641 1.8281-24.891 3.4688-8.7656 1.7344-15.141 9.4219-15.141 18.422v35.438c-21.188 7.3594-40.781 18.703-57.797 33.375l-30.75-17.766c-7.7812-4.5-17.672-2.8594-23.578 3.8906-5.4844 6.375-10.641 13.031-15.375 19.969l-78.234-45.188zm-125.95 422.68-30.703 17.719c-7.7344 4.4531-11.25 13.828-8.3438 22.312 2.7188 7.9688 5.9062 15.797 9.5156 23.438l-86.953 50.203-146.95-146.95 146.95-146.95 86.906 50.156c-3.6562 7.6406-6.8438 15.516-9.5156 23.531-2.7656 8.4375 0.79688 17.672 8.4844 22.078l30.656 17.719c-4.1719 22.031-4.2188 44.672-0.046875 66.75zm77.484-482.9c3.9844 13.266 10.594 25.547 19.453 36.188l-219.56 219.56-19.969-11.531h-0.046875c12.656-36.141 4.125-76.359-22.078-104.25 64.266-70.641 148.92-119.58 242.21-139.97zm-238.87 276.71 11.297 6.5156-133.31 133.31c2.5781-36.281 9.4688-72.141 20.484-106.78 37.359 8.9062 76.547-3.8438 101.53-33.047zm-140.44-49.734c-4.5-16.594-2.1562-34.312 6.5156-49.172v-0.046875c8.5781-14.906 22.734-25.781 39.328-30.188 5.5312-1.5 11.203-2.25 16.922-2.25 24.703 0.046875 47.203 14.109 58.078 36.281 10.922 22.172 8.25 48.562-6.7969 68.109-15 19.594-39.891 28.922-64.078 24.094s-43.594-22.969-49.969-46.828zm95.062 518.26c-14.859 8.625-32.578 10.922-49.172 6.4688-16.641-4.4531-30.797-15.328-39.375-30.188v-0.046875c-13.125-22.734-11.25-51.094 4.7344-71.906 15.984-20.766 42.891-29.906 68.25-23.109 25.312 6.7969 44.062 28.172 47.484 54.188 3.375 26.016-9.1875 51.516-31.922 64.594zm-56.156-155.72c-11.016-34.641-17.906-70.5-20.484-106.78l133.26 133.31-11.25 6.5156v-0.046875c-25.031-29.062-64.172-41.812-101.53-33zm340.4 309.74c-93.281-20.391-177.94-69.281-242.16-139.92 26.203-27.938 34.734-68.156 22.031-104.3l19.969-11.531 219.56 219.56h0.046875c-8.8594 10.641-15.469 22.922-19.453 36.188zm-166.5-275.21 78.234-45.188v0.046875c4.7344 6.8438 9.8438 13.453 15.328 19.781 5.8594 6.75 15.75 8.3906 23.531 3.9375l30.75-17.766c17.016 14.719 36.609 26.062 57.797 33.469l-0.046875 35.391v-0.046875c0 9 6.3281 16.688 15.094 18.469 8.2969 1.6406 16.688 2.8125 25.125 3.5156v152.26c-10.828 2.0156-21.234 5.7656-30.844 11.109zm264.56 369.32c-25.688 0-48.938-15.188-59.297-38.672s-5.9062-50.859 11.391-69.844 44.156-25.969 68.484-17.812c24.375 8.1562 41.625 29.906 44.016 55.453v0.1875c0.1875 1.9219 0.28125 3.8438 0.28125 5.8125-0.046875 35.812-29.062 64.828-64.875 64.875zm49.594-154.36c-9.6094-5.3438-20.016-9.0938-30.844-11.109v-152.26c8.3438-0.70312 16.641-1.8281 24.891-3.4688 8.7656-1.7344 15.141-9.4219 15.141-18.422v-35.391c21.188-7.4062 40.828-18.703 57.797-33.375l30.75 17.766v-0.046875c7.7812 4.5 17.625 2.8594 23.531-3.8906 5.5312-6.3281 10.688-13.031 15.469-19.922l78.234 45.141zm48.516 60.234v-0.046875c-3.9844-13.219-10.594-25.547-19.453-36.141l219.56-219.56 19.969 11.531c-12.75 36.141-4.2656 76.453 22.031 104.34-64.219 70.594-148.82 119.48-242.11 139.82zm238.87-276.74-11.25-6.5156 133.31-133.31c-2.625 36.281-9.5156 72.141-20.578 106.78-37.359-8.8594-76.5 3.8906-101.48 33.047zm133.87 98.953v0.046875c-8.5781 14.859-22.734 25.734-39.375 30.188-16.594 4.4531-34.312 2.1562-49.219-6.4688-1.5938-0.9375-3.1406-1.9219-4.5938-2.9531-0.23437-0.1875-0.46875-0.32812-0.70312-0.46875-20.391-14.625-30.516-39.656-26.016-64.312s22.781-44.531 47.016-51.047c5.4844-1.4531 11.203-2.25 16.922-2.25 23.109 0.046875 44.484 12.422 56.016 32.484 11.578 20.062 11.531 44.766-0.046876 64.781z"/>
</svg>
