<?xml version="1.0" encoding="UTF-8"?>
<svg width="1200pt" height="1200pt" version="1.1" viewBox="0 0 1200 1200" xmlns="http://www.w3.org/2000/svg">
 <path d="m768.14 378.14h-338.72c-29.016 0-52.547 23.484-52.594 52.5v338.72c0.046875 29.016 23.578 52.5 52.594 52.5h338.72c28.969-0.046876 52.453-23.531 52.5-52.5v-338.72c-0.046875-28.969-23.531-52.453-52.5-52.5zm15 391.22h-0.046875c0 8.25-6.7031 14.953-14.953 14.953h-338.72c-8.2969 0.046876-15-6.6562-15.047-14.953v-338.72c0.046875-8.2969 6.75-15 15.047-14.953h338.72c8.25 0 14.953 6.7031 14.953 14.953zm241.31-151.87c9.5156 39.141 46.734 64.969 86.719 60.188 39.938-4.7812 70.031-38.672 70.031-78.938 0-40.219-30.047-74.156-70.031-78.938s-77.203 21.047-86.719 60.188h-64.219v-165.56h141.47c4.9688 0 9.75-1.9688 13.266-5.5312 3.5156-3.5156 5.4844-8.25 5.4844-13.266v-98.156c39.141-9.4688 64.969-46.734 60.188-86.672-4.7812-39.984-38.672-70.078-78.938-70.078-40.219 0-74.156 30.094-78.938 70.031-4.7812 39.984 21.047 77.203 60.188 86.719v79.406h-122.72v-74.906c-0.046875-35.016-28.406-63.375-63.422-63.422h-76.172v-121.5h81.891c9.5156 39.141 46.781 65.016 86.766 60.234 40.031-4.7812 70.125-38.719 70.125-79.031 0-40.266-30.094-74.203-70.125-78.984-39.984-4.7812-77.25 21.094-86.766 60.234h-100.69 0.046875c-5.0156 0-9.75 1.9688-13.312 5.4844-3.5156 3.5156-5.4844 8.2969-5.4844 13.266v140.29h-165.56v-63c39.141-9.4688 65.016-46.734 60.234-86.766-4.7812-39.984-38.719-70.078-78.984-70.078-40.312 0-74.203 30.094-78.984 70.125-4.8281 39.984 21.047 77.25 60.188 86.719v63h-165.61v-140.29c0-4.9688-1.9688-9.75-5.4844-13.266-3.5156-3.5156-8.2969-5.4844-13.266-5.4844h-98.156c-9.5156-39.141-46.781-65.016-86.766-60.234-40.031 4.7812-70.125 38.719-70.125 78.984 0 40.312 30.094 74.25 70.125 79.031 39.984 4.7812 77.25-21.094 86.766-60.234h79.406l-0.046876 121.5h-76.125 0.046876c-35.016 0.046875-63.375 28.406-63.422 63.422v74.906h-120.32v-79.406c39.094-9.4688 64.969-46.734 60.188-86.672-4.7812-39.984-38.672-70.078-78.938-70.078s-74.156 30.094-78.938 70.031c-4.7812 39.984 21.047 77.203 60.141 86.719v98.156c0 5.0156 1.9688 9.75 5.5312 13.266 3.5156 3.5625 8.25 5.5312 13.266 5.5312h139.08v165.56h-61.781c-9.5156-39.141-46.781-65.016-86.766-60.234s-70.125 38.719-70.125 78.984c0.046875 40.312 30.141 74.203 70.125 78.984s77.25-21.047 86.766-60.234h61.781v165.61l-139.08 0.046875c-5.0156 0-9.75 1.9688-13.266 5.4844-3.5625 3.5156-5.5312 8.2969-5.5312 13.266v100.64c-39.141 9.5156-64.969 46.781-60.188 86.766s38.719 70.078 78.984 70.078 74.203-30.094 78.984-70.125c4.7812-39.984-21.094-77.25-60.234-86.719v-81.844h120.32v77.344c0.046876 35.016 28.406 63.375 63.422 63.422h76.125l-0.046876 121.5h-79.406 0.046876c-9.5156-39.141-46.781-65.016-86.766-60.234-40.031 4.7812-70.125 38.719-70.125 79.031 0 40.266 30.094 74.203 70.125 78.984 39.984 4.7812 77.25-21.094 86.766-60.234h98.156c4.9688 0 9.75-1.9688 13.266-5.4844 3.5156-3.5156 5.4844-8.2969 5.4844-13.266v-140.29h165.61v63c-39.141 9.4688-65.016 46.734-60.188 86.719 4.7812 40.031 38.672 70.125 78.984 70.125 40.266 0 74.203-30.094 78.984-70.125 4.7812-39.984-21.094-77.25-60.234-86.719v-63h165.56v140.29c0 4.9688 1.9688 9.75 5.4844 13.266 3.5625 3.5156 8.2969 5.4844 13.312 5.4844h100.69-0.046875c9.5156 39.141 46.781 65.016 86.766 60.234 40.031-4.7812 70.125-38.719 70.125-78.984 0-40.312-30.094-74.25-70.125-79.031-39.984-4.7812-77.25 21.094-86.766 60.234h-81.891v-121.5h76.172c35.016-0.046875 63.375-28.406 63.422-63.422v-77.344h122.72v81.844c-39.141 9.5156-65.016 46.781-60.234 86.766s38.719 70.078 78.984 70.078c40.312 0 74.203-30.094 78.984-70.125 4.7812-39.984-21.094-77.25-60.234-86.719v-100.64c0-4.9688-1.9688-9.75-5.4844-13.266s-8.2969-5.4844-13.266-5.4844h-141.47v-165.66zm77.25-60.703c16.969 0 32.297 10.219 38.812 25.922 6.5156 15.656 2.9062 33.75-9.0938 45.75s-30.094 15.609-45.797 9.0938c-15.656-6.5156-25.875-21.844-25.875-38.812 0.046875-23.156 18.797-41.906 41.953-41.953zm-41.953-336.61c0-16.969 10.266-32.297 25.922-38.766 15.703-6.4688 33.797-2.8594 45.75 9.1406 12 12 15.609 30.094 9.0938 45.75-6.5156 15.703-21.844 25.922-38.812 25.922-23.203-0.046874-41.953-18.844-41.953-42.047zm-79.969-163.92c17.016-0.046874 32.344 10.172 38.859 25.875 6.5625 15.703 2.9531 33.797-9.0469 45.844-12 12-30.094 15.609-45.797 9.1406-15.703-6.5156-25.969-21.844-25.969-38.859 0.046875-23.156 18.797-41.953 41.953-42zm-759.66 84.047c-16.969 0-32.297-10.266-38.812-25.969-6.5156-15.703-2.9062-33.75 9.1406-45.797 12-12 30.094-15.609 45.797-9.0938 15.703 6.5156 25.922 21.844 25.922 38.812 0 23.203-18.844 42.047-42.047 42.047zm-163.82 79.875c0-16.969 10.219-32.297 25.922-38.766s33.75-2.8594 45.75 9.1406 15.609 30.094 9.0938 45.75c-6.5156 15.703-21.844 25.922-38.812 25.922-23.203-0.046874-41.953-18.844-41.953-42.047zm41.953 420.61c-17.016-0.046875-32.297-10.266-38.766-25.969-6.5156-15.656-2.9062-33.75 9.0938-45.75s30.047-15.562 45.75-9.0938c15.703 6.5156 25.922 21.797 25.922 38.766 0 23.203-18.797 42-42 42.047zm42 339.05c0 16.969-10.219 32.25-25.922 38.766-15.703 6.4688-33.75 2.9062-45.75-9.0938-12-12.047-15.609-30.094-9.0938-45.75 6.4688-15.703 21.75-25.922 38.766-25.969 23.203 0.046875 42 18.844 42 42.047zm79.875 163.92c-16.969 0-32.297-10.219-38.812-25.922s-2.9062-33.797 9.1406-45.797c12-12.047 30.094-15.609 45.797-9.1406 15.703 6.5156 25.922 21.844 25.922 38.859 0 23.203-18.844 42-42.047 42zm759.66-84.047c17.016 0 32.344 10.219 38.859 25.922 6.5625 15.703 2.9531 33.75-9.0469 45.797s-30.094 15.656-45.797 9.1406-25.969-21.844-25.969-38.812c0.046875-23.203 18.797-41.953 41.953-42.047zm-423.05-961.45c0-16.969 10.266-32.297 25.969-38.812s33.75-2.9062 45.797 9.0938c12 12.047 15.609 30.094 9.0938 45.797s-21.844 25.969-38.812 25.969c-23.203-0.046875-42-18.844-42.047-42.047zm84.047 1003.5v0.046875c0 16.969-10.219 32.297-25.922 38.812s-33.797 2.9062-45.797-9.0938c-12.047-12.047-15.609-30.094-9.0938-45.797 6.4688-15.703 21.797-25.969 38.812-25.969 23.203 0.046875 42 18.844 42 42.047zm281.9-203.72v0.046874c0 14.297-11.578 25.875-25.875 25.875h-596.06c-14.297 0-25.875-11.578-25.875-25.875v-596.06c0-14.297 11.578-25.875 25.875-25.875h596.06c14.297 0 25.875 11.578 25.875 25.875zm221.02 81.797v0.046876c0 16.969-10.219 32.25-25.922 38.766-15.703 6.4688-33.75 2.9062-45.75-9.1406-12-12-15.609-30.047-9.0938-45.703 6.4688-15.703 21.797-25.922 38.766-25.969 23.203 0.046876 42 18.844 42 42.047z"/>
</svg>
