<?xml version="1.0" encoding="UTF-8"?>
<svg id="svg2" width="2868.5" height="1e3" version="1.1" xmlns="http://www.w3.org/2000/svg" xmlns:cc="http://creativecommons.org/ns#" xmlns:dc="http://purl.org/dc/elements/1.1/" xmlns:rdf="http://www.w3.org/1999/02/22-rdf-syntax-ns#">
 <metadata id="metadata7">
  <rdf:RDF>
   <cc:Work rdf:about="">
    <dc:format>image/svg+xml</dc:format>
    <dc:type rdf:resource="http://purl.org/dc/dcmitype/StillImage"/>
    <dc:title/>
   </cc:Work>
  </rdf:RDF>
 </metadata>
 <path id="text2996" d="m1495.3 0.00108c-82.541 4.3e-4 -148.19 21.588-197.99 65.101-49.794 43.065-75.168 100.93-75.168 173.15 0 70.878 24.035 127.63 72.483 169.8 48.897 42.168 114.55 63.087 196.64 63.087 34.99 0 87.514-6.6764 157.05-20.134-1.7954-4.9344-2.6849-10.053-2.6845-15.436v-172.48c-4e-4 -14.355 0.8891-24.592 2.6845-30.872l-95.973 2.0124c9.8688 5.3833 17.439 13.618 21.476 24.832 4.0369 10.766 6.0398 27.902 6.0402 51.678v100c-29.608 8.972-60.99 13.423-93.288 13.423-53.383 0-98.115-19.142-134.9-56.376-36.784-37.682-55.034-83.749-55.034-138.93 0-53.831 16.913-97.899 51.007-131.54 34.093-33.644 77.712-50.335 131.54-50.336 53.382 4.3e-4 93.444 13.131 119.46 39.597v-75.168c-34.991-7.6257-69.711-11.409-103.36-11.409zm346.31 6.0403-20.134 77.181c18.841-17.046 45.105-25.503 77.852-25.503h59.06v324.83c0 41.719-8.4568 67.983-25.503 77.852l122.82-2.0124c-13.907-9.4205-22.808-20.103-26.846-32.215-3.1403-9.4204-4.698-27.895-4.698-54.362v-314.09h60.403c30.056 4.3e-4 49.417 8.4572 58.389 25.503l18.792-76.51c-7.1779 2.6921-17.418 4.0273-29.53 4.0268h-264.43c-9.8689-1.7933-18.548-3.3518-26.174-4.698zm-1051.7 4.698-157.05 2.0124c16.598 7.6265 24.832 30.771 24.832 69.799v300c0 36.785-9.1245 63.049-27.517 77.852h156.38c73.569 0 132.77-20.919 178.52-63.087 45.756-42.616 69.127-98.034 69.127-165.77-4e-4 -67.737-22.704-121.82-67.114-161.74-44.411-40.373-103.16-59.957-177.18-59.06zm400 0-118.12 2.0124c17.495 8.5238 26.174 32.336 26.174 71.812v297.99c0 42.168-8.6793 68.432-26.174 77.852l118.12-2.0124c-17.495-8.9718-26.174-35.013-26.174-77.181v-292.62c0-42.167 8.6791-67.983 26.174-77.852zm604.03 0-118.12 2.0124c17.495 8.5238 26.174 32.336 26.174 71.812v297.99c0 42.168-8.6792 68.432-26.174 77.852l118.12-2.0124c-17.495-8.9718-26.174-35.013-26.174-77.181v-292.62c0-42.167 8.6791-67.983 26.174-77.852zm563.76 0-98.658 2.0124c10.766 4.0378 16.107 12.049 16.107 24.161 0 7.6265-3.561 20.534-10.738 38.926l-110.74 285.91c-13.458 34.093-22.36 55.684-26.846 63.758-8.5231 14.804-19.873 26.376-34.228 34.899l112.75-2.0124c-13.009-6.2804-19.463-15.405-19.463-27.517 0-8.0747 3.5608-22.095 10.738-42.282l34.228-97.986h168.46l36.242 97.986c9.8689 26.467 14.765 42.045 14.765 46.98-4e-4 8.5234-6.8993 16.757-20.805 24.832l126.85-2.0124c-14.356-8.0747-25.706-19.202-34.228-33.557-4.4864-7.6261-13.388-28.994-26.846-63.087l-137.58-351.01zm324.16 0-117.45 2.0124c17.495 8.9722 26.174 34.343 26.174 76.51v291.27c0 43.065-8.6793 69.997-26.174 79.866h267.78l30.872-87.248c-35.888 29.607-74.837 43.409-116.11 40.268l-90.604-6.7114v-319.46c0-41.27 8.4566-66.64 25.503-76.51zm-2611.4 6.7114c-32.054 0-58.389 25.664-58.389 57.718v312.08c0 32.054 26.335 57.718 58.389 57.718h332.89c32.054 0 58.389-25.664 58.389-57.718v-312.08c0-32.054-26.335-57.718-58.389-57.718zm0 21.476h332.89c20.528 0 36.913 15.714 36.913 36.242v312.08c0 20.528-16.385 36.242-36.913 36.242h-332.89c-20.528 0-36.913-15.714-36.913-36.242v-312.08c0-20.528 16.385-36.242 36.913-36.242zm713.42 18.792c56.523 4.3e-4 99.696 15.579 130.2 46.98 30.953 30.953 46.308 76.134 46.309 134.9-4.3e-4 53.383-16.914 95.444-51.007 126.85-33.645 30.953-79.044 46.98-136.91 46.98-17.047 0-33.964-1.7804-49.664-5.3691v-342.28c21.532-5.3827 42.233-8.0532 61.074-8.0537zm1530.9 7.3825 66.443 177.18h-133.56zm-2175.8 24.161c-24.693 0-44.966 20.274-44.966 44.966v182.55c0 24.693 20.274 44.966 44.966 44.966h19.463c24.693 0 44.966-20.274 44.966-44.966v-182.55c0-24.693-20.273-44.966-44.966-44.966zm178.52 0c-24.693 0-44.966 20.274-44.966 44.966v182.55c0 24.693 20.274 44.966 44.966 44.966h19.463c24.693 0 44.966-20.274 44.966-44.966v-182.55c0-24.693-20.273-44.966-44.966-44.966zm0 21.476h19.463c13.167 0 23.49 10.324 23.49 23.49v182.55c0 13.166-10.323 23.49-23.49 23.49h-19.463c-13.166 0-23.49-10.324-23.49-23.49v-182.55c0-13.166 10.324-23.49 23.49-23.49zm518.12 418.79c-50.691 4.3e-4 -90.75 10.46-120.81 31.544-29.607 21.084-44.966 49.793-44.966 86.577 0 39.925 20.033 73.084 59.06 100 71.775 36.785 108.94 56.818 112.08 59.06 38.13 24.224 57.047 48.704 57.047 73.825 0 20.187-9.3472 37.323-28.188 51.678-18.841 13.906-41.318 20.805-67.785 20.805-53.383 0-101.46-18.249-143.62-55.033l18.121 81.879c35.439 13.458 75.056 20.134 118.12 20.134 49.794 0 91.41-13.575 125.5-40.94 34.093-27.813 51.677-60.75 51.678-99.329-5e-4 -35.439-20.256-65.928-59.732-91.946-67.289-34.541-104.23-54.574-111.41-59.06-38.131-23.775-57.047-46.697-57.047-69.127 0-19.738 7.7891-35.093 23.49-46.309 15.701-11.214 36.62-16.778 63.087-16.778 40.373 4.3e-4 74.423 13.798 102.68 41.611v-73.825c-30.505-9.8686-62.774-14.765-97.315-14.765zm1436.2 0c-69.083 4.3e-4 -125.17 21.365-167.78 64.429-42.616 43.065-63.758 100.04-63.758 170.47 0 73.57 22.255 130.99 67.114 173.15 44.859 41.719 106.73 62.416 185.23 62.416 37.233 0 69.947-6.6764 98.658-20.134l30.872-76.51c-48.449 28.262-94.515 42.282-138.93 42.282-48.448 0-89.178-18.249-121.48-55.033-32.299-37.233-48.322-82.41-48.322-136.24 0-50.691 14.243-92.088 42.953-123.49 29.158-31.401 67.218-46.979 113.42-46.98 41.719 4.3e-4 82 12.686 121.48 38.255v-75.839c-46.654-11.214-86.268-16.778-119.46-16.779zm-1673.8 8.0537c-4.4862 1.7954-10.272 2.685-17.45 2.6846l-220.81 2.0124c17.495 8.9722 26.174 34.343 26.174 76.51v291.27c0 32.93-5.207 56.278-15.436 69.799-37.335-26.706-67.843-55.014-90.604-84.564l-95.973-125.5c30.953-7.1772 56.101-22.314 75.839-44.295 19.738-22.429 29.53-47.577 29.53-75.839-4.3e-4 -33.644-12.24-60.127-36.913-79.866-24.224-20.186-56.939-29.978-98.658-29.53l-153.69 2.0124c17.047 8.5238 25.503 32.336 25.503 71.812v299.33c0 41.271-8.4568 66.418-25.503 75.839l117.45-2.0124c-17.047-8.0747-25.503-33.222-25.503-75.839v-324.83c19.738-4.0369 34.871-6.0398 45.638-6.0403 24.673 4.3e-4 45.147 7.3445 61.745 22.148 16.598 14.355 24.832 32.604 24.832 55.034 0 53.383-37.833 86.768-114.09 99.329l60.403 95.302 80.537 103.36c17.495 22.43 43.314 33.557 76.51 33.557h303.36l26.846-85.235c-29.607 26.019-65.441 38.926-106.71 38.926-5.383 0-10.279-0.22338-14.765-0.6701l-84.564-8.7248v-163.76h49.664c31.401 2.2e-4 51.208 5.5639 59.732 16.778l-1.3423-68.456c-5.3831 2.2432-14.73 3.3559-28.188 3.3557h-79.866v-128.86c18.841-3.5883 41.541-5.3687 68.456-5.3691 35.887 4.4e-4 62.819 8.6797 79.866 26.174l-2.0124-75.839zm635.57 0c-4.4863 1.7954-10.272 2.685-17.45 2.6846l-220.81 2.0124c17.495 8.9722 26.174 34.343 26.174 76.51v291.27c0 43.065-8.6793 69.325-26.174 79.195h271.14v-0.67004l81.879-1.3423c-13.009-6.2804-19.463-15.405-19.463-27.517 0-8.0747 3.5608-22.095 10.738-42.282l34.228-97.315h168.46l36.242 97.315c9.8688 26.467 14.765 42.045 14.765 46.98-4e-4 8.5234-6.8993 16.757-20.805 24.832l127.52-2.0124c-14.356-8.0747-26.377-19.202-34.899-33.557-4.4864-7.6261-13.388-28.323-26.846-62.416l-137.58-351.01-98.658 2.0124c10.766 4.0378 16.778 12.049 16.778 24.161 0 7.6266-4.2321 20.534-11.409 38.926l-110.74 285.91c-2.3925 6.0611-3.931 9.5263-6.0402 14.765-12.982 33.289-47.819 37.584-103.36 36.913-5.3827-0.0647-10.279-0.22339-14.765-0.6701l-84.564-8.7248v-163.76h49.664c31.401 2.2e-4 51.208 5.5639 59.732 16.778l-1.3423-68.456c-5.3831 2.2432-14.73 3.3559-28.188 3.3557h-79.866v-128.86c18.841-3.5883 41.541-5.3687 68.456-5.3691 35.887 4.4e-4 62.148 8.6797 79.195 26.174l-2.0124-75.839zm623.49 2.6846-153.69 2.0124c17.046 8.5238 26.174 32.336 26.174 71.812v299.33c0 41.271-9.128 66.418-26.174 75.839l117.45-2.0124c-17.047-8.0747-25.503-33.222-25.503-75.839v-324.83c19.738-4.0369 34.871-6.0398 45.637-6.0403 24.673 4.4e-4 45.147 7.3445 61.745 22.148 16.598 14.355 24.832 32.604 24.832 55.034 0 53.383-37.833 86.768-114.09 99.329l60.403 95.302 80.537 103.36c17.495 22.43 43.314 33.557 76.51 33.557h57.047c-43.963-29.607-78.457-60.764-104.03-93.96l-96.644-125.5c30.953-7.1772 56.101-22.314 75.839-44.295 19.738-22.429 30.201-47.577 30.201-75.839-5e-4 -33.644-12.911-60.127-37.584-79.866-24.224-20.186-56.939-29.978-98.658-29.53zm704.7 0-116.78 2.0124c17.046 8.5238 25.503 32.336 25.503 71.812v297.99c0 41.719-8.4568 67.312-25.503 77.181l116.11-2.0124c-17.047-8.9718-25.503-34.342-25.503-76.51v-140.94h241.61v143.62c-4e-4 40.373-8.6797 65.521-26.174 75.839l117.45-2.0124c-17.496-8.9718-26.175-34.342-26.174-76.51v-291.27c-5e-4 -43.065 8.6789-69.325 26.174-79.195l-116.78 2.0124c17.046 8.5238 25.503 32.336 25.503 71.812v107.38h-241.61v-103.36c0-42.167 8.6791-67.983 26.174-77.852zm-1104 54.362 66.443 177.18h-133.56z" fill="#79090b"/>
</svg>
