<?xml version="1.0" encoding="UTF-8"?>
<svg width="37.4" height="21.638" fill="#e3e3e3" version="1.1" viewBox="0 -960 1496 865.52" xmlns="http://www.w3.org/2000/svg">
 <g transform="translate(19.999 19.991)">
  <g>
   <path d="m694.11-369.33q75 0 127.5-52.5t52.5-127.5-52.5-127.5-127.5-52.5-127.5 52.5-52.5 127.5 52.5 127.5 127.5 52.5zm0-140q-17 0-28.5-11.5t-11.5-28.5 11.5-28.5 28.5-11.5 28.5 11.5 11.5 28.5-11.5 28.5-28.5 11.5zm0 360q-83 0-156-31.5t-127-85.5-85.5-127-31.5-156 31.5-156 85.5-127 127-85.5 156-31.5 156 31.5 127 85.5q54 54 85.5 127t31.5 156-31.5 156-85.5 127q-54 54-127 85.5t-156 31.5zm0-80q134 0 227-93 93-93 93-227t-93-227q-93-93-227-93t-227 93-93 227 93 227 227 93z" fill="#00b319" stroke="#fff" stroke-width="21.333" style="paint-order:markers stroke fill"/>
   <text x="246.03525" y="-145.68703" fill="#b20000" font-family="'Roboto Condensed'" font-size="1124.9px" letter-spacing="-42.184px" stroke="#000000" stroke-linejoin="round" stroke-width="22.451" text-align="center" text-anchor="middle" style="paint-order:markers stroke fill" xml:space="preserve"><tspan x="224.94334" y="-145.68703" fill="#b20000" stroke="#000000" stroke-linejoin="round" stroke-width="22.451" style="paint-order:markers stroke fill">D</tspan></text>
   <text x="1206.4364" y="-158.88254" fill="#0100b2" font-family="'Roboto Condensed'" font-size="1091px" letter-spacing="-40.913px" stroke="#000000" stroke-linecap="round" stroke-linejoin="round" stroke-width="22.343" text-align="center" text-anchor="middle" style="paint-order:markers stroke fill" xml:space="preserve"><tspan x="1185.9797" y="-158.88254" fill="#0100b2" stroke="#000000" stroke-linecap="round" stroke-linejoin="round" stroke-width="22.343" style="paint-order:markers stroke fill">S</tspan></text>
  </g>
  <g transform="translate(214.11 -69.333)">
   <path d="m740.23-797.97v28.203c5.1809 4.6583 10.21 9.4289 15.156 14.375 35.04 35.04 62.862 76.092 83.359 123.59 20.416 47.314 30.547 97.811 30.547 151.8 0 5.7699-0.14894 11.448-0.39063 17.109h21.484c0.22755-5.6756 0.31252-11.376 0.3125-17.109 0-56.681-10.838-110.21-32.422-160.23-21.503-49.832-50.775-93.353-87.734-130.31-9.6689-9.6689-19.753-18.808-30.312-27.422zm0 111.88v36.094c32.848 49.357 49.062 105.7 49.062 170 0 5.7641-0.12714 11.463-0.39063 17.109h21.328c0.29258-5.6482 0.46874-11.325 0.46874-17.109 0-78.586-23.624-147.77-70.469-206.09z" fill="#fff" stop-color="#000000" style="paint-order:markers stroke fill"/>
   <path d="m740.23-784.06v115.47c39.876 54.075 59.766 116.94 59.766 188.59 0 11.186-0.5132 22.133-1.4844 32.891h80.234c0.84489-10.838 1.25-21.785 1.25-32.891 0-55.333-10.484-107.35-31.484-156.02-21-48.667-49.547-90.953-85.547-126.95-7.3281-7.3281-14.884-14.384-22.734-21.094z" fill="#00b319" stop-color="#000000" style="paint-order:markers stroke fill"/>
  </g>
  <g transform="translate(214.11 -69.333)">
   <path d="m289.3-843.75c-37.299 19.571-70.622 43.981-99.844 73.203-36.96 36.96-66.232 80.481-87.734 130.31-20.203 46.819-30.975 96.698-32.266 149.38h21.484c1.2829-49.905 11.274-96.816 30.312-140.94 20.497-47.502 48.319-88.553 83.359-123.59 25.089-25.089 53.254-46.44 84.688-64.062zm0 92.031c-15.296 10.902-29.99 23.193-43.906 37.109-61.279 61.279-93.32 136.58-95.781 223.75h21.25c2.3822-82.074 32.022-150.93 89.688-208.59 9.2791-9.2791 18.87-17.814 28.75-25.625z" fill="#fff" stop-color="#000000" style="paint-order:markers stroke fill"/>
   <path d="m300-837.27c-38.717 19.568-73.019 44.347-102.97 74.297-36 36-64.547 78.286-85.547 126.95-21 48.667-31.484 100.68-31.484 156.02h80c0-89.333 30.969-165.03 92.969-227.03 14.88-14.88 30.577-27.91 47.031-39.219z" fill="#00b319" stop-color="#000000" style="paint-order:markers stroke fill"/>
  </g>
 </g>
</svg>
