<?xml version="1.0" encoding="UTF-8"?>
<!-- Created with Inkscape (http://www.inkscape.org/) -->
<svg width="276.76" height="171.01" version="1.1" xmlns="http://www.w3.org/2000/svg" xmlns:cc="http://creativecommons.org/ns#" xmlns:dc="http://purl.org/dc/elements/1.1/" xmlns:rdf="http://www.w3.org/1999/02/22-rdf-syntax-ns#">
 <metadata>
  <rdf:RDF>
   <cc:Work rdf:about="">
    <dc:format>image/svg+xml</dc:format>
    <dc:type rdf:resource="http://purl.org/dc/dcmitype/StillImage"/>
   </cc:Work>
  </rdf:RDF>
 </metadata>
 <path d="m225.54 97.698c-18.614 3.8225-26.923 14.957-18.78 25.428 4.1548 5.1521 14.625 8.6421 32.906 10.969 21.107 2.6591 27.921 7.645 21.107 15.124-7.6449 8.3097-33.239 7.9773-54.345-0.8309-2.4929-0.9972-2.9915-0.3324-2.9915 4.4872v5.8168l11.467 2.1605c19.278 3.6564 42.878 1.6619 51.852-4.321 18.946-12.797 10.138-26.923-19.278-30.58-20.276-2.6592-27.09-4.4873-29.084-8.3097-6.9801-12.963 25.594-17.783 52.019-7.4787 2.3267 0.99716 2.8253 0.33239 2.8253-3.8225 0-5.8168-0.66477-6.1492-17.45-8.6421-13.462-1.8281-20.442-1.8281-30.247 0z"/>
 <path d="m4.4433 38.071v32.982h13.531v-32.136h20.128c15.73 0 20.297-0.50744 20.973-2.3679 1.5222-4.0594-0.33828-4.3977-21.142-4.3977h-19.958v-18.605h23.51c17.421 0 23.679-0.50742 24.356-2.1988 2.0297-5.7507-0.50741-6.2581-31.122-6.2581h-30.276z" stroke-width="1.0177"/>
 <path d="m4 130.11v32.906l22.935-0.9971c38.889-1.662 56.838-11.634 56.838-31.743 0-21.107-16.952-31.078-55.176-32.242l-24.597-0.83097zm47.033-22.27c11.8 3.1577 18.614 11.301 18.614 21.938 0 16.121-10.304 22.935-36.895 24.098l-17.118 0.8309v-48.695h14.625c7.9773 0 17.284 0.83097 20.774 1.8281z"/>
 <g stroke-width="1.0177">
  <path d="m80.218 22.341c-0.33826 0.67656-0.33826 12.009 0 25.033l0.50741 23.679h11.671v-35.519l6.089-2.5371c3.3828-1.3531 10.994-2.5371 16.745-2.5371 10.317 0 10.656-0.16914 10.317-4.2285-0.16914-5.0742-13.531-5.9199-25.54-1.6914-3.721 1.3531-6.9347 2.5371-7.1038 2.5371-0.33827 0-0.50742-1.3531-0.50742-3.0445 0-2.8754-11.332-4.5668-12.178-1.6914z"/>
  <path d="m151.26 22.341c-25.878 6.9347-26.555 37.887-0.8457 46.344 9.4718 3.2137 39.917 2.5371 44.145-0.84562 2.8754-2.368 2.1988-9.641-0.8457-8.7952-1.3531 0.33829-6.2581 1.8605-10.994 3.2137-16.406 4.7359-35.688-1.0149-38.395-11.501-0.84571-3.2137-0.16915-3.3827 26.047-3.3827h26.893v-6.4273c0-16.237-21.65-25.033-46.006-18.605zm30.952 9.6409c6.4273 7.7804 4.905 8.6261-17.083 8.6261-15.899 0-20.297-0.50744-20.297-2.1988 0-10.318 30.107-15.392 37.38-6.4273z"/>
  <path d="m230.24 22.172c-25.878 7.4421-25.878 38.056-0.16915 46.513 8.2878 2.8754 35.012 2.7062 42.116-0.16914 4.7359-2.0296 3.8902-9.9792-0.84569-8.626-25.033 7.1038-44.145 3.5518-47.528-9.1335-0.84568-3.2137-0.16912-3.3827 26.047-3.3827h26.893v-6.4273c0-16.068-23.51-25.54-46.513-18.774zm27.739 7.4421c4.3976 2.1988 6.9347 5.5816 6.9347 9.4719 0 0.84562-9.1335 1.5222-20.297 1.5222-15.899 0-20.297-0.50744-20.297-2.1988 0-8.7953 22.495-14.715 33.659-8.7953z"/>
 </g>
 <g fill="#fff">
  <path d="m221.54 92.698c-18.614 3.8224-26.923 14.957-18.78 25.428 4.1548 5.1521 14.625 8.6421 32.906 10.969 21.107 2.6591 27.921 7.645 21.107 15.124-7.6449 8.3097-33.239 7.9773-54.345-0.8309-2.4929-0.9972-2.9915-0.3324-2.9915 4.4872v5.8168l11.467 2.1605c19.278 3.6564 42.878 1.6619 51.852-4.321 18.946-12.797 10.138-26.923-19.278-30.58-20.276-2.6592-27.09-4.4873-29.084-8.3097-6.9801-12.963 25.594-17.783 52.019-7.4787 2.3267 0.99716 2.8253 0.33239 2.8253-3.8225 0-5.8168-0.66477-6.1492-17.45-8.6421-13.462-1.8281-20.442-1.8281-30.247 0z"/>
  <path d="m0.37241 32.982v32.982h13.531v-32.136h20.128c15.73 0 20.297-0.50744 20.973-2.3679 1.5222-4.0594-0.33826-4.3977-21.142-4.3977h-19.958v-18.605h23.51c17.421 0 23.679-0.50742 24.356-2.1988 2.0297-5.7507-0.50742-6.2581-31.122-6.2581h-30.276z" stroke-width="1.0177"/>
  <path d="m0 125.11v32.906l22.935-0.9971c38.889-1.662 56.838-11.634 56.838-31.743 0-21.107-16.952-31.078-55.176-32.242l-24.597-0.83097zm47.033-22.27c11.8 3.1577 18.614 11.301 18.614 21.938 0 16.121-10.304 22.935-36.895 24.098l-17.118 0.8309v-48.695h14.625c7.9773 0 17.284 0.83097 20.774 1.8281z"/>
  <g stroke-width="1.0177">
   <path d="m76.147 17.252c-0.33828 0.67656-0.33828 12.009 0 25.033l0.50741 23.679h11.671v-35.519l6.089-2.5371c3.3828-1.3531 10.994-2.5371 16.745-2.5371 10.317 0 10.656-0.16914 10.317-4.2285-0.16914-5.0742-13.531-5.9199-25.54-1.6914-3.721 1.3531-6.9347 2.5371-7.1038 2.5371-0.33828 0-0.50741-1.3531-0.50741-3.0445 0-2.8754-11.332-4.5667-12.178-1.6914z"/>
   <path d="m147.19 17.252c-25.878 6.9347-26.555 37.887-0.8457 46.344 9.4718 3.2137 39.917 2.5371 44.145-0.84562 2.8754-2.368 2.1988-9.641-0.84569-8.7953-1.3531 0.33829-6.2581 1.8605-10.994 3.2137-16.406 4.7359-35.688-1.0149-38.395-11.501-0.8457-3.2137-0.16913-3.3827 26.047-3.3827h26.893v-6.4273c0-16.237-21.65-25.033-46.006-18.605zm30.952 9.6409c6.4273 7.7804 4.905 8.6261-17.083 8.6261-15.899 0-20.297-0.50744-20.297-2.1988 0-10.318 30.107-15.392 37.38-6.4273z"/>
   <path d="m226.17 17.083c-25.878 7.4421-25.878 38.056-0.16914 46.513 8.2878 2.8754 35.012 2.7062 42.116-0.16914 4.7359-2.0296 3.8902-9.9792-0.84569-8.626-25.033 7.1038-44.145 3.5518-47.528-9.1335-0.84569-3.2137-0.16912-3.3827 26.047-3.3827h26.893v-6.4273c0-16.068-23.51-25.54-46.513-18.774zm27.739 7.4421c4.3976 2.1988 6.9347 5.5816 6.9347 9.4719 0 0.84562-9.1335 1.5222-20.297 1.5222-15.899 0-20.297-0.50744-20.297-2.1988 0-8.7953 22.495-14.715 33.659-8.7953z"/>
  </g>
 </g>
 <g transform="matrix(.33103 0 0 .33103 63.269 73.342)">
  <g fill-rule="evenodd">
   <path d="m81.627 212.23 4.8016-81.627 28.81-61.46 40.333-38.413 52.817-18.246 63.381 4.8016 45.135 30.73 37.452 46.095 24.008 73.944 24.968-6.7222 14.405 3.8413-26.889 31.69-2.881 21.127 17.286 32.651-22.087-11.524-26.889-29.77-19.206 22.087 0.96032 13.444 7.6825 27.849-2.881 16.325-36.492-36.492-14.405 14.405-47.056 14.405h-58.579l-40.333-9.6032-11.524-2.881-21.127 17.286-1.9206-14.405 7.6825-20.167z" fill="#bfcfe7"/>
   <path transform="translate(-.96032 -3.8413)" d="m161.33 182.94a23.528 24.488 0 1 1-0.10951-2.3599" fill="#fff"/>
   <path transform="translate(.96032 -4.8016)" d="m211.27 187.74a18.246 19.687 0 1 1-0.0849-1.8972" fill="#fff"/>
  </g>
  <g>
   <path d="m211.4 8.9408c-42.413 3.058-75.784 24.597-104.37 67.009-16.221 24.198-21.007 38.956-30.048 92.271-0.79773 4.7864-1.0636 15.556-0.53182 26.99 1.0636 20.874 0.13296 18.747 11.168 25.926 2.5261 1.5955 8.3762 7.9773 13.03 13.96 4.5205 6.1159 9.8387 12.365 11.567 13.694l3.3239 2.5261-4.1216 8.908c-6.3818 13.561-5.983 32.308 0.66477 32.308 2.5262 0 12.232-7.0466 19.544-14.093l5.983-5.85 13.296 5.1852c47.332 18.481 103.84 14.359 147.71-10.636l11.7-6.7807 4.5205 5.0523c2.5262 2.925 7.9773 9.4398 11.966 14.492 13.694 17.018 16.353 18.481 19.677 10.37 5.4512-12.764 4.1216-23.666-5.5841-48.396l-2.3932-6.2489 9.1739-8.775c11.035-10.503 9.7057-10.238 15.689-2.3932 8.3762 11.168 25.66 23.932 38.956 28.984 9.3068 3.4568 9.4398 0.26591 1.0636-13.428-15.423-24.73-16.353-32.042-5.983-46.667 7.1796-10.37 15.29-18.215 22.071-21.406 5.4512-2.5262 5.7171-4.2546 1.7284-7.9773-6.7807-6.1159-20.209-7.7114-31.244-3.8557-6.6478 2.3932-7.8443 1.5955-9.5728-5.983-21.007-93.467-82.432-149.97-159.01-145.85-2.2602 0.13296-6.6478 0.39886-9.9716 0.66478zm51.188 11.434c22.469 5.5841 39.355 15.556 55.974 33.106 29.649 31.643 46.534 69.535 54.91 123.12 0.13296 0.26591 2.1273-1.1966 4.5205-3.1909 7.3125-6.1159 22.071-9.9716 31.244-7.8443 3.5898 0.66477 3.4568 0.93068-8.3762 13.163-20.608 21.273-21.805 36.563-4.5205 60.893 1.7284 2.2602 2.1273 3.7227 1.0636 3.7227-6.5148 0-35.233-31.111-34.568-37.493 0.79773-7.9773-9.8387-2.3932-16.221 8.6421-1.8614 3.058-4.9193 7.0466-6.9137 8.908l-3.5898 3.3239-3.7227-4.5205c-3.4568-3.9886-3.9886-4.2546-6.5148-2.5262l-2.6591 1.8614 2.6591 4.5205c8.3762 13.561 17.018 38.557 17.151 48.529 0 11.035-3.1909 10.902-11.035-0.53181-6.1159-9.1739-23.4-27.921-27.655-30.048-9.0409-4.7864-14.093-1.5955-7.1796 4.5205 6.7807 5.85 6.7807 5.85-10.105 15.157-30.846 16.885-103.57 21.007-130.3 7.5784-14.758-7.5784-38.158-25.394-44.008-33.505l-2.7921-4.1216 3.1909 0.79773c1.7284 0.39886 8.6421 2.2602 15.423 4.1216 27.256 7.4455 102.91 8.6421 117.4 1.8614 18.88-8.775 21.007-21.406 2.3932-14.359-33.106 12.631-101.31 8.908-142-7.5784-9.8387-3.9886-18.747-7.7114-19.81-8.1103-2.3932-0.93068-1.1966-43.077 1.7284-60.096 7.9773-46.667 32.973-91.34 62.356-111.42 3.058-2.1273 7.8444-5.3182 10.636-7.3125 18.614-12.764 71.131-18.481 101.31-11.168zm-135.08 244.37c1.7284 2.2602 2.925 4.1216 2.6591 4.3875-5.85 3.9886-14.758 8.908-15.423 8.2432-1.1966-1.1966 1.8614-10.37 4.5205-13.694 3.058-3.8557 4.3875-3.7227 8.2432 1.0636z"/>
   <path d="m123.38 152.4c-15.822 8.5091-20.608 37.094-8.1103 48.529 20.741 19.278 49.725 5.3182 50.124-24.065 0.26591-18.348-25.66-33.372-42.014-24.464zm23.533 6.9137c14.758 9.1739 17.018 20.475 7.0466 34.435-15.955 22.203-48.13 1.5955-38.158-24.464 4.2546-11.301 20.342-16.486 31.111-9.9716z"/>
   <path d="m130.96 164.76c-12.498 5.1852-10.503 26.724 2.5262 27.788 5.85 0.53182 8.2432-1.0636 10.902-7.4455 5.5841-13.428-1.9943-24.996-13.428-20.342zm10.503 5.85c0.79773 1.1966 0.93068 2.5261 0.39886 3.058-1.5955 1.7284-10.902-1.3296-11.301-3.7227-0.79773-4.2546 8.1103-3.7227 10.902 0.66478z"/>
   <path d="m187.33 160.91c-20.209 6.1159-19.544 37.227 1.0636 44.673 8.908 3.058 14.093 2.3932 19.544-2.6591 17.683-16.885 1.9943-48.927-20.608-42.014zm12.099 7.3125c11.7 6.1159 13.428 19.278 3.7227 29.516-8.1103 8.6421-23.666-1.3296-23.666-14.891 0-12.764 9.7057-19.943 19.943-14.625z"/>
   <path d="m186.8 175c-5.7171 8.775-0.93068 22.203 7.0466 19.677 7.8443-2.5261 10.902-6.3818 10.902-13.827 0-8.3762-13.428-12.764-17.949-5.85zm11.301 1.1966c2.1273 2.5261 0.66477 4.5205-2.6591 3.7227-3.1909-0.79773-4.5205-2.5262-3.3239-4.3875 1.1966-1.8614 4.1216-1.5955 5.983 0.66478z"/>
  </g>
 </g>
</svg>
