<?xml version="1.0" encoding="UTF-8" standalone="no"?>
<!-- Created with Inkscape (http://www.inkscape.org/) -->

<svg
   xmlns:dc="http://purl.org/dc/elements/1.1/"
   xmlns:cc="http://creativecommons.org/ns#"
   xmlns:rdf="http://www.w3.org/1999/02/22-rdf-syntax-ns#"
   xmlns:svg="http://www.w3.org/2000/svg"
   xmlns="http://www.w3.org/2000/svg"
   version="1.1"
   width="600"
   height="120"
   id="svg2997">
  <defs
     id="defs2999" />
  <metadata
     id="metadata3002">
    <rdf:RDF>
      <cc:Work
         rdf:about="">
        <dc:format>image/svg+xml</dc:format>
        <dc:type
           rdf:resource="http://purl.org/dc/dcmitype/StillImage" />
        <dc:title></dc:title>
      </cc:Work>
    </rdf:RDF>
  </metadata>
  <g
     transform="translate(0,-932.36218)"
     id="layer1">
    <path
       d="m 529.05146,970.04809 c -18.6137,3.82245 -26.92339,14.95744 -18.7799,25.42764 4.15485,5.15207 14.62505,8.64207 32.90636,10.96877 21.10661,2.6591 27.92055,7.645 21.10661,15.1236 -7.64491,8.3097 -33.23875,7.9773 -54.34536,-0.8309 -2.4929,-0.9972 -2.99148,-0.3324 -2.99148,4.4872 l 0,5.8168 11.46737,2.1605 c 19.27847,3.6564 42.87798,1.6619 51.85245,-4.321 18.94608,-12.7969 10.13782,-26.9234 -19.27848,-30.57962 -20.27564,-2.65915 -27.08958,-4.48728 -29.08391,-8.30974 -6.98013,-12.96311 25.59384,-17.78273 52.01865,-7.47872 2.32671,0.99716 2.82529,0.33239 2.82529,-3.82246 0,-5.81678 -0.66477,-6.14917 -17.45034,-8.64207 -13.46169,-1.82813 -20.44183,-1.82813 -30.24726,0 z"
       id="path20" />
    <path
       d="m 20,1002.4559 0,32.4077 6.64775,0 6.64775,0 0,-15.7884 0,-15.7883 19.77706,0 c 15.45602,0 19.94325,-0.4986 20.60802,-2.3267 1.49575,-3.98872 -0.33238,-4.32112 -20.77421,-4.32112 l -19.61087,0 0,-9.14065 0,-9.14065 23.10093,0 c 17.11796,0 23.26713,-0.49859 23.9319,-2.16052 1.99433,-5.65059 -0.49858,-6.14917 -30.57965,-6.14917 l -29.74868,0 0,32.40781 z"
       id="path22" />
    <path
       d="m 307.51519,1002.4559 0,32.9063 22.93473,-0.9971 c 38.88934,-1.662 56.83827,-11.6336 56.83827,-31.743 0,-21.10664 -16.95176,-31.07827 -55.17633,-32.24162 l -24.59667,-0.83097 0,32.90639 z m 47.03283,-22.26999 c 11.79976,3.15768 18.6137,11.30117 18.6137,21.93759 0,16.1208 -10.30401,22.9347 -36.89501,24.0981 l -17.11796,0.8309 0,-24.4304 0,-24.26432 14.62505,0 c 7.9773,0 17.28415,0.83097 20.77422,1.82813 z"
       id="path24" />
    <path
       d="m 94.4548,986.99985 c -0.33238,0.66478 -0.33238,11.79973 0,24.59675 l 0.49858,23.267 5.81679,0 5.65058,0 0,-17.4503 0,-17.45032 5.98298,-2.4929 c 3.32387,-1.32957 10.80259,-2.49293 16.45318,-2.49293 10.13782,0 10.4702,-0.16619 10.13782,-4.15484 -0.1662,-4.98581 -13.2955,-5.81678 -25.09526,-1.66194 -3.65626,1.32955 -6.81394,2.49291 -6.98014,2.49291 -0.33238,0 -0.49858,-1.32955 -0.49858,-2.99149 0,-2.82529 -11.13498,-4.48723 -11.96595,-1.66194 z"
       id="path26" />
    <path
       d="m 164.25618,986.99985 c -25.42765,6.81395 -26.09242,37.22735 -0.83097,45.53705 9.30685,3.1577 39.22172,2.4929 43.37656,-0.8309 2.8253,-2.3268 2.16052,-9.4731 -0.83096,-8.6421 -1.32955,0.3324 -6.14917,1.8281 -10.8026,3.1577 -16.12079,4.6534 -35.06688,-0.9972 -37.72598,-11.3012 -0.83097,-3.1577 -0.16619,-3.3238 25.59384,-3.3238 l 26.42481,0 0,-6.3154 c 0,-15.95464 -21.27281,-24.59671 -45.2047,-18.28135 z m 30.41345,9.47303 c 6.31536,7.64492 4.81962,8.47592 -16.78557,8.47592 -15.62221,0 -19.94325,-0.4986 -19.94325,-2.1605 0,-10.13786 29.58249,-15.12367 36.72882,-6.31542 z"
       id="path28" />
    <path
       d="m 241.86866,986.83366 c -25.42765,7.31252 -25.42765,37.39354 -0.1662,45.70324 8.1435,2.8253 34.40211,2.6591 41.38225,-0.1662 4.65342,-1.9943 3.82245,-9.8054 -0.83097,-8.4758 -24.59668,6.9801 -43.37657,3.49 -46.70045,-8.9745 -0.83097,-3.1577 -0.16619,-3.3238 25.59384,-3.3238 l 26.42481,0 0,-6.3154 c 0,-15.78844 -23.10093,-25.09529 -45.70328,-18.44754 z m 27.25577,7.31252 c 4.32104,2.1605 6.81394,5.4844 6.81394,9.30692 0,0.8309 -8.97446,1.4957 -19.94325,1.4957 -15.62221,0 -19.94325,-0.4986 -19.94325,-2.1605 0,-8.64212 22.10377,-14.4589 33.07256,-8.64212 z"
       id="path30" />
  </g>
  <g
     transform="translate(-4,-937.3622)"
     id="layer1-3"
     style="fill:#ffffff">
    <path
       d="m 529.05146,970.04809 c -18.6137,3.82245 -26.92339,14.95744 -18.7799,25.42764 4.15485,5.15207 14.62505,8.64207 32.90636,10.96877 21.10661,2.6591 27.92055,7.645 21.10661,15.1236 -7.64491,8.3097 -33.23875,7.9773 -54.34536,-0.8309 -2.4929,-0.9972 -2.99148,-0.3324 -2.99148,4.4872 l 0,5.8168 11.46737,2.1605 c 19.27847,3.6564 42.87798,1.6619 51.85245,-4.321 18.94608,-12.7969 10.13782,-26.9234 -19.27848,-30.57962 -20.27564,-2.65915 -27.08958,-4.48728 -29.08391,-8.30974 -6.98013,-12.96311 25.59384,-17.78273 52.01865,-7.47872 2.32671,0.99716 2.82529,0.33239 2.82529,-3.82246 0,-5.81678 -0.66477,-6.14917 -17.45034,-8.64207 -13.46169,-1.82813 -20.44183,-1.82813 -30.24726,0 z"
       id="path20-1"
       style="fill:#ffffff" />
    <path
       d="m 20,1002.4559 0,32.4077 6.64775,0 6.64775,0 0,-15.7884 0,-15.7883 19.77706,0 c 15.45602,0 19.94325,-0.4986 20.60802,-2.3267 1.49575,-3.98872 -0.33238,-4.32112 -20.77421,-4.32112 l -19.61087,0 0,-9.14065 0,-9.14065 23.10093,0 c 17.11796,0 23.26713,-0.49859 23.9319,-2.16052 1.99433,-5.65059 -0.49858,-6.14917 -30.57965,-6.14917 l -29.74868,0 0,32.40781 z"
       id="path22-8"
       style="fill:#ffffff" />
    <path
       d="m 307.51519,1002.4559 0,32.9063 22.93473,-0.9971 c 38.88934,-1.662 56.83827,-11.6336 56.83827,-31.743 0,-21.10664 -16.95176,-31.07827 -55.17633,-32.24162 l -24.59667,-0.83097 0,32.90639 z m 47.03283,-22.26999 c 11.79976,3.15768 18.6137,11.30117 18.6137,21.93759 0,16.1208 -10.30401,22.9347 -36.89501,24.0981 l -17.11796,0.8309 0,-24.4304 0,-24.26432 14.62505,0 c 7.9773,0 17.28415,0.83097 20.77422,1.82813 z"
       id="path24-9"
       style="fill:#ffffff" />
    <path
       d="m 94.4548,986.99985 c -0.33238,0.66478 -0.33238,11.79973 0,24.59675 l 0.49858,23.267 5.81679,0 5.65058,0 0,-17.4503 0,-17.45032 5.98298,-2.4929 c 3.32387,-1.32957 10.80259,-2.49293 16.45318,-2.49293 10.13782,0 10.4702,-0.16619 10.13782,-4.15484 -0.1662,-4.98581 -13.2955,-5.81678 -25.09526,-1.66194 -3.65626,1.32955 -6.81394,2.49291 -6.98014,2.49291 -0.33238,0 -0.49858,-1.32955 -0.49858,-2.99149 0,-2.82529 -11.13498,-4.48723 -11.96595,-1.66194 z"
       id="path26-6"
       style="fill:#ffffff" />
    <path
       d="m 164.25618,986.99985 c -25.42765,6.81395 -26.09242,37.22735 -0.83097,45.53705 9.30685,3.1577 39.22172,2.4929 43.37656,-0.8309 2.8253,-2.3268 2.16052,-9.4731 -0.83096,-8.6421 -1.32955,0.3324 -6.14917,1.8281 -10.8026,3.1577 -16.12079,4.6534 -35.06688,-0.9972 -37.72598,-11.3012 -0.83097,-3.1577 -0.16619,-3.3238 25.59384,-3.3238 l 26.42481,0 0,-6.3154 c 0,-15.95464 -21.27281,-24.59671 -45.2047,-18.28135 z m 30.41345,9.47303 c 6.31536,7.64492 4.81962,8.47592 -16.78557,8.47592 -15.62221,0 -19.94325,-0.4986 -19.94325,-2.1605 0,-10.13786 29.58249,-15.12367 36.72882,-6.31542 z"
       id="path28-4"
       style="fill:#ffffff" />
    <path
       d="m 241.86866,986.83366 c -25.42765,7.31252 -25.42765,37.39354 -0.1662,45.70324 8.1435,2.8253 34.40211,2.6591 41.38225,-0.1662 4.65342,-1.9943 3.82245,-9.8054 -0.83097,-8.4758 -24.59668,6.9801 -43.37657,3.49 -46.70045,-8.9745 -0.83097,-3.1577 -0.16619,-3.3238 25.59384,-3.3238 l 26.42481,0 0,-6.3154 c 0,-15.78844 -23.10093,-25.09529 -45.70328,-18.44754 z m 27.25577,7.31252 c 4.32104,2.1605 6.81394,5.4844 6.81394,9.30692 0,0.8309 -8.97446,1.4957 -19.94325,1.4957 -15.62221,0 -19.94325,-0.4986 -19.94325,-2.1605 0,-8.64212 22.10377,-14.4589 33.07256,-8.64212 z"
       id="path30-3"
       style="fill:#ffffff" />
  </g>
  <g
     transform="matrix(0.33103448,0,0,0.33103448,366.7843,13.330216)"
     id="g1896">
    <path
       d="m 81.626984,212.23016 4.801587,-81.62699 28.809529,-61.460313 40.33333,-38.412698 52.81746,-18.246032 63.38095,4.801587 45.13492,30.730159 37.45238,46.095238 24.00794,73.944449 24.96825,-6.72223 14.40477,3.84127 -26.88889,31.69048 -2.88096,21.12698 17.28572,32.6508 -22.0873,-11.52381 -26.88889,-29.76984 -19.20635,22.0873 0.96032,13.44444 7.68254,27.84921 -2.88096,16.3254 -36.49206,-36.49207 -14.40476,14.40476 -47.05556,14.40477 -58.57936,0 -40.33334,-9.60318 -11.52381,-2.88095 -21.12698,17.28571 -1.92063,-14.40476 7.68254,-20.16667 -37.452386,-39.37301 z"
       id="path4690"
       style="fill:#bfcfe7;fill-opacity:1;fill-rule:evenodd;stroke:none" />
    <path
       d="m 161.33334,182.94048 a 23.527779,24.488094 0 1 1 -0.10951,-2.35988"
       transform="translate(-0.960317,-3.84127)"
       id="path2025"
       style="fill:#ffffff;fill-opacity:1;fill-rule:evenodd;stroke:none" />
    <path
       d="m 211.26983,187.74207 a 18.246031,19.686508 0 1 1 -0.0849,-1.89716"
       transform="translate(0.960317,-4.801588)"
       id="path2912"
       style="fill:#ffffff;fill-opacity:1;fill-rule:evenodd;stroke:none" />
    <path
       d="M 211.39845,8.940835 C 168.9858,11.9988 135.6141,33.53751 107.02877,75.950155 90.808265,100.14797 86.021885,114.90597 76.980945,168.22093 c -0.79773,4.78638 -1.06364,15.55573 -0.53182,26.98986 1.06364,20.87394 0.132955,18.74666 11.16822,25.92623 2.526145,1.59546 8.376165,7.9773 13.029585,13.96027 4.52047,6.11593 9.83867,12.36482 11.56709,13.69437 l 3.32387,2.52614 -4.1216,8.90799 c -6.38184,13.5614 -5.98298,32.30806 0.66477,32.30806 2.52615,0 12.23186,-7.04662 19.54439,-14.09323 l 5.98297,-5.85002 13.2955,5.18525 c 47.33198,18.48074 103.83786,14.35914 147.71301,-10.6364 l 11.70004,-6.78071 4.52047,5.05229 c 2.52615,2.92501 7.9773,9.43981 11.96595,14.49209 13.69436,17.01824 16.35346,18.48075 19.67734,10.3705 5.45115,-12.76369 4.1216,-23.666 -5.58411,-48.39563 l -2.39319,-6.24888 9.17389,-8.77503 c 11.03527,-10.50344 9.70572,-10.23753 15.68869,-2.39319 8.37617,11.16822 25.66032,23.9319 38.95582,28.98419 9.30685,3.45683 9.4398,0.26591 1.06364,-13.42845 -15.42278,-24.72963 -16.35347,-32.04216 -5.98298,-46.66721 7.17957,-10.37049 15.28983,-18.21483 22.07053,-21.40575 5.45116,-2.52615 5.71707,-4.25456 1.72842,-7.9773 -6.78071,-6.11593 -20.20916,-7.71139 -31.24443,-3.8557 -6.64775,2.39319 -7.84434,1.59546 -9.57276,-5.98297 C 359.37736,60.66033 297.95216,4.154455 221.37007,8.27606 c -2.26023,0.132955 -6.64775,0.398865 -9.97162,0.664775 z m 51.18767,11.43413 c 22.4694,5.58411 39.35468,15.555735 55.97406,33.105795 29.64896,31.64329 46.53425,69.53547 54.91041,123.11633 0.13296,0.26591 2.12728,-1.19659 4.52047,-3.19092 7.31253,-6.11593 22.07053,-9.97162 31.24443,-7.84434 3.58978,0.66477 3.45683,0.93068 -8.37617,13.16254 -20.60802,21.2728 -21.80462,36.56263 -4.52047,60.89339 1.72842,2.26023 2.12728,3.72274 1.06364,3.72274 -6.51479,0 -35.23307,-31.11147 -34.5683,-37.49331 0.79773,-7.9773 -9.83867,-2.39319 -16.22051,8.64208 -1.86137,3.05796 -4.91933,7.04661 -6.91366,8.90798 l -3.58978,3.32388 -3.72274,-4.52047 c -3.45683,-3.98865 -3.98865,-4.25456 -6.5148,-2.52615 l -2.6591,1.86137 2.6591,4.52047 c 8.37617,13.56141 17.01824,38.55695 17.1512,48.52857 0,11.03527 -3.19092,10.90231 -11.03527,-0.53181 -6.11593,-9.1739 -23.40008,-27.92056 -27.65464,-30.04783 -9.04094,-4.78638 -14.09323,-1.59546 -7.17956,4.52047 6.7807,5.85002 6.7807,5.85002 -10.10458,15.15686 -30.84557,16.88529 -103.57195,21.00689 -130.29591,7.57844 -14.758,-7.57844 -38.15808,-25.3944 -44.0081,-33.50466 l -2.79206,-4.1216 3.19092,0.79773 c 1.72842,0.39886 8.64208,2.26023 15.42278,4.1216 27.25578,7.44548 102.90717,8.64208 117.39927,1.86137 18.87961,-8.77503 21.00689,-21.40575 2.39319,-14.35914 -33.1058,12.63073 -101.31171,8.90799 -141.99594,-7.57843 -9.83867,-3.98865 -18.746655,-7.71139 -19.810295,-8.11026 -2.39319,-0.93068 -1.196595,-43.07742 1.728415,-60.09566 7.9773,-46.6672 32.97284,-91.340085 62.35589,-111.41629 3.05797,-2.12728 7.84435,-5.3182 10.6364,-7.312525 18.6137,-12.76368 71.13093,-18.480745 101.31171,-11.16822 z M 127.50384,264.74626 c 1.72842,2.26023 2.92501,4.1216 2.6591,4.38751 -5.85002,3.98865 -14.758,8.90799 -15.42278,8.24321 -1.19659,-1.19659 1.86137,-10.37049 4.52047,-13.69437 3.05797,-3.85569 4.38752,-3.72273 8.24321,1.06365 z"
       id="path8"
       style="fill:#000000;stroke:none" />
    <path
       d="m 123.38224,152.39928 c -15.82165,8.50912 -20.60803,37.09445 -8.11026,48.52858 20.74098,19.27847 49.72517,5.3182 50.12404,-24.06486 0.26591,-18.34779 -25.66032,-33.3717 -42.01378,-24.46372 z m 23.53303,6.91366 c 14.75801,9.1739 17.01824,20.47507 7.04662,34.43535 -15.9546,22.20348 -48.12971,1.59546 -38.15809,-24.46372 4.25456,-11.30118 20.34212,-16.48642 31.11147,-9.97163 z"
       id="path10"
       style="fill:#000000;stroke:none" />
    <path
       d="m 130.96067,164.7641 c -12.49777,5.18524 -10.50344,26.72395 2.52615,27.78759 5.85002,0.53182 8.24321,-1.06364 10.90231,-7.44548 5.58411,-13.42845 -1.99433,-24.99554 -13.42846,-20.34211 z m 10.50345,5.85002 c 0.79773,1.19659 0.93068,2.52614 0.39886,3.05796 -1.59546,1.72842 -10.90231,-1.32955 -11.30117,-3.72274 -0.79773,-4.25456 8.11026,-3.72274 10.90231,0.66478 z"
       id="path12"
       style="fill:#000000;stroke:none" />
    <path
       d="m 187.33359,160.9084 c -20.20916,6.11593 -19.54438,37.2274 1.06364,44.67288 8.90799,3.05797 14.09323,2.39319 19.54439,-2.6591 17.68301,-16.88528 1.99432,-48.92744 -20.60803,-42.01378 z m 12.09891,7.31253 c 11.70004,6.11593 13.42845,19.27847 3.72274,29.51601 -8.11026,8.64207 -23.66599,-1.32955 -23.66599,-14.89096 0,-12.76368 9.70571,-19.94325 19.94325,-14.62505 z"
       id="path14"
       style="fill:#000000;stroke:none" />
    <path
       d="m 186.80177,175.00163 c -5.71706,8.77503 -0.93068,22.20349 7.04662,19.67734 7.84434,-2.52614 10.90231,-6.38184 10.90231,-13.82732 0,-8.37616 -13.42846,-12.76368 -17.94893,-5.85002 z m 11.30118,1.1966 c 2.12728,2.52614 0.66477,4.52047 -2.6591,3.72274 -3.19092,-0.79773 -4.52047,-2.52615 -3.32388,-4.38752 1.1966,-1.86137 4.12161,-1.59546 5.98298,0.66478 z"
       id="path16"
       style="fill:#000000;stroke:none" />
  </g>
</svg>
