<?xml version="1.0" encoding="UTF-8"?>
<svg width="1200pt" height="1200pt" version="1.1" viewBox="0 0 1200 1200" xmlns="http://www.w3.org/2000/svg">
 <path d="m523.36 484.08h-0.046875c-66.656 38.906-89.156 124.5-50.25 191.16 38.906 66.656 124.5 89.156 191.16 50.25 66.656-38.906 89.156-124.45 50.25-191.16-38.859-66.656-124.45-89.156-191.11-50.25zm168.84 144h-0.046874c-10.031 39.609-42.984 69.281-83.438 75.141-40.453 5.9062-80.438-13.172-101.39-48.281-17.25-29.016-18.891-64.734-4.3594-95.203 14.531-30.422 43.312-51.656 76.688-56.484 33.422-4.875 67.031 7.2656 89.625 32.344s31.172 59.766 22.875 92.484zm166.03-113.67c-11.062-33.422-28.547-64.453-51.469-91.219-5.8125-6.8438-15.656-8.5781-23.484-4.1719l-40.125 22.688h-0.046876c-21.328-19.312-46.359-34.125-73.547-43.5l0.46875-46.031c0.09375-8.9531-6.1875-16.734-14.953-18.562-34.547-7.2188-70.172-7.5938-104.86-1.0781-8.8125 1.6406-15.234 9.3281-15.328 18.281l-0.46875 46.078c-27.328 8.8594-52.641 23.156-74.344 42.047l-39.703-23.484c-7.7344-4.5938-17.578-3.0469-23.578 3.6094-23.484 26.438-41.625 57.188-53.391 90.562-2.8594 8.3906 0.60937 17.625 8.25 22.172l39.703 23.438c-6.0469 28.125-6.3281 57.188-0.89062 85.453l-40.125 22.641h0.046874c-7.8281 4.4062-11.438 13.734-8.625 22.266 11.062 33.422 28.547 64.453 51.469 91.219 5.8125 6.8438 15.656 8.5781 23.484 4.1719l40.219-22.688c21.281 19.312 46.312 34.125 73.5 43.5l-0.46875 46.031c-0.09375 8.9531 6.1875 16.734 14.953 18.562 34.547 7.2188 70.172 7.5938 104.86 1.0781 8.8125-1.6406 15.234-9.3281 15.328-18.281l0.46875-46.031c27.375-8.8594 52.688-23.156 74.391-42.047l39.75 23.484c7.6875 4.5469 17.578 3 23.531-3.7031 23.484-26.391 41.625-57.141 53.344-90.516 2.8125-8.3906-0.60938-17.625-8.25-22.172l-39.656-23.438c6.0469-28.125 6.3281-57.188 0.84375-85.406l40.125-22.688c7.7812-4.4062 11.391-13.734 8.5781-22.266zm-79.359 19.125v0.046875c-7.4531 4.2188-11.109 12.891-8.9062 21.188 8.2031 30.797 7.875 63.234-0.89063 93.891-2.3438 8.2031 1.125 16.969 8.4844 21.328l38.062 22.5c-7.9688 18.422-18.234 35.766-30.562 51.656l-38.062-22.5h-0.046876c-7.3594-4.3594-16.734-3.1875-22.781 2.8594-22.547 22.547-50.812 38.531-81.75 46.219-8.2969 2.0625-14.156 9.4688-14.25 18.047l-0.42187 44.109c-19.969 2.4375-40.172 2.2031-60.094-0.60938l0.42187-44.109h0.046876c0.046874-8.5781-5.6719-16.125-13.922-18.328-30.797-8.2969-58.688-24.797-80.766-47.766-5.9531-6.1875-15.281-7.5469-22.734-3.3281l-38.531 21.703c-12-16.078-21.938-33.656-29.438-52.266l38.391-21.656c7.4062-4.2188 11.109-12.891 8.9062-21.141-8.1562-30.844-7.8281-63.328 0.9375-93.984 2.3906-8.25-1.125-17.016-8.4844-21.375l-38.109-22.5c8.0156-18.422 18.281-35.766 30.656-51.656l38.016 22.5h-0.046874c7.3594 4.3594 16.734 3.1875 22.828-2.8594 22.547-22.5 50.812-38.484 81.75-46.219 8.2969-2.0625 14.156-9.4688 14.25-18.047l0.42188-44.109c19.969-2.4375 40.172-2.2031 60.094 0.60938l-0.42188 44.156-0.046874-0.046875c-0.046876 8.5781 5.625 16.125 13.922 18.328 30.797 8.2969 58.734 24.797 80.812 47.766 5.9531 6.1875 15.328 7.5469 22.781 3.3281l38.438-21.703c12.047 16.078 21.938 33.656 29.484 52.266zm383.63 267.98h-66.938c-3.6094-28.828-24.891-51-50.531-51h-69.375v-301.03h69.375c25.641 0 46.922-22.219 50.531-51h66.938c10.359-0.046875 18.75-8.4375 18.75-18.797s-8.3906-18.75-18.75-18.75h-66.938c-3.5625-28.828-24.891-51-50.531-51h-69.375v-20.25c-0.046875-36.047-29.25-65.25-65.297-65.297h-20.297v-69.375c0-25.641-22.172-46.922-50.953-50.531v-66.984c0-10.406-8.3906-18.797-18.75-18.797-10.406 0-18.797 8.3906-18.797 18.797v66.984c-28.828 3.5625-51 24.891-51 50.531v69.375h-80.812v-69.375c0-25.641-22.172-46.922-50.953-50.531v-66.984c0-10.359-8.3906-18.75-18.75-18.75s-18.75 8.3906-18.797 18.75v66.984c-28.828 3.5625-51 24.891-51 50.531v69.375h-80.812v-69.375c0-25.641-22.172-46.922-50.953-50.531v-66.984c0-10.406-8.3906-18.797-18.75-18.797s-18.75 8.3906-18.75 18.797v66.984c-28.828 3.5625-51.047 24.891-51.047 50.531v69.375h-20.25c-36 0.046875-65.203 29.25-65.25 65.297v20.25l-69.422-0.046875c-25.641 0-46.922 22.219-50.531 51l-48.188 0.046875v-238.22c0-10.359-8.4375-18.75-18.797-18.75s-18.75 8.3906-18.75 18.75v256.97c0 4.9688 1.9688 9.75 5.4844 13.266s8.2969 5.5312 13.266 5.5312h67.031c3.6094 28.828 24.891 51 50.531 51h69.375v301.03h-69.422c-25.641 0-46.922 22.219-50.531 51h-66.984c-10.359 0.046875-18.75 8.4375-18.75 18.797s8.3906 18.75 18.75 18.75h67.031c3.5625 28.828 24.891 51 50.531 51l69.375 0.046875v20.203c0.046875 36.047 29.25 65.25 65.25 65.297h20.25v69.375c0 25.641 22.219 46.922 51.047 50.531v67.031-0.046875c0 10.406 8.3906 18.797 18.75 18.797s18.75-8.3906 18.75-18.797v-66.984c28.781-3.6094 50.953-24.891 50.953-50.531v-69.375h80.766l0.046875 69.375c0 25.641 22.219 46.922 51 50.531v67.031-0.046875c0 10.406 8.4375 18.797 18.797 18.797s18.75-8.3906 18.75-18.797v-66.984c28.781-3.6094 50.953-24.891 50.953-50.531v-69.375h80.766l0.046875 69.375c0 25.641 22.219 46.922 51 50.531v67.031-0.046875c0 10.406 8.3906 18.797 18.797 18.797 10.359 0 18.75-8.3906 18.75-18.797v-66.984c28.781-3.6094 50.953-24.891 50.953-50.531v-69.375h20.297c36.047-0.046875 65.25-29.25 65.297-65.297v-20.25h69.375c25.641 0 46.922-22.219 50.531-51h48.188l-0.046875 238.22c0 10.359 8.4375 18.75 18.797 18.75s18.75-8.3906 18.75-18.75v-256.97c0-4.9688-1.9688-9.75-5.4844-13.266s-8.2969-5.5312-13.266-5.5312zm-186.84-454.08h69.375c6.375 0 13.5 9.4688 13.5 22.078v20.25c0 12.703-7.125 22.172-13.5 22.172h-69.375zm-751.22 505.13h-69.422c-6.375 0-13.5-9.4688-13.5-22.078v-20.25c0-12.703 7.125-22.172 13.5-22.172h69.422zm0-440.63h-69.422c-6.375 0-13.5-9.4688-13.5-22.172v-20.25c0-12.656 7.125-22.078 13.5-22.078h69.422zm563.63-256.92c0-6.375 9.4688-13.5 22.078-13.5h20.25c12.656 0 22.078 7.125 22.078 13.5l0.046875 69.375h-64.453zm-220.31 0c0-6.375 9.4688-13.5 22.078-13.5h20.25c12.656 0 22.078 7.125 22.078 13.5l0.046875 69.375h-64.406zm-220.31 0c0-6.375 9.4688-13.5 22.078-13.5h20.25c12.656 0 22.078 7.125 22.078 13.5l0.09375 69.375h-64.453zm64.453 889.97c0 6.375-9.4688 13.5-22.078 13.5h-20.25c-12.656 0-22.078-7.125-22.078-13.5v-69.375h64.453zm220.31 0c0 6.375-9.4688 13.5-22.078 13.5l-20.25 0.046875c-12.656 0-22.078-7.125-22.078-13.5v-69.422h64.453zm220.31 0c0 6.375-9.4688 13.5-22.078 13.5h-20.25c-12.656 0-22.078-7.125-22.078-13.5l-0.046875-69.375h64.453zm85.594-134.68c-0.046875 15.328-12.422 27.75-27.75 27.75h-620.68c-15.281 0-27.703-12.422-27.703-27.75v-620.63c0-15.328 12.422-27.75 27.703-27.75h620.68c15.328 0 27.703 12.422 27.75 27.75zm120.47-79.875c0 12.656-7.125 22.078-13.5 22.078h-69.375l-0.046875-64.453h69.375c6.375 0 13.5 9.4688 13.5 22.172z"/>
</svg>
