<?xml version="1.0" encoding="UTF-8"?>
<svg width="1200pt" height="1200pt" version="1.1" viewBox="0 0 1200 1200" xmlns="http://www.w3.org/2000/svg">
 <path d="m274.18 303.32c-8.8125 0-15.984-7.1719-15.984-15.984v-124.31c0-8.8125 7.1719-15.984 15.984-15.984s15.984 7.1719 15.984 15.984v124.31c0 8.8125-7.125 15.984-15.984 15.984zm-70.219 0c-8.8125 0-15.984-7.1719-15.984-15.984v-124.31c0-8.8125 7.1719-15.984 15.984-15.984s15.984 7.1719 15.984 15.984v124.31c0 8.8125-7.1719 15.984-15.984 15.984z" fill-rule="evenodd"/>
 <path d="m274.18 241.18h-70.219c-8.8125 0-15.984-7.1719-15.984-15.984s7.1719-15.984 15.984-15.984h70.219c8.8125 0 15.984 7.1719 15.984 15.984s-7.1719 15.984-15.984 15.984z" fill-rule="evenodd"/>
 <path d="m416.48 303.32h-34.828c-27.984 0-50.766-22.781-50.766-50.812v-54.609c0-28.031 22.781-50.812 50.766-50.812h34.828c8.8125 0 15.984 7.1719 15.984 15.984s-7.1719 15.984-15.984 15.984h-34.828c-10.359 0-18.844 8.4844-18.844 18.891v11.344h53.625c8.8125 0 15.984 7.1719 15.984 15.984s-7.1719 15.984-15.984 15.984h-53.625v11.344c0 10.406 8.4375 18.891 18.844 18.891h34.828c8.8125 0 15.984 7.1719 15.984 15.984s-7.1719 15.984-15.984 15.984z" fill-rule="evenodd"/>
 <path d="m580.74 303.32c-4.9219 0-9.75-2.25-12.891-6.5156l-32.906-44.672-32.859 44.672c-5.2031 7.125-15.234 8.625-22.312 3.375s-8.625-15.234-3.375-22.312l38.766-52.688-38.766-52.688c-5.25-7.125-3.7031-17.109 3.375-22.312 7.125-5.2031 17.109-3.7031 22.312 3.375l32.859 44.672 32.906-44.672c5.2031-7.125 15.188-8.625 22.312-3.375 7.0781 5.25 8.625 15.234 3.375 22.312l-38.766 52.688 38.766 52.688c5.25 7.125 3.7031 17.109-3.375 22.312-2.8594 2.1094-6.1875 3.0938-9.4688 3.0938z" fill-rule="evenodd"/>
 <path d="m1013.4 1113.1h-740.21c-56.672 0-102.8-46.125-102.8-102.8v-652.5c0-8.8125 7.1719-15.984 15.984-15.984h475.26c4.0781 0 7.5-3.4219 7.5-7.5v-218.39c0-4.0781-3.4219-7.5-7.5-7.5h-474.66c-4.5469 0-8.9062-1.9688-11.953-5.3906-3.0469-3.4219-4.4531-7.9688-3.9375-12.469 6.1406-51.703 50.062-90.656 102.09-90.656h534.28c8.7656 0 15.938 7.125 15.984 15.891 0 1.3125-0.14062 2.5781-0.42188 3.7969v251.39c0 39.047 31.781 70.828 70.828 70.828h206.39c8.8125 0 15.984 7.1719 15.984 15.984v652.5c0 56.672-46.125 102.8-102.8 102.8zm-811.08-739.36v636.56c0 39.094 31.781 70.875 70.875 70.875h740.21c39.094 0 70.875-31.781 70.875-70.875v-636.56h-190.45c-56.672 0-102.75-46.078-102.75-102.75v-239.06h-517.87c-29.578 0-55.312 18.281-65.812 44.625h454.26c21.75 0 39.422 17.672 39.422 39.422v218.39c0 21.75-17.672 39.422-39.422 39.422h-459.32z" fill-rule="evenodd"/>
 <path d="m926.58 1200h-740.21c-56.672 0-102.8-46.125-102.8-102.8v-762.79c0-8.8125 7.1719-15.984 15.984-15.984s15.984 7.1719 15.984 15.984c0 4.0781 3.4219 7.5 7.5 7.5h63.375c8.8125 0 15.984 7.1719 15.984 15.984v652.5c0 39.094 31.781 70.875 70.875 70.875h740.21c8.8125 0 15.984 7.1719 15.984 15.984 0 56.672-46.125 102.84-102.8 102.84zm-811.08-826.92v724.13c0 39.094 31.781 70.875 70.875 70.875h740.21c33.609 0 61.781-23.484 69.047-54.891h-722.44c-56.672 0-102.8-46.125-102.8-102.8v-636.52h-47.438c-2.5781 0-5.0625-0.23438-7.5-0.70312z" fill-rule="evenodd"/>
 <path d="m661.69 373.82h-538.69c-21.75 0-39.422-17.672-39.422-39.422v-218.39c0-21.75 17.672-39.422 39.422-39.422h538.69c21.75 0 39.422 17.672 39.422 39.422v218.39c0 21.75-17.672 39.422-39.422 39.422zm-538.69-265.26c-4.0781 0-7.5 3.4219-7.5 7.5v218.39c0 4.0312 3.4219 7.5 7.5 7.5h538.69c4.0781 0 7.5-3.4219 7.5-7.5v-218.39c0-4.0781-3.4219-7.5-7.5-7.5z" fill-rule="evenodd"/>
 <path d="m1100.5 373.78h-206.57c-56.672 0-102.75-46.078-102.75-102.75v-255.05c0-6.7031 4.1719-12.656 10.406-15s13.312-0.51562 17.672 4.5938l291.89 340.31c3.2812 2.9062 5.3438 7.1719 5.3438 11.953 0 8.8125-7.125 15.984-15.984 15.984zm-277.4-314.68v211.92c0 39.047 31.781 70.828 70.828 70.828h171.66z" fill-rule="evenodd"/>
 <path d="m958.13 1041.2h-629.58c-35.859 0-65.016-29.156-65.016-65.016v-475.31c0-35.859 29.156-65.016 65.016-65.016h629.58c35.859 0 65.016 29.156 65.016 65.016v475.31c0 35.859-29.156 65.016-65.016 65.016zm-629.58-573.37c-18.234 0-33.047 14.859-33.047 33.094v475.31c0 18.234 14.859 33.094 33.047 33.094h629.58c18.234 0 33.047-14.859 33.047-33.047v-475.31c0-18.234-14.859-33.047-33.094-33.047h-629.58z" fill-rule="evenodd"/>
 <path d="m469.13 639.47h-57.891c-15.141 0-27.422-12.328-27.422-27.422v-34.406c0-15.141 12.328-27.422 27.422-27.422h41.906v-25.406h-53.391c-8.8125 0-15.984-7.1719-15.984-15.984s7.1719-15.984 15.984-15.984h57.891c15.141 0 27.422 12.328 27.422 27.422v34.406c0 15.141-12.328 27.422-27.422 27.422h-41.906v25.406h53.391c8.8125 0 15.984 7.1719 15.984 15.984s-7.125 15.984-15.984 15.984z" fill-rule="evenodd"/>
 <path d="m580.22 639.47h-34.547c-17.109 0-31.031-13.922-31.031-31.078v-3.6562c0-8.8125 7.1719-15.984 15.984-15.984s15.984 7.1719 15.984 15.984v2.7656h32.719v-22.078c0-1.0781-0.09375-1.7812-0.1875-2.2031-2.9062-1.2188-11.203-1.2188-16.266-1.2188-9.2812 0-19.219 0-28.078-3.5156-7.5469-3-20.156-11.062-20.156-31.688v-22.922c0-17.109 13.922-31.078 31.031-31.078h34.547c17.109 0 31.031 13.922 31.031 31.078v3.6562c0 8.8125-7.1719 15.984-15.984 15.984s-15.984-7.1719-15.984-15.984v-2.7656h-32.719v22.031c0 0.98438 0.09375 1.6875 0.14062 2.1094 2.9531 1.1719 11.109 1.2656 16.172 1.1719 9.4688 0 19.266 0 28.172 3.5625 7.5469 3 20.203 11.109 20.203 31.781v22.922c0 17.109-13.922 31.031-31.031 31.031z" fill-rule="evenodd"/>
 <path d="m775.13 639.47c-8.8125 0-15.984-7.1719-15.984-15.984v-98.719h-53.391c-8.8125 0-15.984-7.1719-15.984-15.984s7.1719-15.984 15.984-15.984h57.891c15.141 0 27.422 12.328 27.422 27.422v103.22c0 8.8125-7.125 15.984-15.984 15.984z" fill-rule="evenodd"/>
 <path d="m886.92 811.87c-6.7969 0-13.078-4.3594-15.234-11.156l-14.531-45.938h-4.5938v41.109c0 8.8125-7.1719 15.984-15.984 15.984s-15.984-7.1719-15.984-15.984v-110.72c0-10.969 8.9531-19.922 19.922-19.922h28.266c18.797 0 34.031 15.281 34.031 34.031v21.516c0 11.391-5.625 21.516-14.25 27.656l13.5 42.609c2.6719 8.4375-2.0156 17.391-10.406 20.062-1.5938 0.51562-3.2344 0.75-4.8281 0.75zm-34.359-89.016h16.406c1.0781-0.046875 2.0156-0.98438 2.0156-2.0625v-21.516c0-1.125-0.98438-2.1094-2.1094-2.1094h-16.266v25.688z" fill-rule="evenodd"/>
 <path d="m457.64 984.32h-57.891c-8.8125 0-15.984-7.1719-15.984-15.984s7.1719-15.984 15.984-15.984h53.391v-25.406h-41.906c-15.141 0-27.422-12.328-27.422-27.422v-34.406c0-15.141 12.328-27.469 27.422-27.469h57.891c8.8125 0 15.984 7.1719 15.984 15.984s-7.1719 15.984-15.984 15.984h-53.391v25.406h41.906c15.141 0 27.422 12.328 27.422 27.422v34.406c0 15.141-12.328 27.422-27.422 27.422z" fill-rule="evenodd"/>
 <path d="m886.92 984.32c-6.7969 0-13.078-4.3594-15.234-11.156l-14.531-45.938h-4.5938v41.109c0 8.8125-7.1719 15.984-15.984 15.984s-15.984-7.1719-15.984-15.984v-110.72c0-10.969 8.9531-19.922 19.922-19.922h28.266c18.797 0 34.031 15.281 34.031 34.031v21.516c0 11.391-5.625 21.516-14.25 27.656l13.5 42.609c2.6719 8.4375-2.0156 17.391-10.406 20.062-1.5938 0.51562-3.2344 0.75-4.8281 0.75zm-34.359-89.016h16.406c1.0781-0.046875 2.0156-0.98438 2.0156-2.1094v-21.516c0-1.125-0.98438-2.1094-2.1094-2.1094h-16.266v25.688z" fill-rule="evenodd"/>
 <path d="m469.64 812.02c-8.8125 0-15.984-7.1719-15.984-15.984v-41.484h-42.328c-15.469 0-28.031-12.516-28.031-27.891v-45.562c0-8.8125 7.1719-15.984 15.984-15.984s15.984 7.1719 15.984 15.984v41.484h38.438v-41.484c0-8.8125 7.1719-15.984 15.984-15.984s15.984 7.1719 15.984 15.984v114.94c0 8.8125-7.1719 15.984-15.984 15.984z" fill-rule="evenodd"/>
 <path d="m562.92 812.02h-32.859c-8.8125 0-15.984-7.1719-15.984-15.984v-114.94c0-8.8125 7.1719-15.984 15.984-15.984h32.859c26.906 0 48.797 21.891 48.797 48.797v49.266c0 26.906-21.891 48.797-48.797 48.797zm-16.875-31.922h16.875c9.3281 0 16.875-7.5469 16.875-16.875v-49.266c0-9.2812-7.5469-16.875-16.875-16.875h-16.875z" fill-rule="evenodd"/>
 <path d="m760.64 812.02h-58.312c-8.8125 0-15.984-7.1719-15.984-15.984s7.1719-15.984 15.984-15.984h54.422v-25.547h-42.328c-15.469 0-28.031-12.516-28.031-27.891v-33.609c0-15.375 12.562-27.891 28.031-27.891h46.219c15.469 0 28.031 12.516 28.031 27.891v91.078c0 15.375-12.562 27.891-28.031 27.891zm-42.328-89.391h38.438v-25.547h-38.438z" fill-rule="evenodd"/>
 <path d="m861.74 639.61c-8.8125 0-15.984-7.1719-15.984-15.984v-114.94c0-8.8125 7.1719-15.984 15.984-15.984s15.984 7.1719 15.984 15.984v114.94c0 8.8125-7.1719 15.984-15.984 15.984z" fill-rule="evenodd"/>
 <path d="m886.4 524.68h-49.266c-8.8125 0-15.984-7.1719-15.984-15.984s7.1719-15.984 15.984-15.984h49.266c8.8125 0 15.984 7.1719 15.984 15.984s-7.125 15.984-15.984 15.984z" fill-rule="evenodd"/>
 <path d="m886.4 639.61h-49.266c-8.8125 0-15.984-7.1719-15.984-15.984s7.1719-15.984 15.984-15.984h49.266c8.8125 0 15.984 7.1719 15.984 15.984s-7.125 15.984-15.984 15.984z" fill-rule="evenodd"/>
 <path d="m570.94 984.42h-16.031c-22.5 0-40.781-18.141-40.781-40.5v-90.422c0-8.8125 7.1719-15.984 15.984-15.984s15.984 7.1719 15.984 15.984v90.422c0 4.6406 4.0312 8.5781 8.8594 8.5781h16.031c4.7812 0 8.8594-3.9375 8.8594-8.5781v-90.422c0-8.8125 7.1719-15.984 15.984-15.984s15.984 7.1719 15.984 15.984v90.422c0 22.359-18.281 40.5-40.781 40.5z" fill-rule="evenodd"/>
 <path d="m770.34 926.95h-65.672c-8.8125 0-15.984-7.1719-15.984-15.984v-45.516c0-15.375 12.516-27.891 27.891-27.891h41.812c15.375 0 27.891 12.516 27.891 27.891v45.516c0 8.8125-7.1719 15.984-15.984 15.984zm-49.688-31.922h33.75v-25.547h-33.75z" fill-rule="evenodd"/>
 <path d="m758.44 984.42h-41.812c-15.375 0-27.891-12.516-27.891-27.891v-45.516c0-8.8125 7.1719-15.984 15.984-15.984h65.672c8.8125 0 15.984 7.1719 15.984 15.984v45.516c0 15.375-12.516 27.891-27.891 27.891zm-37.781-31.922h33.75v-25.547h-33.75z" fill-rule="evenodd"/>
</svg>
