<?xml version="1.0" encoding="UTF-8"?>
<svg width="1200pt" height="1200pt" version="1.1" viewBox="0 0 1200 1200" xmlns="http://www.w3.org/2000/svg">
 <path d="m84 215.02c-43.824 0-79.512 42.168-79.512 94.008 0 51.816 35.664 93.961 79.512 93.961s79.465-42.145 79.465-93.961c0-51.816-35.664-94.008-79.465-94.008zm-55.488 94.031c0-16.297 4.6328-31.129 12.047-43.031 0.83984 0.43359 1.5586 1.0547 2.5664 1.0547 3.4336 0 6.1914-2.7852 6.1914-6.1914 0-1.6328-0.69531-3.1211-1.7539-4.2227 9.7734-10.824 22.445-17.617 36.438-17.617 13.512 0 25.727 6.3828 35.375 16.535-0.71875-0.28906-1.2969-0.88672-2.1367-0.88672-3.3828 0-6.168 2.7617-6.168 6.168s2.7852 6.1914 6.168 6.1914c3.4336 0 6.1914-2.7852 6.1914-6.1914 0-0.74219-0.52734-1.2227-0.76953-1.8711 6.2148 7.6328 10.824 17.184 13.656 27.77-0.097656 0.45703-0.50391 0.76953-0.50391 1.2461 0 1.7539 0.74219 3.2891 1.8945 4.4141 1.0547 5.3516 1.7539 10.871 1.7539 16.609 0 0.33594-0.070313 0.64844-0.070313 1.0078-1.9922 1.0078-3.5742 2.6875-3.5742 5.0898 0 2.0898 1.1992 3.6719 2.7852 4.8008-2.2305 17.688-9.6719 33.023-20.352 43.703-0.35938-0.070312-0.60156-0.40625-1.0078-0.40625-3.3828 0-6.168 2.7617-6.168 6.168 0 0.097656 0.097656 0.14453 0.097656 0.23828-8.0625 5.7852-17.258 9.3594-27.168 9.3594-30.605 0.023437-55.492-31.367-55.492-69.938z"/>
 <path d="m278.5 215.02c-6.6016 0-12 5.375-12 12v163.97c0 6.625 5.3984 12 12 12 6.625 0 12-5.375 12-12v-163.97c0-6.625-5.375-12-12-12z"/>
 <path d="m472.99 215.02c-43.824 0-79.512 42.168-79.512 94.008 0 51.816 35.641 93.961 79.512 93.961 43.871 0 79.488-42.145 79.488-93.961 0-51.816-35.664-94.008-79.488-94.008zm0 163.99c-10.535 0-20.305-3.9375-28.727-10.414-0.45703-2.9766-2.7617-5.375-5.8555-5.375-0.023437 0-0.023437 0.023438-0.070312 0.023438-12.602-12.84-20.855-32.23-20.855-54.215 0-18.383 5.7852-35.016 15-47.52 0.38281 3.0703 2.7617 5.543 5.9297 5.543 3.4062 0 6.1914-2.7852 6.1914-6.1914s-2.7852-6.1445-6.168-6.168c9.5039-9.6484 21.434-15.672 34.559-15.672 13.777 0 26.258 6.6016 35.953 17.137-1.5117 1.1289-2.5938 2.6875-2.5938 4.7031 0 3.4062 2.7344 6.1914 6.1914 6.1914 1.4141 0 2.543-0.69531 3.6016-1.4883 7.6094 11.977 12.336 26.977 12.336 43.465-0.003906 38.59-24.918 69.98-55.492 69.98z"/>
 <path d="m667.51 403.01c6.6016 0 12-5.375 12-12v-163.97c0-6.625-5.3984-12-12-12-6.625 0-12 5.375-12 12v163.97c0 6.625 5.3281 12 12 12z"/>
 <path d="m794.5 402.98c6.625 0 12-5.375 12-12v-163.97c0-6.625-5.3516-12-12-12-6.6016 0-12 5.375-12 12v163.97c0 6.625 5.375 12 12 12z"/>
 <path d="m921.5 215.02c-6.6016 0-12 5.375-12 12v163.97c0 6.625 5.3984 12 12 12 6.625 0 12-5.375 12-12v-163.97c0-6.625-5.3281-12-12-12z"/>
 <path d="m1116 403.01c43.824 0 79.488-42.145 79.488-93.961 0-51.84-35.617-94.008-79.488-94.008-43.871 0-79.512 42.168-79.512 94.008 0 51.793 35.688 93.961 79.512 93.961zm-38.59-144.1c-0.26562 0.67188-0.81641 1.1992-0.81641 1.9922 0 3.4062 2.7109 6.1914 6.1445 6.1914 3.4805 0 6.2383-2.7852 6.2383-6.1914s-2.7617-6.168-6.2383-6.168c-0.83984 0-1.4414 0.57422-2.1602 0.91016 9.6484-10.199 21.91-16.586 35.449-16.586 13.992 0 26.664 6.793 36.457 17.641-1.0547 1.1055-1.7539 2.5664-1.7539 4.2227 0 3.4062 2.7617 6.1914 6.1914 6.1914 1.0078 0 1.7266-0.64844 2.543-1.0547 7.4414 11.93 12.047 26.734 12.047 43.008 0 31.176-16.367 57.359-38.762 66.359 3.0977-0.3125 5.6406-2.7617 5.6406-5.9766 0-3.4062-2.8086-6.168-6.1914-6.168-3.4336 0-6.1914 2.7617-6.1914 6.168s2.7617 6.168 6.168 6.1914c-5.1367 1.9922-10.512 3.3828-16.152 3.3828-9.9102 0-19.078-3.5508-27.145-9.3359 0-0.097656 0.097656-0.14453 0.097656-0.23828 0-3.4062-2.7617-6.168-6.2383-6.168-0.38281 0-0.60156 0.33594-0.98438 0.40625-12.84-12.84-21.266-32.426-21.266-54.625 0-19.695 6.5039-37.43 16.922-50.152z"/>
 <path d="m1116 505.99c-43.824 0-79.512 42.168-79.512 94.008 0 51.816 35.664 93.984 79.512 93.984 43.848 0 79.488-42.168 79.488-93.984 0-51.84-35.664-94.008-79.488-94.008zm46.199 132.62c-0.91016-2.2578-2.7109-4.0781-5.3281-4.0781-3.4336 0-6.1914 2.7617-6.1914 6.168 0 3.4336 2.7617 6.1914 6.1914 6.1914h0.023438c-5.4961 7.6094-12.191 13.801-19.848 17.785-1.1055-1.7031-2.7109-3.0469-4.8711-3.0469-3.4336 0-6.1914 2.7617-6.1914 6.168 0 0.33594 0.3125 0.52734 0.35938 0.86328-3.3594 0.79297-6.793 1.3203-10.344 1.3203-1.0781 0-2.0625-0.33594-3.1211-0.40625 0.21484-0.625 0.71875-1.0781 0.71875-1.7773 0-3.4062-2.7617-6.168-6.1445-6.168-3.2148 0-5.6406 2.4961-5.9531 5.6172-19.055-6.5508-33.961-25.465-39.023-49.559 1.0078-1.0781 1.7031-2.4961 1.7031-4.1055 0-2.1602-1.3203-3.7695-3.0234-4.8711-0.28906-2.8789-0.69531-5.7344-0.69531-8.7109 0-2.9766 0.40625-5.7852 0.69531-8.6641 1.7031-1.1055 3.0234-2.6875 3.0234-4.8945 0-1.6094-0.69531-3.0234-1.7031-4.1289 5.0391-24.121 19.922-43.031 39-49.586 0.3125 3.1211 2.7617 5.6641 5.9766 5.6641 3.3828 0 6.1445-2.7617 6.1445-6.168 0-0.69531-0.52734-1.1758-0.74219-1.8242 1.0547-0.070312 2.0625-0.40625 3.1445-0.40625 3.5273 0 6.9844 0.50391 10.367 1.3203-0.070313 0.33594-0.38281 0.52734-0.38281 0.88672 0 3.4062 2.7617 6.168 6.1914 6.168 2.1836 0 3.7695-1.3438 4.8945-3.0703 7.6797 4.0078 14.375 10.223 19.871 17.902-0.023438 0-0.046875-0.023437-0.070313-0.023437-3.4336 0-6.1914 2.7617-6.1914 6.168s2.7617 6.168 6.1914 6.168c2.5938 0 4.4414-1.8242 5.3281-4.1055 5.832 11.09 9.2891 24.336 9.2891 38.594 0 14.273-3.457 27.52-9.2891 38.609z"/>
 <path d="m921.5 505.99c-6.6016 0-12 5.375-12 12v163.99c0 6.6016 5.3984 12 12 12 6.625 0 12-5.3984 12-12v-163.99c0-6.625-5.3281-12-12-12z"/>
 <path d="m727.03 505.99c-43.824 0-79.512 42.168-79.512 94.008 0 51.816 35.641 93.984 79.512 93.984s79.512-42.168 79.512-93.984c-0.046875-51.84-35.688-94.008-79.512-94.008zm15.602 160.82c-0.52734-2.8555-2.7344-5.1836-5.7344-5.1836-3.4336 0-6.1914 2.7617-6.1914 6.168 0 0.625 0.50391 1.0547 0.67188 1.6094-1.4883 0.16797-2.8555 0.55078-4.3672 0.55078-3.1211 0-6.0977-0.52734-9.0703-1.1523 0.070313-0.40625 0.43359-0.625 0.43359-1.0312 0-3.4062-2.7617-6.168-6.2383-6.168-2.3047 0-3.9844 1.5352-5.0156 3.5039-8.375-4.0781-15.648-10.656-21.504-19.008 0.64844 0.23828 1.1523 0.76953 1.8711 0.76953 3.3828 0 6.1914-2.7617 6.1914-6.1914 0-3.4062-2.8086-6.168-6.1914-6.168-3.1445 0-5.4961 2.4492-5.8789 5.4492-6.3125-11.352-10.078-25.105-10.078-39.984 0-14.879 3.7422-28.609 10.055-39.984 0.40625 3.0234 2.7344 5.4727 5.9023 5.4727 3.3828 0 6.1914-2.7617 6.1914-6.168 0-3.4336-2.8086-6.168-6.1914-6.168-0.74219 0-1.2734 0.55078-1.9219 0.79297 5.832-8.375 13.152-15 21.527-19.105 1.0547 1.9688 2.7109 3.5273 5.0391 3.5273 3.4805 0 6.2383-2.7617 6.2383-6.168 0-0.40625-0.35938-0.67188-0.45703-1.0547 2.9766-0.625 5.9766-1.1523 9.0977-1.1523 1.5117 0 2.9023 0.40625 4.3672 0.55078-0.19141 0.57422-0.67188 1.0078-0.67188 1.6562 0 3.4062 2.7617 6.168 6.1914 6.168 3 0 5.2305-2.3281 5.7344-5.207 22.945 8.5664 39.887 35.137 39.887 66.84-0.023437 31.699-16.945 58.266-39.887 66.836z"/>
 <path d="m544.51 681.98v-163.99c0-6.625-5.375-12-12-12-6.6016 0-12 5.375-12 12v163.99c0 6.6016 5.3984 12 12 12 6.625 0 12-5.3984 12-12z"/>
 <path d="m405.5 693.98c6.625 0 12-5.3984 12-12v-163.99c0-6.625-5.375-12-12-12-6.6016 0-12 5.375-12 12v163.99c0 6.6016 5.375 12 12 12z"/>
 <path d="m278.5 505.99c-6.6016 0-12 5.375-12 12v163.99c0 6.6016 5.3984 12 12 12 6.625 0 12-5.3984 12-12v-163.99c0-6.625-5.375-12-12-12z"/>
 <path d="m84 505.99c-29.855 0-55.609 19.801-69.215 48.672-1.4648 1.1289-2.5195 2.6641-2.5195 4.6562 0 0.16797 0.16797 0.26563 0.19141 0.45703-4.9453 12.238-7.9453 25.773-7.9453 40.223 0 51.816 35.664 93.984 79.512 93.984 43.848 0 79.441-42.168 79.441-93.984 0-51.84-35.664-94.008-79.465-94.008zm-10.344 162.67c0.046875-0.33594 0.35938-0.52734 0.35938-0.86328 0-3.4062-2.7852-6.168-6.168-6.168-2.207 0-3.793 1.3438-4.8945 3.0469-7.6797-3.9844-14.375-10.176-19.895-17.809 0.023437 0 0.023437 0.023437 0.046875 0.023437 3.4336 0 6.1914-2.7617 6.1914-6.1914 0-3.4062-2.7617-6.168-6.1914-6.168-2.5938 0-4.4141 1.8242-5.3281 4.1289-5.832-11.09-9.2656-24.359-9.2656-38.664 0-14.281 3.457-27.551 9.2891-38.641 0.91016 2.3047 2.7109 4.1523 5.3281 4.1523 3.4336 0 6.1914-2.7617 6.1914-6.168 0-3.4336-2.7617-6.168-6.1914-6.168-0.023437 0-0.046875 0.023438-0.097656 0.046875 5.5195-7.6797 12.215-13.922 19.945-17.93 1.0781 1.7539 2.6641 3.0977 4.8945 3.0977 3.3828 0 6.168-2.7617 6.168-6.168 0-0.35938-0.3125-0.55078-0.38281-0.88672 3.3594-0.81641 6.8164-1.3203 10.367-1.3203 1.0547 0 2.0625 0.33594 3.1211 0.40625-0.21484 0.625-0.74219 1.1055-0.74219 1.8242 0 3.4062 2.7852 6.168 6.168 6.168 3.2148 0 5.6641-2.5195 5.9766-5.6406 19.055 6.5742 33.961 25.512 38.977 49.68-0.98438 1.0781-1.6562 2.4727-1.6562 4.0312 0 2.1602 1.2969 3.7422 2.9531 4.8711 0.28906 2.8789 0.69531 5.7109 0.69531 8.6875 0 3-0.40625 5.8555-0.69531 8.7344-1.6562 1.1055-2.9531 2.7109-2.9531 4.8477 0 1.5586 0.69531 2.9297 1.6562 4.0312-5.0156 24.145-19.922 43.055-38.977 49.609-0.3125-3.0977-2.7617-5.5938-5.9531-5.5938-3.3828 0-6.168 2.7617-6.168 6.168 0 0.69531 0.52734 1.1523 0.74219 1.7773-1.0312 0.070312-2.0391 0.40625-3.0977 0.40625-3.5977-0.039063-7.0547-0.54297-10.414-1.3594z"/>
 <path d="m84 797.02c-43.824 0-79.512 42.168-79.512 93.984s35.641 93.984 79.512 93.984c43.824 0 79.465-42.168 79.465-93.984s-35.664-93.984-79.465-93.984zm0 163.97c-13.992 0-26.664-6.793-36.457-17.617 1.0547-1.1055 1.7539-2.5664 1.7539-4.2461 0-3.4062-2.7617-6.168-6.1914-6.168-1.0078 0-1.7266 0.625-2.5664 1.0781-7.4414-11.93-12.047-26.734-12.047-43.031 0-38.566 24.887-69.984 55.512-69.984 9.9375 0 19.105 3.5742 27.168 9.3828 0 0.097656-0.097656 0.16797-0.097656 0.26562 0 3.4062 2.7852 6.168 6.168 6.168 0.40625 0 0.625-0.35938 1.0078-0.43359 10.656 10.68 18.121 26.016 20.352 43.703-1.5859 1.1289-2.7852 2.7109-2.7852 4.8008 0 2.3984 1.5859 4.0781 3.5742 5.0898 0 0.35937 0.070313 0.64844 0.070313 1.0078 0 5.7617-0.71875 11.281-1.7539 16.609-1.1523 1.1289-1.8945 2.6641-1.8945 4.4141 0 0.50391 0.40625 0.79297 0.50391 1.2461-2.8555 10.586-7.4648 20.137-13.68 27.77 0.23828-0.64844 0.79297-1.1758 0.79297-1.9219 0-3.4062-2.7617-6.168-6.1914-6.168-3.3828 0-6.168 2.7617-6.168 6.168 0 3.4336 2.7852 6.2148 6.168 6.2148 0.83984 0 1.4141-0.57422 2.1367-0.88672-9.6484 10.156-21.863 16.539-35.375 16.539z"/>
 <path d="m278.5 797.02c-6.6016 0-12 5.3984-12 12v163.97c0 6.6016 5.3984 12 12 12 6.625 0 12-5.3984 12-12v-163.97c0-6.6016-5.375-12-12-12z"/>
 <path d="m472.99 797.02c-43.824 0-79.512 42.168-79.512 93.984s35.641 93.984 79.512 93.984c43.871 0 79.488-42.168 79.488-93.984s-35.664-93.984-79.488-93.984zm43.152 137.45c-1.0312-0.79297-2.207-1.5117-3.6016-1.5117-3.457 0-6.1914 2.7617-6.1914 6.168 0 2.0156 1.1055 3.5742 2.6172 4.7266-9.7188 10.512-22.176 17.137-35.977 17.137-13.129 0-25.031-6.0234-34.535-15.648 3.3828-0.023438 6.168-2.7852 6.168-6.2148 0-3.4062-2.7852-6.168-6.1914-6.168-3.168 0-5.5664 2.4961-5.9297 5.543-9.2383-12.504-15-29.137-15-47.496 0-21.984 8.2578-41.375 20.855-54.215 0.023437 0 0.046875 0.023438 0.070313 0.023438 3.0977 0 5.4492-2.4258 5.8789-5.3984 8.3984-6.4805 18.168-10.414 28.703-10.414 30.574 0 55.488 31.414 55.488 69.984-0.019531 16.531-4.7734 31.508-12.355 43.484z"/>
 <path d="m667.51 797.02c-6.625 0-12 5.3984-12 12v163.97c0 6.6016 5.375 12 12 12 6.6016 0 12-5.3984 12-12v-163.97c0-6.6016-5.3984-12-12-12z"/>
 <path d="m794.5 797.02c-6.6016 0-12 5.3984-12 12v163.97c0 6.6016 5.3984 12 12 12 6.625 0 12-5.3984 12-12v-163.97c0-6.6016-5.3516-12-12-12z"/>
 <path d="m921.5 797.02c-6.6016 0-12 5.3984-12 12v163.97c0 6.6016 5.3984 12 12 12 6.625 0 12-5.3984 12-12v-163.97c0-6.6016-5.3281-12-12-12z"/>
 <path d="m1116 797.02c-43.824 0-79.512 42.168-79.512 93.984s35.664 93.984 79.512 93.984c43.848 0 79.488-42.168 79.488-93.984s-35.664-93.984-79.488-93.984zm43.441 136.99c-0.83984-0.43359-1.5352-1.0547-2.543-1.0547-3.4336 0-6.1914 2.7617-6.1914 6.168 0 1.6328 0.69531 3.1211 1.7539 4.2461-9.793 10.824-22.465 17.617-36.457 17.617-13.512 0-25.754-6.3828-35.426-16.535 0.71875 0.3125 1.2969 0.88672 2.1367 0.88672 3.4805 0 6.2383-2.7852 6.2383-6.2148 0-3.4062-2.7617-6.168-6.2383-6.168-3.4336 0-6.1445 2.7617-6.1445 6.168 0 0.76953 0.55078 1.2969 0.81641 1.9922-6.2383-7.6328-10.871-17.16-13.754-27.742 0.14453-0.50391 0.55078-0.81641 0.55078-1.3438 0-1.7539-0.76953-3.3125-1.9688-4.4414-1.0547-5.3516-1.7539-10.848-1.7539-16.586 0-0.33594 0.070313-0.64844 0.070313-0.98438 2.0391-1.0078 3.6484-2.6875 3.6484-5.1133 0-2.1133-1.2461-3.6953-2.8555-4.8242 2.2305-17.664 9.6719-33.023 20.375-43.68 0.38281 0.070312 0.60156 0.43359 1.0078 0.43359 3.4805 0 6.2383-2.7617 6.2383-6.168 0-0.12109-0.12109-0.19141-0.12109-0.3125 8.0625-5.7617 17.258-9.3359 27.168-9.3359 30.574 0 55.488 31.414 55.488 69.984 0.007813 16.297-4.625 31.105-12.039 43.008z"/>
 <path d="m1138.4 260.88c0 3.4219-2.7695 6.1914-6.1914 6.1914-3.418 0-6.1914-2.7695-6.1914-6.1914 0-3.418 2.7734-6.1914 6.1914-6.1914 3.4219 0 6.1914 2.7734 6.1914 6.1914z"/>
 <path d="m1113.7 260.88c0 3.4219-2.7734 6.1914-6.1914 6.1914-3.418 0-6.1914-2.7695-6.1914-6.1914 0-3.418 2.7734-6.1914 6.1914-6.1914 3.418 0 6.1914 2.7734 6.1914 6.1914z"/>
 <path d="m1163.1 288c0 3.418-2.7734 6.1914-6.1953 6.1914-3.418 0-6.1914-2.7734-6.1914-6.1914s2.7734-6.1914 6.1914-6.1914c3.4219 0 6.1953 2.7734 6.1953 6.1914z"/>
 <path d="m1138.4 288c0 3.418-2.7695 6.1914-6.1914 6.1914-3.418 0-6.1914-2.7734-6.1914-6.1914s2.7734-6.1914 6.1914-6.1914c3.4219 0 6.1914 2.7734 6.1914 6.1914z"/>
 <path d="m1113.7 288c0 3.418-2.7734 6.1914-6.1914 6.1914-3.418 0-6.1914-2.7734-6.1914-6.1914s2.7734-6.1914 6.1914-6.1914c3.418 0 6.1914 2.7734 6.1914 6.1914z"/>
 <path d="m1088.9 288c0 3.418-2.7734 6.1914-6.1953 6.1914-3.418 0-6.1914-2.7734-6.1914-6.1914s2.7734-6.1914 6.1914-6.1914c3.4219 0 6.1953 2.7734 6.1953 6.1914z"/>
 <path d="m1163.1 315.17c0 3.418-2.7734 6.1914-6.1953 6.1914-3.418 0-6.1914-2.7734-6.1914-6.1914s2.7734-6.1914 6.1914-6.1914c3.4219 0 6.1953 2.7734 6.1953 6.1914z"/>
 <path d="m1138.4 315.17c0 3.418-2.7695 6.1914-6.1914 6.1914-3.418 0-6.1914-2.7734-6.1914-6.1914s2.7734-6.1914 6.1914-6.1914c3.4219 0 6.1914 2.7734 6.1914 6.1914z"/>
 <path d="m1113.7 315.17c0 3.418-2.7734 6.1914-6.1914 6.1914-3.418 0-6.1914-2.7734-6.1914-6.1914s2.7734-6.1914 6.1914-6.1914c3.418 0 6.1914 2.7734 6.1914 6.1914z"/>
 <path d="m1088.9 315.17c0 3.418-2.7734 6.1914-6.1953 6.1914-3.418 0-6.1914-2.7734-6.1914-6.1914s2.7734-6.1914 6.1914-6.1914c3.4219 0 6.1953 2.7734 6.1953 6.1914z"/>
 <path d="m1163.1 342.29c0 3.418-2.7734 6.1914-6.1953 6.1914-3.418 0-6.1914-2.7734-6.1914-6.1914 0-3.4219 2.7734-6.1914 6.1914-6.1914 3.4219 0 6.1953 2.7695 6.1953 6.1914z"/>
 <path d="m1138.4 342.29c0 3.418-2.7695 6.1914-6.1914 6.1914-3.418 0-6.1914-2.7734-6.1914-6.1914 0-3.4219 2.7734-6.1914 6.1914-6.1914 3.4219 0 6.1914 2.7695 6.1914 6.1914z"/>
 <path d="m1113.7 342.29c0 3.418-2.7734 6.1914-6.1914 6.1914-3.418 0-6.1914-2.7734-6.1914-6.1914 0-3.4219 2.7734-6.1914 6.1914-6.1914 3.418 0 6.1914 2.7695 6.1914 6.1914z"/>
 <path d="m1088.9 342.29c0 3.418-2.7734 6.1914-6.1953 6.1914-3.418 0-6.1914-2.7734-6.1914-6.1914 0-3.4219 2.7734-6.1914 6.1914-6.1914 3.4219 0 6.1953 2.7695 6.1953 6.1914z"/>
 <path d="m1113.7 369.43c0 3.418-2.7734 6.1914-6.1914 6.1914-3.418 0-6.1914-2.7734-6.1914-6.1914 0-3.4219 2.7734-6.1953 6.1914-6.1953 3.418 0 6.1914 2.7734 6.1914 6.1953z"/>
 <path d="m1138.4 559.32c0 3.4062-2.7617 6.168-6.168 6.168s-6.168-2.7617-6.168-6.168 2.7617-6.168 6.168-6.168 6.168 2.7617 6.168 6.168z"/>
 <path d="m1113.7 559.32c0 3.4062-2.7617 6.168-6.168 6.168s-6.168-2.7617-6.168-6.168 2.7617-6.168 6.168-6.168 6.168 2.7617 6.168 6.168z"/>
 <path d="m1082.7 553.15c-3.4336 0-6.1445 2.7617-6.1445 6.168s2.7109 6.168 6.1445 6.168c3.4805 0 6.2383-2.7617 6.2383-6.168 0.003906-3.4102-2.7578-6.168-6.2383-6.168z"/>
 <path d="m767.73 559.34c0 3.3945-2.75 6.1445-6.1406 6.1445-3.3945 0-6.1445-2.75-6.1445-6.1445s2.75-6.1445 6.1445-6.1445c3.3906 0 6.1406 2.75 6.1406 6.1445z"/>
 <path d="m743.06 559.32c0 3.4062-2.7617 6.168-6.168 6.168s-6.168-2.7617-6.168-6.168 2.7617-6.168 6.168-6.168 6.168 2.7617 6.168 6.168z"/>
 <path d="m712.15 553.15c-3.3359 0-6.1445 2.7617-6.1445 6.168s2.8086 6.168 6.1445 6.168c3.4805 0 6.2383-2.7617 6.2383-6.168 0-3.4102-2.7812-6.168-6.2383-6.168z"/>
 <path d="m1163.1 586.44c0 3.418-2.7734 6.1914-6.1953 6.1914-3.418 0-6.1914-2.7734-6.1914-6.1914 0-3.4219 2.7734-6.1953 6.1914-6.1953 3.4219 0 6.1953 2.7734 6.1953 6.1953z"/>
 <path d="m1138.4 586.44c0 3.418-2.7695 6.1914-6.1914 6.1914-3.418 0-6.1914-2.7734-6.1914-6.1914 0-3.4219 2.7734-6.1953 6.1914-6.1953 3.4219 0 6.1914 2.7734 6.1914 6.1953z"/>
 <path d="m1113.7 586.44c0 3.418-2.7734 6.1914-6.1914 6.1914-3.418 0-6.1914-2.7734-6.1914-6.1914 0-3.4219 2.7734-6.1953 6.1914-6.1953 3.418 0 6.1914 2.7734 6.1914 6.1953z"/>
 <path d="m1082.7 580.25c-3.4336 0-6.1445 2.7852-6.1445 6.1914 0 3.4336 2.7109 6.1914 6.1445 6.1914 3.4805 0 6.2383-2.7617 6.2383-6.1914 0.003906-3.4062-2.7578-6.1914-6.2383-6.1914z"/>
 <path d="m767.79 586.44c0 3.418-2.7734 6.1914-6.1914 6.1914-3.4219 0-6.1953-2.7734-6.1953-6.1914 0-3.4219 2.7734-6.1953 6.1953-6.1953 3.418 0 6.1914 2.7734 6.1914 6.1953z"/>
 <path d="m743.09 586.44c0 3.418-2.7734 6.1914-6.1953 6.1914-3.418 0-6.1914-2.7734-6.1914-6.1914 0-3.4219 2.7734-6.1953 6.1914-6.1953 3.4219 0 6.1953 2.7734 6.1953 6.1953z"/>
 <path d="m712.15 580.25c-3.3359 0-6.1445 2.7852-6.1445 6.1914 0 3.4336 2.8086 6.1914 6.1445 6.1914 3.4805 0 6.2383-2.7617 6.2383-6.1914 0-3.4062-2.7812-6.1914-6.2383-6.1914z"/>
 <path d="m693.7 586.44c0 3.418-2.7734 6.1914-6.1914 6.1914-3.418 0-6.1914-2.7734-6.1914-6.1914 0-3.4219 2.7734-6.1953 6.1914-6.1953 3.418 0 6.1914 2.7734 6.1914 6.1953z"/>
 <path d="m1163.1 613.59c0 3.418-2.7734 6.1914-6.1953 6.1914-3.418 0-6.1914-2.7734-6.1914-6.1914 0-3.4219 2.7734-6.1953 6.1914-6.1953 3.4219 0 6.1953 2.7734 6.1953 6.1953z"/>
 <path d="m1138.4 613.59c0 3.418-2.7695 6.1914-6.1914 6.1914-3.418 0-6.1914-2.7734-6.1914-6.1914 0-3.4219 2.7734-6.1953 6.1914-6.1953 3.4219 0 6.1914 2.7734 6.1914 6.1953z"/>
 <path d="m1113.7 613.59c0 3.418-2.7734 6.1914-6.1914 6.1914-3.418 0-6.1914-2.7734-6.1914-6.1914 0-3.4219 2.7734-6.1953 6.1914-6.1953 3.418 0 6.1914 2.7734 6.1914 6.1953z"/>
 <path d="m1082.7 607.41c-3.4336 0-6.1445 2.7852-6.1445 6.1914 0 3.4336 2.7109 6.1914 6.1445 6.1914 3.4805 0 6.2383-2.7617 6.2383-6.1914 0.003906-3.4062-2.7578-6.1914-6.2383-6.1914z"/>
 <path d="m767.79 613.59c0 3.418-2.7734 6.1914-6.1914 6.1914-3.4219 0-6.1953-2.7734-6.1953-6.1914 0-3.4219 2.7734-6.1953 6.1953-6.1953 3.418 0 6.1914 2.7734 6.1914 6.1953z"/>
 <path d="m743.09 613.59c0 3.418-2.7734 6.1914-6.1953 6.1914-3.418 0-6.1914-2.7734-6.1914-6.1914 0-3.4219 2.7734-6.1953 6.1914-6.1953 3.4219 0 6.1953 2.7734 6.1953 6.1953z"/>
 <path d="m712.15 607.41c-3.3359 0-6.1445 2.7852-6.1445 6.1914 0 3.4336 2.8086 6.1914 6.1445 6.1914 3.4805 0 6.2383-2.7617 6.2383-6.1914 0-3.4062-2.7812-6.1914-6.2383-6.1914z"/>
 <path d="m693.7 613.59c0 3.418-2.7734 6.1914-6.1914 6.1914-3.418 0-6.1914-2.7734-6.1914-6.1914 0-3.4219 2.7734-6.1953 6.1914-6.1953 3.418 0 6.1914 2.7734 6.1914 6.1953z"/>
 <path d="m1138.4 640.73c0 3.4062-2.7617 6.168-6.168 6.168s-6.168-2.7617-6.168-6.168 2.7617-6.168 6.168-6.168 6.168 2.7617 6.168 6.168z"/>
 <path d="m1113.7 640.73c0 3.4062-2.7617 6.168-6.168 6.168s-6.168-2.7617-6.168-6.168 2.7617-6.168 6.168-6.168 6.168 2.7617 6.168 6.168z"/>
 <path d="m1082.7 634.54c-3.4336 0-6.1445 2.7617-6.1445 6.168 0 3.4336 2.7109 6.1914 6.1445 6.1914 3.4805 0 6.2383-2.7617 6.2383-6.1914 0.003906-3.3828-2.7578-6.168-6.2383-6.168z"/>
 <path d="m767.76 640.73c0 3.4062-2.7617 6.168-6.168 6.168-3.4102 0-6.168-2.7617-6.168-6.168s2.7578-6.168 6.168-6.168c3.4062 0 6.168 2.7617 6.168 6.168z"/>
 <path d="m743.06 640.73c0 3.4062-2.7617 6.168-6.168 6.168s-6.168-2.7617-6.168-6.168 2.7617-6.168 6.168-6.168 6.168 2.7617 6.168 6.168z"/>
 <path d="m712.15 634.54c-3.3359 0-6.1445 2.7617-6.1445 6.168 0 3.4336 2.8086 6.1914 6.1445 6.1914 3.4805 0 6.2383-2.7617 6.2383-6.1914 0-3.3828-2.7812-6.168-6.2383-6.168z"/>
 <path d="m1138.4 830.64c0 3.4062-2.7617 6.168-6.168 6.168s-6.168-2.7617-6.168-6.168 2.7617-6.168 6.168-6.168 6.168 2.7617 6.168 6.168z"/>
 <path d="m1113.7 830.64c0 3.4062-2.7617 6.168-6.168 6.168s-6.168-2.7617-6.168-6.168 2.7617-6.168 6.168-6.168 6.168 2.7617 6.168 6.168z"/>
 <path d="m1163.1 857.76c0 3.418-2.7734 6.1914-6.1953 6.1914-3.418 0-6.1914-2.7734-6.1914-6.1914 0-3.4219 2.7734-6.1953 6.1914-6.1953 3.4219 0 6.1953 2.7734 6.1953 6.1953z"/>
 <path d="m1138.4 857.76c0 3.418-2.7695 6.1914-6.1914 6.1914-3.418 0-6.1914-2.7734-6.1914-6.1914 0-3.4219 2.7734-6.1953 6.1914-6.1953 3.4219 0 6.1914 2.7734 6.1914 6.1953z"/>
 <path d="m1113.7 857.76c0 3.418-2.7734 6.1914-6.1914 6.1914-3.418 0-6.1914-2.7734-6.1914-6.1914 0-3.4219 2.7734-6.1953 6.1914-6.1953 3.418 0 6.1914 2.7734 6.1914 6.1953z"/>
 <path d="m1082.7 851.54c-3.4336 0-6.1445 2.7852-6.1445 6.2148 0 3.4062 2.7109 6.1914 6.1445 6.1914 3.4805 0 6.2383-2.7852 6.2383-6.1914 0.003906-3.4062-2.7578-6.2148-6.2383-6.2148z"/>
 <path d="m1163.1 884.88c0 3.4219-2.7734 6.1914-6.1953 6.1914-3.418 0-6.1914-2.7695-6.1914-6.1914 0-3.418 2.7734-6.1914 6.1914-6.1914 3.4219 0 6.1953 2.7734 6.1953 6.1914z"/>
 <path d="m1138.4 884.88c0 3.4219-2.7695 6.1914-6.1914 6.1914-3.418 0-6.1914-2.7695-6.1914-6.1914 0-3.418 2.7734-6.1914 6.1914-6.1914 3.4219 0 6.1914 2.7734 6.1914 6.1914z"/>
 <path d="m1113.7 884.88c0 3.4219-2.7734 6.1914-6.1914 6.1914-3.418 0-6.1914-2.7695-6.1914-6.1914 0-3.418 2.7734-6.1914 6.1914-6.1914 3.418 0 6.1914 2.7734 6.1914 6.1914z"/>
 <path d="m1082.7 878.69c-3.4336 0-6.1445 2.7852-6.1445 6.2148 0 3.4062 2.7109 6.168 6.1445 6.168 3.4805 0 6.2383-2.7617 6.2383-6.168 0.003906-3.4062-2.7578-6.2148-6.2383-6.2148z"/>
 <path d="m1163.1 912.02c0 3.4062-2.7617 6.168-6.168 6.168s-6.168-2.7617-6.168-6.168 2.7617-6.168 6.168-6.168 6.168 2.7617 6.168 6.168z"/>
 <path d="m1138.4 912.02c0 3.4062-2.7617 6.168-6.168 6.168s-6.168-2.7617-6.168-6.168 2.7617-6.168 6.168-6.168 6.168 2.7617 6.168 6.168z"/>
 <path d="m1113.7 912.02c0 3.4062-2.7617 6.168-6.168 6.168s-6.168-2.7617-6.168-6.168 2.7617-6.168 6.168-6.168 6.168 2.7617 6.168 6.168z"/>
 <path d="m1082.7 905.86c-3.4336 0-6.1445 2.7617-6.1445 6.168 0 3.4336 2.7109 6.168 6.1445 6.168 3.4805 0 6.2383-2.7344 6.2383-6.168 0.003906-3.4062-2.7578-6.168-6.2383-6.168z"/>
 <path d="m1138.4 939.14c0 3.418-2.7695 6.1914-6.1914 6.1914-3.418 0-6.1914-2.7734-6.1914-6.1914 0-3.4219 2.7734-6.1914 6.1914-6.1914 3.4219 0 6.1914 2.7695 6.1914 6.1914z"/>
 <path d="m1113.7 939.14c0 3.418-2.7734 6.1914-6.1914 6.1914-3.418 0-6.1914-2.7734-6.1914-6.1914 0-3.4219 2.7734-6.1914 6.1914-6.1914 3.418 0 6.1914 2.7695 6.1914 6.1914z"/>
 <path d="m487.8 254.71c-3.3828 0-6.1445 2.7617-6.1445 6.168s2.7617 6.1914 6.1445 6.1914c3.4805 0 6.2383-2.7852 6.2383-6.1914s-2.7578-6.168-6.2383-6.168z"/>
 <path d="m469.3 260.88c0 3.4219-2.7734 6.1914-6.1914 6.1914-3.4219 0-6.1953-2.7695-6.1953-6.1914 0-3.418 2.7734-6.1914 6.1953-6.1914 3.418 0 6.1914 2.7734 6.1914 6.1914z"/>
 <path d="m98.711 260.88c0 3.4219-2.7695 6.1914-6.1914 6.1914-3.418 0-6.1914-2.7695-6.1914-6.1914 0-3.418 2.7734-6.1914 6.1914-6.1914 3.4219 0 6.1914 2.7734 6.1914 6.1914z"/>
 <path d="m74.039 260.88c0 3.4219-2.7695 6.1914-6.1914 6.1914-3.418 0-6.1914-2.7695-6.1914-6.1914 0-3.418 2.7734-6.1914 6.1914-6.1914 3.4219 0 6.1914 2.7734 6.1914 6.1914z"/>
 <path d="m49.32 288c0 3.418-2.7734 6.1914-6.1914 6.1914-3.4219 0-6.1914-2.7734-6.1914-6.1914s2.7695-6.1914 6.1914-6.1914c3.418 0 6.1914 2.7734 6.1914 6.1914z"/>
 <path d="m518.71 288c0 3.418-2.7695 6.1914-6.1914 6.1914-3.418 0-6.1914-2.7734-6.1914-6.1914s2.7734-6.1914 6.1914-6.1914c3.4219 0 6.1914 2.7734 6.1914 6.1914z"/>
 <path d="m487.8 281.83c-3.3828 0-6.1445 2.7852-6.1445 6.1914s2.7617 6.168 6.1445 6.168c3.4805 0 6.2383-2.7617 6.2383-6.168s-2.7578-6.1914-6.2383-6.1914z"/>
 <path d="m469.3 288c0 3.418-2.7734 6.1914-6.1914 6.1914-3.4219 0-6.1953-2.7734-6.1953-6.1914s2.7734-6.1914 6.1953-6.1914c3.418 0 6.1914 2.7734 6.1914 6.1914z"/>
 <path d="m444.62 288c0 3.418-2.7734 6.1914-6.1914 6.1914-3.4219 0-6.1953-2.7734-6.1953-6.1914s2.7734-6.1914 6.1953-6.1914c3.418 0 6.1914 2.7734 6.1914 6.1914z"/>
 <path d="m123.43 288c0 3.418-2.7734 6.1914-6.1953 6.1914-3.418 0-6.1914-2.7734-6.1914-6.1914s2.7734-6.1914 6.1914-6.1914c3.4219 0 6.1953 2.7734 6.1953 6.1914z"/>
 <path d="m98.711 288c0 3.418-2.7695 6.1914-6.1914 6.1914-3.418 0-6.1914-2.7734-6.1914-6.1914s2.7734-6.1914 6.1914-6.1914c3.4219 0 6.1914 2.7734 6.1914 6.1914z"/>
 <path d="m74.039 288c0 3.418-2.7695 6.1914-6.1914 6.1914-3.418 0-6.1914-2.7734-6.1914-6.1914s2.7734-6.1914 6.1914-6.1914c3.4219 0 6.1914 2.7734 6.1914 6.1914z"/>
 <path d="m49.32 315.17c0 3.418-2.7734 6.1914-6.1914 6.1914-3.4219 0-6.1914-2.7734-6.1914-6.1914s2.7695-6.1914 6.1914-6.1914c3.418 0 6.1914 2.7734 6.1914 6.1914z"/>
 <path d="m518.71 315.17c0 3.418-2.7695 6.1914-6.1914 6.1914-3.418 0-6.1914-2.7734-6.1914-6.1914s2.7734-6.1914 6.1914-6.1914c3.4219 0 6.1914 2.7734 6.1914 6.1914z"/>
 <path d="m487.8 308.98c-3.3828 0-6.1445 2.7617-6.1445 6.168s2.7617 6.1914 6.1445 6.1914c3.4805 0 6.2383-2.7852 6.2383-6.1914 0-3.4102-2.7578-6.168-6.2383-6.168z"/>
 <path d="m469.3 315.17c0 3.418-2.7734 6.1914-6.1914 6.1914-3.4219 0-6.1953-2.7734-6.1953-6.1914s2.7734-6.1914 6.1953-6.1914c3.418 0 6.1914 2.7734 6.1914 6.1914z"/>
 <path d="m444.62 315.17c0 3.418-2.7734 6.1914-6.1914 6.1914-3.4219 0-6.1953-2.7734-6.1953-6.1914s2.7734-6.1914 6.1953-6.1914c3.418 0 6.1914 2.7734 6.1914 6.1914z"/>
 <path d="m123.43 315.17c0 3.418-2.7734 6.1914-6.1953 6.1914-3.418 0-6.1914-2.7734-6.1914-6.1914s2.7734-6.1914 6.1914-6.1914c3.4219 0 6.1953 2.7734 6.1953 6.1914z"/>
 <path d="m98.711 315.17c0 3.418-2.7695 6.1914-6.1914 6.1914-3.418 0-6.1914-2.7734-6.1914-6.1914s2.7734-6.1914 6.1914-6.1914c3.4219 0 6.1914 2.7734 6.1914 6.1914z"/>
 <path d="m74.039 315.17c0 3.418-2.7695 6.1914-6.1914 6.1914-3.418 0-6.1914-2.7734-6.1914-6.1914s2.7734-6.1914 6.1914-6.1914c3.4219 0 6.1914 2.7734 6.1914 6.1914z"/>
 <path d="m49.32 342.29c0 3.418-2.7734 6.1914-6.1914 6.1914-3.4219 0-6.1914-2.7734-6.1914-6.1914 0-3.4219 2.7695-6.1914 6.1914-6.1914 3.418 0 6.1914 2.7695 6.1914 6.1914z"/>
 <path d="m518.71 342.29c0 3.418-2.7695 6.1914-6.1914 6.1914-3.418 0-6.1914-2.7734-6.1914-6.1914 0-3.4219 2.7734-6.1914 6.1914-6.1914 3.4219 0 6.1914 2.7695 6.1914 6.1914z"/>
 <path d="m487.8 336.1c-3.3828 0-6.1445 2.7852-6.1445 6.1914s2.7617 6.168 6.1445 6.168c3.4805 0 6.2383-2.7617 6.2383-6.168 0-3.4102-2.7578-6.1914-6.2383-6.1914z"/>
 <path d="m469.3 342.29c0 3.418-2.7734 6.1914-6.1914 6.1914-3.4219 0-6.1953-2.7734-6.1953-6.1914 0-3.4219 2.7734-6.1914 6.1953-6.1914 3.418 0 6.1914 2.7695 6.1914 6.1914z"/>
 <path d="m444.62 342.29c0 3.418-2.7734 6.1914-6.1914 6.1914-3.4219 0-6.1953-2.7734-6.1953-6.1914 0-3.4219 2.7734-6.1914 6.1953-6.1914 3.418 0 6.1914 2.7695 6.1914 6.1914z"/>
 <path d="m123.43 342.29c0 3.418-2.7734 6.1914-6.1953 6.1914-3.418 0-6.1914-2.7734-6.1914-6.1914 0-3.4219 2.7734-6.1914 6.1914-6.1914 3.4219 0 6.1953 2.7695 6.1953 6.1914z"/>
 <path d="m98.711 342.29c0 3.418-2.7695 6.1914-6.1914 6.1914-3.418 0-6.1914-2.7734-6.1914-6.1914 0-3.4219 2.7734-6.1914 6.1914-6.1914 3.4219 0 6.1914 2.7695 6.1914 6.1914z"/>
 <path d="m74.039 342.29c0 3.418-2.7695 6.1914-6.1914 6.1914-3.418 0-6.1914-2.7734-6.1914-6.1914 0-3.4219 2.7734-6.1914 6.1914-6.1914 3.4219 0 6.1914 2.7695 6.1914 6.1914z"/>
 <path d="m487.8 363.24c-3.3828 0-6.1445 2.7617-6.1445 6.168s2.7617 6.1914 6.1445 6.1914c3.4805 0 6.2383-2.7852 6.2383-6.1914s-2.7578-6.168-6.2383-6.168z"/>
 <path d="m469.3 369.43c0 3.418-2.7734 6.1914-6.1914 6.1914-3.4219 0-6.1953-2.7734-6.1953-6.1914 0-3.4219 2.7734-6.1953 6.1953-6.1953 3.418 0 6.1914 2.7734 6.1914 6.1953z"/>
 <path d="m98.711 369.43c0 3.418-2.7695 6.1914-6.1914 6.1914-3.418 0-6.1914-2.7734-6.1914-6.1914 0-3.4219 2.7734-6.1953 6.1914-6.1953 3.4219 0 6.1914 2.7734 6.1914 6.1953z"/>
 <path d="m74.039 369.43c0 3.418-2.7695 6.1914-6.1914 6.1914-3.418 0-6.1914-2.7734-6.1914-6.1914 0-3.4219 2.7734-6.1953 6.1914-6.1953 3.4219 0 6.1914 2.7734 6.1914 6.1953z"/>
 <path d="m123.41 559.32c0 3.4062-2.7578 6.168-6.168 6.168-3.4062 0-6.168-2.7617-6.168-6.168s2.7617-6.168 6.168-6.168c3.4102 0 6.168 2.7617 6.168 6.168z"/>
 <path d="m98.688 559.32c0 3.4062-2.7617 6.168-6.168 6.168s-6.168-2.7617-6.168-6.168 2.7617-6.168 6.168-6.168 6.168 2.7617 6.168 6.168z"/>
 <path d="m74.016 559.32c0 3.4062-2.7617 6.168-6.168 6.168s-6.168-2.7617-6.168-6.168 2.7617-6.168 6.168-6.168 6.168 2.7617 6.168 6.168z"/>
 <path d="m49.32 586.44c0 3.418-2.7734 6.1914-6.1914 6.1914-3.4219 0-6.1914-2.7734-6.1914-6.1914 0-3.4219 2.7695-6.1953 6.1914-6.1953 3.418 0 6.1914 2.7734 6.1914 6.1953z"/>
 <path d="m123.43 586.44c0 3.418-2.7734 6.1914-6.1953 6.1914-3.418 0-6.1914-2.7734-6.1914-6.1914 0-3.4219 2.7734-6.1953 6.1914-6.1953 3.4219 0 6.1953 2.7734 6.1953 6.1953z"/>
 <path d="m98.711 586.44c0 3.418-2.7695 6.1914-6.1914 6.1914-3.418 0-6.1914-2.7734-6.1914-6.1914 0-3.4219 2.7734-6.1953 6.1914-6.1953 3.4219 0 6.1914 2.7734 6.1914 6.1953z"/>
 <path d="m74.039 586.44c0 3.418-2.7695 6.1914-6.1914 6.1914-3.418 0-6.1914-2.7734-6.1914-6.1914 0-3.4219 2.7734-6.1953 6.1914-6.1953 3.4219 0 6.1914 2.7734 6.1914 6.1953z"/>
 <path d="m49.32 613.59c0 3.418-2.7734 6.1914-6.1914 6.1914-3.4219 0-6.1914-2.7734-6.1914-6.1914 0-3.4219 2.7695-6.1953 6.1914-6.1953 3.418 0 6.1914 2.7734 6.1914 6.1953z"/>
 <path d="m123.43 613.59c0 3.418-2.7734 6.1914-6.1953 6.1914-3.418 0-6.1914-2.7734-6.1914-6.1914 0-3.4219 2.7734-6.1953 6.1914-6.1953 3.4219 0 6.1953 2.7734 6.1953 6.1953z"/>
 <path d="m98.711 613.59c0 3.418-2.7695 6.1914-6.1914 6.1914-3.418 0-6.1914-2.7734-6.1914-6.1914 0-3.4219 2.7734-6.1953 6.1914-6.1953 3.4219 0 6.1914 2.7734 6.1914 6.1953z"/>
 <path d="m74.039 613.59c0 3.418-2.7695 6.1914-6.1914 6.1914-3.418 0-6.1914-2.7734-6.1914-6.1914 0-3.4219 2.7734-6.1953 6.1914-6.1953 3.4219 0 6.1914 2.7734 6.1914 6.1953z"/>
 <path d="m123.41 640.73c0 3.4062-2.7578 6.168-6.168 6.168-3.4062 0-6.168-2.7617-6.168-6.168s2.7617-6.168 6.168-6.168c3.4102 0 6.168 2.7617 6.168 6.168z"/>
 <path d="m98.688 640.73c0 3.4062-2.7617 6.168-6.168 6.168s-6.168-2.7617-6.168-6.168 2.7617-6.168 6.168-6.168 6.168 2.7617 6.168 6.168z"/>
 <path d="m74.016 640.73c0 3.4062-2.7617 6.168-6.168 6.168s-6.168-2.7617-6.168-6.168 2.7617-6.168 6.168-6.168 6.168 2.7617 6.168 6.168z"/>
 <path d="m487.8 824.47c-3.3828 0-6.1445 2.7617-6.1445 6.1914 0 3.4062 2.7617 6.168 6.1445 6.168 3.4805 0 6.2383-2.7617 6.2383-6.168 0-3.4336-2.7578-6.1914-6.2383-6.1914z"/>
 <path d="m469.27 830.64c0 3.4062-2.7617 6.168-6.168 6.168s-6.168-2.7617-6.168-6.168 2.7617-6.168 6.168-6.168 6.168 2.7617 6.168 6.168z"/>
 <path d="m98.688 830.64c0 3.4062-2.7617 6.168-6.168 6.168s-6.168-2.7617-6.168-6.168 2.7617-6.168 6.168-6.168 6.168 2.7617 6.168 6.168z"/>
 <path d="m74.016 830.64c0 3.4062-2.7617 6.168-6.168 6.168s-6.168-2.7617-6.168-6.168 2.7617-6.168 6.168-6.168 6.168 2.7617 6.168 6.168z"/>
 <path d="m49.32 857.76c0 3.418-2.7734 6.1914-6.1914 6.1914-3.4219 0-6.1914-2.7734-6.1914-6.1914 0-3.4219 2.7695-6.1953 6.1914-6.1953 3.418 0 6.1914 2.7734 6.1914 6.1953z"/>
 <path d="m518.71 857.76c0 3.418-2.7695 6.1914-6.1914 6.1914-3.418 0-6.1914-2.7734-6.1914-6.1914 0-3.4219 2.7734-6.1953 6.1914-6.1953 3.4219 0 6.1914 2.7734 6.1914 6.1953z"/>
 <path d="m487.8 851.54c-3.3828 0-6.1445 2.7852-6.1445 6.2148 0 3.4062 2.7617 6.1914 6.1445 6.1914 3.4805 0 6.2383-2.7852 6.2383-6.1914s-2.7578-6.2148-6.2383-6.2148z"/>
 <path d="m469.3 857.76c0 3.418-2.7734 6.1914-6.1914 6.1914-3.4219 0-6.1953-2.7734-6.1953-6.1914 0-3.4219 2.7734-6.1953 6.1953-6.1953 3.418 0 6.1914 2.7734 6.1914 6.1953z"/>
 <path d="m444.62 857.76c0 3.418-2.7734 6.1914-6.1914 6.1914-3.4219 0-6.1953-2.7734-6.1953-6.1914 0-3.4219 2.7734-6.1953 6.1953-6.1953 3.418 0 6.1914 2.7734 6.1914 6.1953z"/>
 <path d="m123.43 857.76c0 3.418-2.7734 6.1914-6.1953 6.1914-3.418 0-6.1914-2.7734-6.1914-6.1914 0-3.4219 2.7734-6.1953 6.1914-6.1953 3.4219 0 6.1953 2.7734 6.1953 6.1953z"/>
 <path d="m98.711 857.76c0 3.418-2.7695 6.1914-6.1914 6.1914-3.418 0-6.1914-2.7734-6.1914-6.1914 0-3.4219 2.7734-6.1953 6.1914-6.1953 3.4219 0 6.1914 2.7734 6.1914 6.1953z"/>
 <path d="m74.039 857.76c0 3.418-2.7695 6.1914-6.1914 6.1914-3.418 0-6.1914-2.7734-6.1914-6.1914 0-3.4219 2.7734-6.1953 6.1914-6.1953 3.4219 0 6.1914 2.7734 6.1914 6.1953z"/>
 <path d="m49.32 884.88c0 3.4219-2.7734 6.1914-6.1914 6.1914-3.4219 0-6.1914-2.7695-6.1914-6.1914 0-3.418 2.7695-6.1914 6.1914-6.1914 3.418 0 6.1914 2.7734 6.1914 6.1914z"/>
 <path d="m518.71 884.88c0 3.4219-2.7695 6.1914-6.1914 6.1914-3.418 0-6.1914-2.7695-6.1914-6.1914 0-3.418 2.7734-6.1914 6.1914-6.1914 3.4219 0 6.1914 2.7734 6.1914 6.1914z"/>
 <path d="m487.8 878.69c-3.3828 0-6.1445 2.7852-6.1445 6.2148 0 3.4062 2.7617 6.168 6.1445 6.168 3.4805 0 6.2383-2.7617 6.2383-6.168s-2.7578-6.2148-6.2383-6.2148z"/>
 <path d="m469.3 884.88c0 3.4219-2.7734 6.1914-6.1914 6.1914-3.4219 0-6.1953-2.7695-6.1953-6.1914 0-3.418 2.7734-6.1914 6.1953-6.1914 3.418 0 6.1914 2.7734 6.1914 6.1914z"/>
 <path d="m444.62 884.88c0 3.4219-2.7734 6.1914-6.1914 6.1914-3.4219 0-6.1953-2.7695-6.1953-6.1914 0-3.418 2.7734-6.1914 6.1953-6.1914 3.418 0 6.1914 2.7734 6.1914 6.1914z"/>
 <path d="m123.43 884.88c0 3.4219-2.7734 6.1914-6.1953 6.1914-3.418 0-6.1914-2.7695-6.1914-6.1914 0-3.418 2.7734-6.1914 6.1914-6.1914 3.4219 0 6.1953 2.7734 6.1953 6.1914z"/>
 <path d="m98.711 884.88c0 3.4219-2.7695 6.1914-6.1914 6.1914-3.418 0-6.1914-2.7695-6.1914-6.1914 0-3.418 2.7734-6.1914 6.1914-6.1914 3.4219 0 6.1914 2.7734 6.1914 6.1914z"/>
 <path d="m74.039 884.88c0 3.4219-2.7695 6.1914-6.1914 6.1914-3.418 0-6.1914-2.7695-6.1914-6.1914 0-3.418 2.7734-6.1914 6.1914-6.1914 3.4219 0 6.1914 2.7734 6.1914 6.1914z"/>
 <path d="m49.297 912.02c0 3.4062-2.7617 6.168-6.168 6.168s-6.168-2.7617-6.168-6.168 2.7617-6.168 6.168-6.168 6.168 2.7617 6.168 6.168z"/>
 <path d="m518.69 912.02c0 3.4062-2.7617 6.168-6.168 6.168s-6.168-2.7617-6.168-6.168 2.7617-6.168 6.168-6.168 6.168 2.7617 6.168 6.168z"/>
 <path d="m487.8 905.86c-3.3828 0-6.1445 2.7617-6.1445 6.168 0 3.4336 2.7617 6.168 6.1445 6.168 3.4805 0 6.2383-2.7344 6.2383-6.168 0-3.4062-2.7578-6.168-6.2383-6.168z"/>
 <path d="m469.27 912.02c0 3.4062-2.7617 6.168-6.168 6.168s-6.168-2.7617-6.168-6.168 2.7617-6.168 6.168-6.168 6.168 2.7617 6.168 6.168z"/>
 <path d="m444.6 912.02c0 3.4062-2.7617 6.168-6.168 6.168s-6.168-2.7617-6.168-6.168 2.7617-6.168 6.168-6.168 6.168 2.7617 6.168 6.168z"/>
 <path d="m123.41 912.02c0 3.4062-2.7578 6.168-6.168 6.168-3.4062 0-6.168-2.7617-6.168-6.168s2.7617-6.168 6.168-6.168c3.4102 0 6.168 2.7617 6.168 6.168z"/>
 <path d="m98.688 912.02c0 3.4062-2.7617 6.168-6.168 6.168s-6.168-2.7617-6.168-6.168 2.7617-6.168 6.168-6.168 6.168 2.7617 6.168 6.168z"/>
 <path d="m74.016 912.02c0 3.4062-2.7617 6.168-6.168 6.168s-6.168-2.7617-6.168-6.168 2.7617-6.168 6.168-6.168 6.168 2.7617 6.168 6.168z"/>
 <path d="m487.8 932.95c-3.3828 0-6.1445 2.7617-6.1445 6.168 0 3.4336 2.7617 6.2148 6.1445 6.2148 3.4805 0 6.2383-2.7852 6.2383-6.2148 0-3.4102-2.7578-6.168-6.2383-6.168z"/>
 <path d="m469.3 939.14c0 3.418-2.7734 6.1914-6.1914 6.1914-3.4219 0-6.1953-2.7734-6.1953-6.1914 0-3.4219 2.7734-6.1914 6.1953-6.1914 3.418 0 6.1914 2.7695 6.1914 6.1914z"/>
 <path d="m98.711 939.14c0 3.418-2.7695 6.1914-6.1914 6.1914-3.418 0-6.1914-2.7734-6.1914-6.1914 0-3.4219 2.7734-6.1914 6.1914-6.1914 3.4219 0 6.1914 2.7695 6.1914 6.1914z"/>
 <path d="m74.039 939.14c0 3.418-2.7695 6.1914-6.1914 6.1914-3.418 0-6.1914-2.7734-6.1914-6.1914 0-3.4219 2.7734-6.1914 6.1914-6.1914 3.4219 0 6.1914 2.7695 6.1914 6.1914z"/>
</svg>
