<?xml version="1.0" encoding="UTF-8"?>
<svg width="1200pt" height="1200pt" version="1.1" viewBox="0 0 1200 1200" xmlns="http://www.w3.org/2000/svg">
 <path d="m491.11 695.57c-29.809 0-54 28.273-54 63 0 34.727 24.191 63 54 63 29.711 0 53.902-28.273 53.902-63 0-34.727-24.191-63-53.902-63zm0 102c-16.535 0-30-17.496-30-39s13.465-39 30-39c16.512 0 29.902 17.496 29.902 39s-13.441 39-29.902 39z"/>
 <path d="m612 695.57c-6.6016 0-12 5.3984-12 12v102c0 6.6016 5.3984 12 12 12 6.625 0 12-5.3984 12-12v-102c0-6.5977-5.375-12-12-12z"/>
 <path d="m732.98 695.57c-29.762 0-53.953 28.273-53.953 63 0 34.727 24.191 63 53.953 63 29.734 0 53.953-28.273 53.953-63 0-34.727-24.219-63-53.953-63zm0 102c-16.512 0-29.953-17.496-29.953-39s13.465-39 29.953-39 29.953 17.496 29.953 39-13.441 39-29.953 39z"/>
 <path d="m865.92 809.57v-102c0-6.6016-5.375-12-12-12-6.6016 0-12 5.3984-12 12v102c0 6.6016 5.3984 12 12 12 6.6211 0 12-5.375 12-12z"/>
 <path d="m932.9 695.57c-6.6484 0-12 5.3984-12 12v102c0 6.6016 5.3516 12 12 12 6.6016 0 12-5.3984 12-12v-102c0-6.5977-5.3984-12-12-12z"/>
 <path d="m1011.9 695.57c-6.6484 0-12 5.3984-12 12v102c0 6.6016 5.3516 12 12 12 6.6016 0 12-5.3984 12-12v-102c0-6.5977-5.4023-12-12-12z"/>
 <path d="m1132.9 821.57c29.734 0 53.953-28.273 53.953-63 0-34.727-24.215-63-53.953-63-29.762 0-54 28.273-54 63 0 34.73 24.242 63 54 63zm0-102c16.512 0 29.953 17.496 29.953 39s-13.441 39-29.953 39c-16.535 0-30-17.496-30-39s13.465-39 30-39z"/>
 <path d="m1132.9 876.5c-29.762 0-54 28.273-54 63 0 34.68 24.238 62.953 54 62.953 29.734 0 53.953-28.273 53.953-62.953 0-34.727-24.215-63-53.953-63zm0 101.98c-16.535 0-30-17.496-30-38.953 0-21.504 13.465-39 30-39 16.512 0 29.953 17.496 29.953 39 0 21.457-13.418 38.953-29.953 38.953z"/>
 <path d="m1011.9 876.5c-6.6484 0-12 5.3984-12 12v101.95c0 6.6016 5.3516 12 12 12 6.6016 0 12-5.3984 12-12v-101.95c0-6.6016-5.4023-12-12-12z"/>
 <path d="m890.95 876.5c-29.762 0-53.953 28.273-53.953 63 0 34.68 24.191 62.953 53.953 62.953 29.711 0 53.953-28.273 53.953-62.953-0.003906-34.727-24.242-63-53.953-63zm0 101.98c-16.512 0-29.953-17.496-29.953-38.953 0-21.504 13.441-39 29.953-39s29.953 17.496 29.953 39c-0.003906 21.457-13.441 38.953-29.953 38.953z"/>
 <path d="m782.02 990.48v-101.95c0-6.6016-5.375-12-12-12-6.6016 0-12 5.3984-12 12v101.95c0 6.6016 5.3984 12 12 12 6.625 0 12-5.3516 12-12z"/>
 <path d="m691.03 1002.5c6.625 0 12-5.3984 12-12v-101.95c0-6.6016-5.375-12-12-12-6.6016 0-12 5.3984-12 12v101.95c0 6.6484 5.375 12 12 12z"/>
 <path d="m612 876.5c-6.6016 0-12 5.3984-12 12v101.95c0 6.6016 5.3984 12 12 12 6.625 0 12-5.3984 12-12v-101.95c0-6.6016-5.375-12-12-12z"/>
 <path d="m491.11 876.5c-29.809 0-54 28.273-54 63 0 34.68 24.191 62.953 54 62.953 29.711 0 53.902-28.273 53.902-62.953 0-34.727-24.191-63-53.902-63zm0 101.98c-16.535 0-30-17.496-30-38.953 0-21.504 13.465-39 30-39 16.512 0 29.902 17.496 29.902 39 0 21.457-13.441 38.953-29.902 38.953z"/>
 <path d="m491.11 1057.5c-29.809 0-54 28.223-54 62.953 0 34.727 24.191 63 54 63 29.711 0 53.902-28.273 53.902-63 0-34.73-24.191-62.953-53.902-62.953zm0 101.95c-16.535 0-30-17.496-30-39 0-21.48 13.465-38.953 30-38.953 16.512 0 29.902 17.496 29.902 38.953 0 21.504-13.441 39-29.902 39z"/>
 <path d="m612 1057.5c-6.6016 0-12 5.3984-12 12v101.95c0 6.6016 5.3984 12 12 12 6.625 0 12-5.3984 12-12v-101.95c0-6.625-5.375-12-12-12z"/>
 <path d="m732.98 1057.5c-29.762 0-53.953 28.223-53.953 62.953 0 34.727 24.191 63 53.953 63 29.734 0 53.953-28.273 53.953-63 0-34.73-24.219-62.953-53.953-62.953zm0 101.95c-16.512 0-29.953-17.496-29.953-39 0-21.48 13.465-38.953 29.953-38.953s29.953 17.496 29.953 38.953c0 21.504-13.441 39-29.953 39z"/>
 <path d="m853.92 1057.5c-6.6016 0-12 5.3984-12 12v101.95c0 6.6016 5.3984 12 12 12 6.625 0 12-5.3984 12-12v-101.95c0-6.625-5.3789-12-12-12z"/>
 <path d="m932.9 1057.5c-6.6484 0-12 5.3984-12 12v101.95c0 6.6016 5.3516 12 12 12 6.6016 0 12-5.3984 12-12v-101.95c0-6.625-5.3984-12-12-12z"/>
 <path d="m1011.9 1057.5c-6.6484 0-12 5.3984-12 12v101.95c0 6.6016 5.3516 12 12 12 6.6016 0 12-5.3984 12-12v-101.95c0-6.625-5.4023-12-12-12z"/>
 <path d="m1132.9 1057.5c-29.762 0-54 28.223-54 62.953 0 34.727 24.238 63 54 63 29.734 0 53.953-28.273 53.953-63 0-34.73-24.215-62.953-53.953-62.953zm0 101.95c-16.535 0-30-17.496-30-39 0-21.48 13.465-38.953 30-38.953 16.512 0 29.953 17.496 29.953 38.953 0 21.504-13.418 39-29.953 39z"/>
 <path d="m23.664 44.879c0 4.6797 0.60156 9.168 1.3906 14.426 0.57422 4.1523 1.1992 8.3516 1.1992 12.504 0 3.457 0 4.7266-5.832 4.7266h-7.2227v22.633h7.2227c5.832 0 5.832 1.8711 5.832 4.7031 0 4.0078-0.57422 7.9922-1.1992 12-0.69531 4.7031-1.3906 9.6016-1.3906 14.281 0 18.625 11.16 29.305 30.574 29.305h10.586v-23.281h-10.105c-3.7422 0-5.5195-0.28906-5.5195-6.8164 0-3.4805 0.50391-6.8164 1.0547-10.512 0.67188-4.2227 1.2227-8.5938 1.2227-13.297 0.097657-7.3438-1.8711-13.441-5.6172-17.809 3.2891-3.7188 5.7344-9.2891 5.6172-17.566 0-4.7773-0.52734-8.9766-1.2461-13.465-0.55078-3.5039-1.0547-6.9609-1.0547-10.273 0-6.4336 1.6094-6.6719 5.5195-6.6719h10.152v-23.207h-10.582c-19.152 0-30.602 10.586-30.602 28.32z"/>
 <path d="m51.77 541.2c0-4.1289 0.625-8.3047 1.3203-13.031 0.64844-4.6797 1.2461-9.1914 1.2461-13.871 0-17.734-11.496-28.32-30.695-28.32h-10.465v23.207h9.9609c4.3203 0.097656 5.6875 0.64844 5.6875 6.6953 0 2.5195-0.38281 5.1602-0.71875 7.7773l-0.33594 2.5195c-0.71875 4.4141-1.3672 8.6172-1.3672 13.391 0 8.3281 2.4727 13.871 5.6875 17.594-3.6953 4.3672-5.6875 10.414-5.6875 17.711 0 4.8242 0.64844 9.2383 1.3438 13.078l0.38281 3.0977c0.35938 2.5938 0.69531 5.1133 0.69531 7.6797 0 6.1445-1.6797 6.7422-5.7109 6.8164h-9.9375v23.281h10.586c19.129 0 30.527-10.922 30.527-29.305 0-4.6797-0.625-9.5508-1.3438-14.305-0.60156-3.9844-1.2461-8.0156-1.2461-12 0-2.832 0-4.7031 5.9023-4.7031h7.1992v-22.609h-7.1992c-5.832 0.097656-5.832-1.2227-5.832-4.7031z"/>
 <path d="m78.961 200.23h445.46c6.625 0 12-5.375 12-12s-5.375-12-12-12h-445.46c-6.625 0-12 5.375-12 12s5.3516 12 12 12z"/>
 <path d="m78.961 267.48h327.79c6.6016 0 12-5.375 12-12s-5.3984-12-12-12h-327.79c-6.625 0-12 5.375-12 12s5.3516 12 12 12z"/>
 <path d="m576.5 243.48h-127.73c-6.6016 0-12 5.375-12 12s5.3984 12 12 12h127.73c6.6016 0 12-5.375 12-12s-5.375-12-12-12z"/>
 <path d="m78.961 334.73h252.12c6.625 0 12-5.375 12-12s-5.375-12-12-12h-252.12c-6.625 0-12 5.375-12 12s5.3516 12 12 12z"/>
 <path d="m362.79 322.73c0 6.625 5.375 12 12 12h95.832c6.6016 0 12-5.375 12-12s-5.3984-12-12-12h-95.832c-6.6484 0-12 5.3789-12 12z"/>
 <path d="m406.75 377.98h-327.79c-6.625 0-12 5.375-12 12s5.375 12 12 12h327.79c6.6016 0 12-5.375 12-12s-5.3789-12-12-12z"/>
 <path d="m193.49 457.2c0-6.625-5.3984-12-12-12h-102.53c-6.625 0-12 5.375-12 12 0 6.6016 5.375 12 12 12h102.5c6.6484 0 12.023-5.3281 12.023-12z"/>
 <path d="m325.73 942.5c0-0.43359-0.19141-0.83984-0.23828-1.2734-0.070312-0.79297-0.23828-1.5117-0.50391-2.2578-0.097656-0.38281-0.070313-0.74219-0.21484-1.0781-0.19141-0.48047-0.52734-0.74219-0.76953-1.1758-0.21484-0.38281-0.26562-0.79297-0.50391-1.1758l-42.098-59.207c-3.8398-5.3984-11.328-6.6484-16.727-2.8086s-6.6719 11.352-2.832 16.727l28.297 39.793c-52.008-1.9219-106.2-11.711-142.41-51.145-32.664-35.566-45.984-91.871-39.527-167.35 0.55078-6.6016-4.3203-12.434-10.945-12.984-6.7188-0.55078-12.434 4.3672-12.984 10.922-7.0078 82.512 8.375 144.91 45.766 185.64 41.062 44.762 101.52 56.207 155.69 58.68l-22.656 23.016c-4.6094 4.6797-4.5586 12.336 0.14453 16.969 2.3516 2.3047 5.3984 3.4805 8.4492 3.4805 3.0977 0 6.1914-1.2227 8.5195-3.6016l42-42.648h0.023438l0.046875-0.046876c0.26562-0.28906 0.35938-0.60156 0.55078-0.83984 0.070313-0.14453 0.12109-0.23828 0.21484-0.38281 0.48047-0.55078 0.86328-1.1289 1.1992-1.7266 0.19141-0.38281 0.45703-0.60156 0.55078-0.9375 0.19141-0.48047 0.16797-0.9375 0.3125-1.4141 0.19141-0.69531 0.38281-1.4141 0.43359-2.207 0.023438-0.33594 0.19141-0.55078 0.19141-0.9375 0.054687-0.027344 0.027343-0.027344 0.027343-0.027344z"/>
 <path d="m772.32 236.21 22.68-23.016c4.6094-4.7266 4.5586-12.312-0.14453-16.969-4.6797-4.6094-12.336-4.6094-16.969 0.14453l-42 42.672c-0.046875 0-0.046875 0-0.070313 0.023438l-0.046875 0.046875c-0.23828 0.23828-0.33594 0.55078-0.52734 0.83984-0.046876 0.070312-0.097657 0.19141-0.19141 0.28906-0.48047 0.60156-0.88672 1.1758-1.2734 1.8711-0.16797 0.3125-0.43359 0.57422-0.50391 0.91016-0.19141 0.45703-0.19141 0.91016-0.33594 1.3672-0.21484 0.74219-0.35938 1.4414-0.43359 2.207-0.023437 0.33594-0.19141 0.625-0.19141 0.98438v0.046875c0 0.45703 0.21484 0.86328 0.26562 1.3203 0.070313 0.71875 0.21484 1.4414 0.45703 2.1367 0.097656 0.38281 0.097656 0.76953 0.23828 1.1289 0.21484 0.45703 0.55078 0.79297 0.79297 1.2227 0.23828 0.35938 0.28906 0.74219 0.50391 1.0781l42.098 59.207c2.3516 3.2891 6.0234 5.0391 9.7695 5.0391 2.4258 0 4.8477-0.71875 6.9609-2.207 5.3984-3.8398 6.6484-11.328 2.8086-16.727l-28.32-39.84c52.031 1.9219 106.22 11.711 142.46 51.168 32.664 35.566 45.938 91.871 39.504 167.33-0.55078 6.6016 4.3203 12.434 10.895 12.984 0.35938 0.023437 0.69531 0.046875 1.0547 0.046875 6.1914 0 11.398-4.7266 11.93-10.992 7.0547-82.414-8.3516-144.86-45.719-185.59-41.047-44.773-101.5-56.27-155.7-58.719z"/>
 <path d="m1163.1 722.11c0 3.418-2.7734 6.1914-6.1953 6.1914-3.418 0-6.1914-2.7734-6.1914-6.1914 0-3.4219 2.7734-6.1914 6.1914-6.1914 3.4219 0 6.1953 2.7695 6.1953 6.1914z"/>
 <path d="m1138.4 722.11c0 3.418-2.7695 6.1914-6.1914 6.1914-3.418 0-6.1914-2.7734-6.1914-6.1914 0-3.4219 2.7734-6.1914 6.1914-6.1914 3.4219 0 6.1914 2.7695 6.1914 6.1914z"/>
 <path d="m1113.6 722.11c0 3.4062-2.7617 6.168-6.168 6.168s-6.168-2.7617-6.168-6.168 2.7617-6.168 6.168-6.168 6.168 2.7617 6.168 6.168z"/>
 <path d="m767.73 722.11c0 3.3906-2.75 6.1445-6.1406 6.1445-3.3945 0-6.1445-2.7539-6.1445-6.1445 0-3.3945 2.75-6.1445 6.1445-6.1445 3.3906 0 6.1406 2.75 6.1406 6.1445z"/>
 <path d="m743.04 722.11c0 3.4062-2.7617 6.168-6.168 6.168s-6.168-2.7617-6.168-6.168 2.7617-6.168 6.168-6.168 6.168 2.7617 6.168 6.168z"/>
 <path d="m718.39 722.11c0 3.4062-2.7617 6.168-6.2383 6.168-3.3359 0-6.1445-2.7617-6.1445-6.168 0-3.4336 2.8086-6.1914 6.1445-6.1914 3.457 0 6.2383 2.7578 6.2383 6.1914z"/>
 <path d="m1163.1 749.21c0 3.4219-2.7734 6.1914-6.1953 6.1914-3.418 0-6.1914-2.7695-6.1914-6.1914 0-3.418 2.7734-6.1914 6.1914-6.1914 3.4219 0 6.1953 2.7734 6.1953 6.1914z"/>
 <path d="m1138.4 749.21c0 3.4219-2.7695 6.1914-6.1914 6.1914-3.418 0-6.1914-2.7695-6.1914-6.1914 0-3.418 2.7734-6.1914 6.1914-6.1914 3.4219 0 6.1914 2.7734 6.1914 6.1914z"/>
 <path d="m1113.6 749.21c0 3.4062-2.7617 6.168-6.168 6.168s-6.168-2.7617-6.168-6.168 2.7617-6.168 6.168-6.168 6.168 2.7617 6.168 6.168z"/>
 <path d="m767.73 749.21c0 3.3945-2.75 6.1445-6.1406 6.1445-3.3945 0-6.1445-2.75-6.1445-6.1445 0-3.3906 2.75-6.1445 6.1445-6.1445 3.3906 0 6.1406 2.7539 6.1406 6.1445z"/>
 <path d="m743.04 749.21c0 3.4062-2.7617 6.168-6.168 6.168s-6.168-2.7617-6.168-6.168 2.7617-6.168 6.168-6.168 6.168 2.7617 6.168 6.168z"/>
 <path d="m718.39 749.21c0 3.4062-2.7617 6.1914-6.2383 6.1914-3.3359 0-6.1445-2.7852-6.1445-6.1914 0-3.4336 2.8086-6.168 6.1445-6.168 3.457 0 6.2383 2.7383 6.2383 6.168z"/>
 <path d="m1163.1 776.38c0 3.4219-2.7734 6.1914-6.1953 6.1914-3.418 0-6.1914-2.7695-6.1914-6.1914 0-3.418 2.7734-6.1914 6.1914-6.1914 3.4219 0 6.1953 2.7734 6.1953 6.1914z"/>
 <path d="m1138.4 776.38c0 3.4219-2.7695 6.1914-6.1914 6.1914-3.418 0-6.1914-2.7695-6.1914-6.1914 0-3.418 2.7734-6.1914 6.1914-6.1914 3.4219 0 6.1914 2.7734 6.1914 6.1914z"/>
 <path d="m1113.6 776.38c0 3.4062-2.7617 6.168-6.168 6.168s-6.168-2.7617-6.168-6.168 2.7617-6.168 6.168-6.168 6.168 2.7617 6.168 6.168z"/>
 <path d="m767.73 776.38c0 3.3945-2.75 6.1445-6.1406 6.1445-3.3945 0-6.1445-2.75-6.1445-6.1445 0-3.3906 2.75-6.1445 6.1445-6.1445 3.3906 0 6.1406 2.7539 6.1406 6.1445z"/>
 <path d="m743.04 776.38c0 3.4062-2.7617 6.168-6.168 6.168s-6.168-2.7617-6.168-6.168 2.7617-6.168 6.168-6.168 6.168 2.7617 6.168 6.168z"/>
 <path d="m718.39 776.38c0 3.4336-2.7617 6.2148-6.2383 6.2148-3.3359 0-6.1445-2.7852-6.1445-6.2148 0-3.4062 2.8086-6.1914 6.1445-6.1914 3.457 0 6.2383 2.7852 6.2383 6.1914z"/>
 <path d="m1163.1 803.5c0 3.418-2.7734 6.1914-6.1953 6.1914-3.418 0-6.1914-2.7734-6.1914-6.1914 0-3.418 2.7734-6.1914 6.1914-6.1914 3.4219 0 6.1953 2.7734 6.1953 6.1914z"/>
 <path d="m1138.4 803.5c0 3.418-2.7695 6.1914-6.1914 6.1914-3.418 0-6.1914-2.7734-6.1914-6.1914 0-3.418 2.7734-6.1914 6.1914-6.1914 3.4219 0 6.1914 2.7734 6.1914 6.1914z"/>
 <path d="m1113.6 803.5c0 3.4062-2.7617 6.168-6.168 6.168s-6.168-2.7617-6.168-6.168 2.7617-6.168 6.168-6.168 6.168 2.7617 6.168 6.168z"/>
 <path d="m767.73 803.5c0 3.3945-2.75 6.1445-6.1406 6.1445-3.3945 0-6.1445-2.75-6.1445-6.1445 0-3.3945 2.75-6.1445 6.1445-6.1445 3.3906 0 6.1406 2.75 6.1406 6.1445z"/>
 <path d="m743.04 803.5c0 3.4062-2.7617 6.168-6.168 6.168s-6.168-2.7617-6.168-6.168 2.7617-6.168 6.168-6.168 6.168 2.7617 6.168 6.168z"/>
 <path d="m718.39 803.5c0 3.4336-2.7617 6.1914-6.2383 6.1914-3.3359 0-6.1445-2.7617-6.1445-6.1914 0-3.4062 2.8086-6.1914 6.1445-6.1914 3.457 0.023437 6.2383 2.8086 6.2383 6.1914z"/>
 <path d="m1163.1 912.02c0 3.4219-2.7734 6.1914-6.1953 6.1914-3.418 0-6.1914-2.7695-6.1914-6.1914 0-3.418 2.7734-6.1914 6.1914-6.1914 3.4219 0 6.1953 2.7734 6.1953 6.1914z"/>
 <path d="m1138.4 912.02c0 3.4219-2.7695 6.1914-6.1914 6.1914-3.418 0-6.1914-2.7695-6.1914-6.1914 0-3.418 2.7734-6.1914 6.1914-6.1914 3.4219 0 6.1914 2.7734 6.1914 6.1914z"/>
 <path d="m1113.6 912.02c0 3.4062-2.7617 6.168-6.168 6.168s-6.168-2.7617-6.168-6.168 2.7617-6.168 6.168-6.168 6.168 2.7617 6.168 6.168z"/>
 <path d="m916.01 912.02c0 3.4062-2.7617 6.168-6.168 6.168s-6.168-2.7617-6.168-6.168 2.7617-6.168 6.168-6.168 6.168 2.7617 6.168 6.168z"/>
 <path d="m891.27 912.02c0 3.3945-2.7539 6.1445-6.1445 6.1445-3.3945 0-6.1445-2.75-6.1445-6.1445 0-3.3945 2.75-6.1445 6.1445-6.1445 3.3906 0 6.1445 2.75 6.1445 6.1445z"/>
 <path d="m866.62 912.02c0 3.4219-2.7734 6.1914-6.1914 6.1914-3.4219 0-6.1953-2.7695-6.1953-6.1914 0-3.418 2.7734-6.1914 6.1953-6.1914 3.418 0 6.1914 2.7734 6.1914 6.1914z"/>
 <path d="m1163.1 939.12c0 3.418-2.7734 6.1914-6.1953 6.1914-3.418 0-6.1914-2.7734-6.1914-6.1914 0-3.4219 2.7734-6.1914 6.1914-6.1914 3.4219 0 6.1953 2.7695 6.1953 6.1914z"/>
 <path d="m1138.4 939.12c0 3.418-2.7695 6.1914-6.1914 6.1914-3.418 0-6.1914-2.7734-6.1914-6.1914 0-3.4219 2.7734-6.1914 6.1914-6.1914 3.4219 0 6.1914 2.7695 6.1914 6.1914z"/>
 <path d="m1113.6 939.12c0 3.4062-2.7617 6.168-6.168 6.168s-6.168-2.7617-6.168-6.168 2.7617-6.168 6.168-6.168 6.168 2.7617 6.168 6.168z"/>
 <path d="m916.01 939.12c0 3.4062-2.7617 6.168-6.168 6.168s-6.168-2.7617-6.168-6.168 2.7617-6.168 6.168-6.168 6.168 2.7617 6.168 6.168z"/>
 <path d="m891.27 939.12c0 3.3906-2.7539 6.1445-6.1445 6.1445-3.3945 0-6.1445-2.7539-6.1445-6.1445 0-3.3945 2.75-6.1445 6.1445-6.1445 3.3906 0 6.1445 2.75 6.1445 6.1445z"/>
 <path d="m866.62 939.12c0 3.418-2.7734 6.1914-6.1914 6.1914-3.4219 0-6.1953-2.7734-6.1953-6.1914 0-3.4219 2.7734-6.1914 6.1953-6.1914 3.418 0 6.1914 2.7695 6.1914 6.1914z"/>
 <path d="m1163.1 966.27c0 3.418-2.7734 6.1914-6.1953 6.1914-3.418 0-6.1914-2.7734-6.1914-6.1914 0-3.4219 2.7734-6.1953 6.1914-6.1953 3.4219 0 6.1953 2.7734 6.1953 6.1953z"/>
 <path d="m1138.4 966.27c0 3.418-2.7695 6.1914-6.1914 6.1914-3.418 0-6.1914-2.7734-6.1914-6.1914 0-3.4219 2.7734-6.1953 6.1914-6.1953 3.4219 0 6.1914 2.7734 6.1914 6.1953z"/>
 <path d="m1113.6 966.27c0 3.4062-2.7617 6.168-6.168 6.168s-6.168-2.7617-6.168-6.168 2.7617-6.168 6.168-6.168 6.168 2.7617 6.168 6.168z"/>
 <path d="m916.01 966.27c0 3.4062-2.7617 6.168-6.168 6.168s-6.168-2.7617-6.168-6.168 2.7617-6.168 6.168-6.168 6.168 2.7617 6.168 6.168z"/>
 <path d="m891.27 966.27c0 3.3906-2.7539 6.1406-6.1445 6.1406-3.3945 0-6.1445-2.75-6.1445-6.1406 0-3.3945 2.75-6.1445 6.1445-6.1445 3.3906 0 6.1445 2.75 6.1445 6.1445z"/>
 <path d="m866.62 966.27c0 3.418-2.7734 6.1914-6.1914 6.1914-3.4219 0-6.1953-2.7734-6.1953-6.1914 0-3.4219 2.7734-6.1953 6.1953-6.1953 3.418 0 6.1914 2.7734 6.1914 6.1953z"/>
 <path d="m1163.1 1074.7c0 3.4219-2.7734 6.1953-6.1953 6.1953-3.418 0-6.1914-2.7734-6.1914-6.1953 0-3.418 2.7734-6.1914 6.1914-6.1914 3.4219 0 6.1953 2.7734 6.1953 6.1914z"/>
 <path d="m1138.4 1074.7c0 3.4219-2.7695 6.1953-6.1914 6.1953-3.418 0-6.1914-2.7734-6.1914-6.1953 0-3.418 2.7734-6.1914 6.1914-6.1914 3.4219 0 6.1914 2.7734 6.1914 6.1914z"/>
 <path d="m1113.6 1074.7c0 3.4102-2.7617 6.168-6.168 6.168s-6.168-2.7578-6.168-6.168c0-3.4062 2.7617-6.168 6.168-6.168s6.168 2.7617 6.168 6.168z"/>
 <path d="m767.73 1074.7c0 3.3945-2.75 6.1445-6.1406 6.1445-3.3945 0-6.1445-2.75-6.1445-6.1445 0-3.3906 2.75-6.1406 6.1445-6.1406 3.3906 0 6.1406 2.75 6.1406 6.1406z"/>
 <path d="m743.04 1074.7c0 3.4102-2.7617 6.168-6.168 6.168s-6.168-2.7578-6.168-6.168c0-3.4062 2.7617-6.168 6.168-6.168s6.168 2.7617 6.168 6.168z"/>
 <path d="m718.39 1074.7c0 3.4336-2.7617 6.1914-6.2383 6.1914-3.3359 0-6.1445-2.7617-6.1445-6.1914 0-3.4336 2.8086-6.168 6.1445-6.168 3.457 0 6.2383 2.7617 6.2383 6.168z"/>
 <path d="m1163.1 1101.9c0 3.4219-2.7734 6.1914-6.1953 6.1914-3.418 0-6.1914-2.7695-6.1914-6.1914 0-3.418 2.7734-6.1914 6.1914-6.1914 3.4219 0 6.1953 2.7734 6.1953 6.1914z"/>
 <path d="m1138.4 1101.9c0 3.4219-2.7695 6.1914-6.1914 6.1914-3.418 0-6.1914-2.7695-6.1914-6.1914 0-3.418 2.7734-6.1914 6.1914-6.1914 3.4219 0 6.1914 2.7734 6.1914 6.1914z"/>
 <path d="m1113.6 1101.9c0 3.4062-2.7617 6.168-6.168 6.168s-6.168-2.7617-6.168-6.168 2.7617-6.168 6.168-6.168 6.168 2.7617 6.168 6.168z"/>
 <path d="m767.73 1101.9c0 3.3945-2.75 6.1445-6.1406 6.1445-3.3945 0-6.1445-2.75-6.1445-6.1445 0-3.3906 2.75-6.1445 6.1445-6.1445 3.3906 0 6.1406 2.7539 6.1406 6.1445z"/>
 <path d="m743.04 1101.9c0 3.4062-2.7617 6.168-6.168 6.168s-6.168-2.7617-6.168-6.168 2.7617-6.168 6.168-6.168 6.168 2.7617 6.168 6.168z"/>
 <path d="m718.39 1101.9c0 3.4336-2.7617 6.1914-6.2383 6.1914-3.3359 0-6.1445-2.7617-6.1445-6.1914 0-3.4062 2.8086-6.168 6.1445-6.168 3.457 0 6.2383 2.7852 6.2383 6.168z"/>
 <path d="m1163.1 1129c0 3.4219-2.7734 6.1914-6.1953 6.1914-3.418 0-6.1914-2.7695-6.1914-6.1914 0-3.418 2.7734-6.1914 6.1914-6.1914 3.4219 0 6.1953 2.7734 6.1953 6.1914z"/>
 <path d="m1138.4 1129c0 3.4219-2.7695 6.1914-6.1914 6.1914-3.418 0-6.1914-2.7695-6.1914-6.1914 0-3.418 2.7734-6.1914 6.1914-6.1914 3.4219 0 6.1914 2.7734 6.1914 6.1914z"/>
 <path d="m1113.6 1129c0 3.4062-2.7617 6.168-6.168 6.168s-6.168-2.7617-6.168-6.168 2.7617-6.168 6.168-6.168 6.168 2.7617 6.168 6.168z"/>
 <path d="m767.73 1129c0 3.3945-2.75 6.1445-6.1406 6.1445-3.3945 0-6.1445-2.75-6.1445-6.1445 0-3.3945 2.75-6.1445 6.1445-6.1445 3.3906 0 6.1406 2.75 6.1406 6.1445z"/>
 <path d="m743.04 1129c0 3.4062-2.7617 6.168-6.168 6.168s-6.168-2.7617-6.168-6.168 2.7617-6.168 6.168-6.168 6.168 2.7617 6.168 6.168z"/>
 <path d="m718.39 1129c0 3.4336-2.7617 6.2148-6.2383 6.2148-3.3359 0-6.1445-2.7852-6.1445-6.2148 0-3.4062 2.8086-6.1914 6.1445-6.1914 3.457 0 6.2383 2.7852 6.2383 6.1914z"/>
 <path d="m1163.1 1156.2c0 3.4219-2.7734 6.1914-6.1953 6.1914-3.418 0-6.1914-2.7695-6.1914-6.1914 0-3.418 2.7734-6.1914 6.1914-6.1914 3.4219 0 6.1953 2.7734 6.1953 6.1914z"/>
 <path d="m1138.4 1156.2c0 3.4219-2.7695 6.1914-6.1914 6.1914-3.418 0-6.1914-2.7695-6.1914-6.1914 0-3.418 2.7734-6.1914 6.1914-6.1914 3.4219 0 6.1914 2.7734 6.1914 6.1914z"/>
 <path d="m1113.6 1156.2c0 3.4062-2.7617 6.168-6.168 6.168s-6.168-2.7617-6.168-6.168 2.7617-6.168 6.168-6.168 6.168 2.7617 6.168 6.168z"/>
 <path d="m767.73 1156.2c0 3.3945-2.75 6.1445-6.1406 6.1445-3.3945 0-6.1445-2.75-6.1445-6.1445s2.75-6.1445 6.1445-6.1445c3.3906 0 6.1406 2.75 6.1406 6.1445z"/>
 <path d="m743.04 1156.2c0 3.4062-2.7617 6.168-6.168 6.168s-6.168-2.7617-6.168-6.168 2.7617-6.168 6.168-6.168 6.168 2.7617 6.168 6.168z"/>
 <path d="m718.39 1156.2c0 3.4062-2.7617 6.168-6.2383 6.168-3.3359 0-6.1445-2.7617-6.1445-6.168 0-3.4336 2.8086-6.2148 6.1445-6.2148 3.457 0 6.2383 2.7812 6.2383 6.2148z"/>
 <path d="m518.71 722.11c0 3.418-2.7695 6.1914-6.1914 6.1914-3.418 0-6.1914-2.7734-6.1914-6.1914 0-3.4219 2.7734-6.1914 6.1914-6.1914 3.4219 0 6.1914 2.7695 6.1914 6.1914z"/>
 <path d="m494.04 722.11c0 3.418-2.7695 6.1914-6.1914 6.1914-3.418 0-6.1914-2.7734-6.1914-6.1914 0-3.4219 2.7734-6.1914 6.1914-6.1914 3.4219 0 6.1914 2.7695 6.1914 6.1914z"/>
 <path d="m469.3 722.11c0 3.4062-2.7617 6.168-6.168 6.168s-6.168-2.7617-6.168-6.168 2.7617-6.168 6.168-6.168 6.168 2.7617 6.168 6.168z"/>
 <path d="m518.71 749.21c0 3.4219-2.7695 6.1914-6.1914 6.1914-3.418 0-6.1914-2.7695-6.1914-6.1914 0-3.418 2.7734-6.1914 6.1914-6.1914 3.4219 0 6.1914 2.7734 6.1914 6.1914z"/>
 <path d="m494.04 749.21c0 3.4219-2.7695 6.1914-6.1914 6.1914-3.418 0-6.1914-2.7695-6.1914-6.1914 0-3.418 2.7734-6.1914 6.1914-6.1914 3.4219 0 6.1914 2.7734 6.1914 6.1914z"/>
 <path d="m469.3 749.21c0 3.4062-2.7617 6.168-6.168 6.168s-6.168-2.7617-6.168-6.168 2.7617-6.168 6.168-6.168 6.168 2.7617 6.168 6.168z"/>
 <path d="m518.71 776.38c0 3.4219-2.7695 6.1914-6.1914 6.1914-3.418 0-6.1914-2.7695-6.1914-6.1914 0-3.418 2.7734-6.1914 6.1914-6.1914 3.4219 0 6.1914 2.7734 6.1914 6.1914z"/>
 <path d="m494.04 776.38c0 3.4219-2.7695 6.1914-6.1914 6.1914-3.418 0-6.1914-2.7695-6.1914-6.1914 0-3.418 2.7734-6.1914 6.1914-6.1914 3.4219 0 6.1914 2.7734 6.1914 6.1914z"/>
 <path d="m469.3 776.38c0 3.4062-2.7617 6.168-6.168 6.168s-6.168-2.7617-6.168-6.168 2.7617-6.168 6.168-6.168 6.168 2.7617 6.168 6.168z"/>
 <path d="m518.71 803.5c0 3.418-2.7695 6.1914-6.1914 6.1914-3.418 0-6.1914-2.7734-6.1914-6.1914 0-3.418 2.7734-6.1914 6.1914-6.1914 3.4219 0 6.1914 2.7734 6.1914 6.1914z"/>
 <path d="m494.04 803.5c0 3.418-2.7695 6.1914-6.1914 6.1914-3.418 0-6.1914-2.7734-6.1914-6.1914 0-3.418 2.7734-6.1914 6.1914-6.1914 3.4219 0 6.1914 2.7734 6.1914 6.1914z"/>
 <path d="m469.3 803.5c0 3.4062-2.7617 6.168-6.168 6.168s-6.168-2.7617-6.168-6.168 2.7617-6.168 6.168-6.168 6.168 2.7617 6.168 6.168z"/>
 <path d="m518.71 912.02c0 3.4219-2.7695 6.1914-6.1914 6.1914-3.418 0-6.1914-2.7695-6.1914-6.1914 0-3.418 2.7734-6.1914 6.1914-6.1914 3.4219 0 6.1914 2.7734 6.1914 6.1914z"/>
 <path d="m494.04 912.02c0 3.4219-2.7695 6.1914-6.1914 6.1914-3.418 0-6.1914-2.7695-6.1914-6.1914 0-3.418 2.7734-6.1914 6.1914-6.1914 3.4219 0 6.1914 2.7734 6.1914 6.1914z"/>
 <path d="m469.3 912.02c0 3.4062-2.7617 6.168-6.168 6.168s-6.168-2.7617-6.168-6.168 2.7617-6.168 6.168-6.168 6.168 2.7617 6.168 6.168z"/>
 <path d="m518.71 939.12c0 3.418-2.7695 6.1914-6.1914 6.1914-3.418 0-6.1914-2.7734-6.1914-6.1914 0-3.4219 2.7734-6.1914 6.1914-6.1914 3.4219 0 6.1914 2.7695 6.1914 6.1914z"/>
 <path d="m494.04 939.12c0 3.418-2.7695 6.1914-6.1914 6.1914-3.418 0-6.1914-2.7734-6.1914-6.1914 0-3.4219 2.7734-6.1914 6.1914-6.1914 3.4219 0 6.1914 2.7695 6.1914 6.1914z"/>
 <path d="m469.3 939.12c0 3.4062-2.7617 6.168-6.168 6.168s-6.168-2.7617-6.168-6.168 2.7617-6.168 6.168-6.168 6.168 2.7617 6.168 6.168z"/>
 <path d="m518.71 966.27c0 3.418-2.7695 6.1914-6.1914 6.1914-3.418 0-6.1914-2.7734-6.1914-6.1914 0-3.4219 2.7734-6.1953 6.1914-6.1953 3.4219 0 6.1914 2.7734 6.1914 6.1953z"/>
 <path d="m494.04 966.27c0 3.418-2.7695 6.1914-6.1914 6.1914-3.418 0-6.1914-2.7734-6.1914-6.1914 0-3.4219 2.7734-6.1953 6.1914-6.1953 3.4219 0 6.1914 2.7734 6.1914 6.1953z"/>
 <path d="m469.3 966.27c0 3.4062-2.7617 6.168-6.168 6.168s-6.168-2.7617-6.168-6.168 2.7617-6.168 6.168-6.168 6.168 2.7617 6.168 6.168z"/>
 <path d="m518.71 1074.7c0 3.4219-2.7695 6.1953-6.1914 6.1953-3.418 0-6.1914-2.7734-6.1914-6.1953 0-3.418 2.7734-6.1914 6.1914-6.1914 3.4219 0 6.1914 2.7734 6.1914 6.1914z"/>
 <path d="m494.04 1074.7c0 3.4219-2.7695 6.1953-6.1914 6.1953-3.418 0-6.1914-2.7734-6.1914-6.1953 0-3.418 2.7734-6.1914 6.1914-6.1914 3.4219 0 6.1914 2.7734 6.1914 6.1914z"/>
 <path d="m469.3 1074.7c0 3.4102-2.7617 6.168-6.168 6.168s-6.168-2.7578-6.168-6.168c0-3.4062 2.7617-6.168 6.168-6.168s6.168 2.7617 6.168 6.168z"/>
 <path d="m518.71 1101.9c0 3.4219-2.7695 6.1914-6.1914 6.1914-3.418 0-6.1914-2.7695-6.1914-6.1914 0-3.418 2.7734-6.1914 6.1914-6.1914 3.4219 0 6.1914 2.7734 6.1914 6.1914z"/>
 <path d="m494.04 1101.9c0 3.4219-2.7695 6.1914-6.1914 6.1914-3.418 0-6.1914-2.7695-6.1914-6.1914 0-3.418 2.7734-6.1914 6.1914-6.1914 3.4219 0 6.1914 2.7734 6.1914 6.1914z"/>
 <path d="m469.3 1101.9c0 3.4062-2.7617 6.168-6.168 6.168s-6.168-2.7617-6.168-6.168 2.7617-6.168 6.168-6.168 6.168 2.7617 6.168 6.168z"/>
 <path d="m518.71 1129c0 3.4219-2.7695 6.1914-6.1914 6.1914-3.418 0-6.1914-2.7695-6.1914-6.1914 0-3.418 2.7734-6.1914 6.1914-6.1914 3.4219 0 6.1914 2.7734 6.1914 6.1914z"/>
 <path d="m494.04 1129c0 3.4219-2.7695 6.1914-6.1914 6.1914-3.418 0-6.1914-2.7695-6.1914-6.1914 0-3.418 2.7734-6.1914 6.1914-6.1914 3.4219 0 6.1914 2.7734 6.1914 6.1914z"/>
 <path d="m469.3 1129c0 3.4062-2.7617 6.168-6.168 6.168s-6.168-2.7617-6.168-6.168 2.7617-6.168 6.168-6.168 6.168 2.7617 6.168 6.168z"/>
 <path d="m518.71 1156.2c0 3.4219-2.7695 6.1914-6.1914 6.1914-3.418 0-6.1914-2.7695-6.1914-6.1914 0-3.418 2.7734-6.1914 6.1914-6.1914 3.4219 0 6.1914 2.7734 6.1914 6.1914z"/>
 <path d="m494.04 1156.2c0 3.4219-2.7695 6.1914-6.1914 6.1914-3.418 0-6.1914-2.7695-6.1914-6.1914 0-3.418 2.7734-6.1914 6.1914-6.1914 3.4219 0 6.1914 2.7734 6.1914 6.1914z"/>
 <path d="m469.3 1156.2c0 3.4062-2.7617 6.168-6.168 6.168s-6.168-2.7617-6.168-6.168 2.7617-6.168 6.168-6.168 6.168 2.7617 6.168 6.168z"/>
</svg>
